<?xml version="1.0" encoding="UTF-8"?>
<svg width="99px" height="80px" viewBox="0 0 99 80" version="1.1" xmlns="http://www.w3.org/2000/svg" xmlns:xlink="http://www.w3.org/1999/xlink">
    <!-- Generator: Sketch 63.1 (92452) - https://sketch.com -->
    <title>Combined Shape</title>
    <desc>Created with Sketch.</desc>
    <g id="შეკვეთები-h" stroke="none" stroke-width="1" fill="none" fill-rule="evenodd">
        <g id="POS-order-minimized" transform="translate(-1391.000000, -360.000000)" fill="#D2D4DD" fill-rule="nonzero">
            <g id="Group-2" transform="translate(1008.000000, 286.000000)">
                <g id="Group-18" transform="translate(296.000000, 0.000000)">
                    <g id="noun_Image_810291" transform="translate(86.000000, 74.158088)">
                        <g id="Group" transform="translate(0.891158, 0.506329)">
                            <path d="M80.6877004,39.0456983 L96.5579114,63.4258643 C98.9634599,67.1183067 99.3883333,70.9839925 97.7136498,74.0326665 C96.0389662,77.0874912 92.5355696,78.8353019 88.0966245,78.8353019 L10.8192827,78.8353019 C6.31831224,78.8353019 2.85833333,77.0926167 1.32320675,74.0490683 C-0.208818565,71.0096203 0.460021097,67.2208176 3.16122363,63.6524134 L16.9628903,45.4464785 C21.9859072,38.8047977 31.7176793,38.7883959 36.7737764,45.4218759 L42.6682489,53.1378709 C44.7212869,55.8216061 47.7936076,55.8267317 49.8693882,53.1440216 L61.3275316,38.2799419 C66.5169831,31.5295995 76.0409705,31.9150405 80.6877004,39.0456983 Z M67.6561814,43.0723262 L56.1949367,57.9405063 C51.1109283,64.552459 41.3760549,64.5217057 36.3230591,57.9097531 L30.422384,50.1876074 C28.3755485,47.4936211 25.3642194,47.4987466 23.3328903,50.193758 L9.52812236,68.3976427 C8.58740506,69.6369994 8.44991561,70.424283 8.477827,70.5975265 C8.47886076,70.5985516 8.48092827,70.5985516 8.48402954,70.5985516 C8.57706751,70.5985516 9.29862869,70.9378626 10.8203165,70.9378626 L88.0966245,70.9378626 C89.7981857,70.9378626 90.5962447,70.480664 90.7202954,70.2602656 C90.8391772,70.0388421 90.7926582,69.1285453 89.8705485,67.7149201 L73.9993038,43.3347541 C72.2057384,40.5833617 69.6440928,40.4859763 67.6561814,43.0723262 Z M44.2612658,0.0700311268 C53.4968354,0.0700311268 61.0122363,7.51949782 61.0122363,16.676796 C61.0122363,25.8279436 53.4968354,33.2733098 44.2612658,33.2733098 C35.0287975,33.2733098 27.5195992,25.8279436 27.5195992,16.676796 C27.5195992,7.51949782 35.0298312,0.0700311268 44.2612658,0.0700311268 Z M44.2612658,7.96747043 C39.4201899,7.96747043 35.4836498,11.8751857 35.4836498,16.676796 C35.4836498,21.4732808 39.4212236,25.3758705 44.2612658,25.3758705 C49.1064768,25.3758705 53.0481857,21.4732808 53.0481857,16.676796 C53.0481857,11.8741606 49.105443,7.96747043 44.2612658,7.96747043 Z" id="Combined-Shape"></path>
                        </g>
                    </g>
                </g>
            </g>
        </g>
    </g>
</svg>