<svg xmlns="http://www.w3.org/2000/svg" width="48" height="48" viewBox="0 0 48 48">
    <path fill="#4563FF" fill-rule="evenodd" d="M24 29.832c1.23 0 2.227.997 2.227 2.227S25.23 34.286 24 34.286s-2.227-.997-2.227-2.227.997-2.227 2.227-2.227zm.109-5.65c2.444 0 4.671.924 6.3 2.662.544.49.49 1.358 0 1.902-.488.543-1.357.543-1.9 0-1.141-1.195-2.716-1.847-4.4-1.847-1.739 0-3.477.76-4.672 2.064-.272.272-.597.435-.978.435-.326 0-.652-.163-.923-.38-.543-.49-.543-1.359-.055-1.902 1.739-1.847 4.129-2.933 6.628-2.933zm0-5.975c3.856 0 7.442 1.467 10.212 4.237.489.49.543 1.358 0 1.902-.489.489-1.358.543-1.901 0-2.282-2.227-5.215-3.423-8.311-3.423-3.26 0-6.302 1.304-8.529 3.694-.271.272-.597.435-.978.435-.325 0-.651-.109-.923-.38-.543-.49-.543-1.358-.054-1.902 2.716-2.933 6.464-4.563 10.484-4.563zm0-5.377c5.323 0 10.32 2.064 14.014 5.812.544.489.544 1.358-.054 1.956-.489.543-1.358.543-1.901 0-3.205-3.26-7.442-5.052-12.06-5.052-4.725 0-9.071 1.847-12.33 5.269-.272.271-.598.434-.978.434-.326 0-.652-.108-.923-.38-.544-.489-.598-1.358-.055-1.901 3.748-3.966 8.855-6.138 14.287-6.138z"/>
</svg>
