<svg xmlns="http://www.w3.org/2000/svg" width="49" height="48" viewBox="0 0 49 48">
    <path fill="#FFF" fill-rule="evenodd" d="M12.362 15.318c.433.536.356 1.32-.176 1.766-1.865 1.507-2.795 3.887-2.444 6.26.352 2.371 1.932 4.38 4.156 5.28.436.18.733.584.778 1.046l.006.127v1.926l1.21 1.21c.51.51.574 1.3.191 1.88l-.089.121-.102.114-.915.914.919.916c.51.511.574 1.3.192 1.88l-.089.12-.102.114-1.215 1.226v.739l1.78 1.78 1.779-1.78v-11.16c0-.425.212-.815.554-1.047l.12-.072.115-.054c.373-.152.732-.338 1.034-.526.23-.22.537-.342.853-.34.56-.003 1.058.358 1.23.893.167.534-.04 1.113-.504 1.418-.22.15-.447.288-.678.418l-.215.113v10.673c-.008.352-.12.69-.316.972l-.105.137-.119.126-2.627 2.627c-.595.59-1.533.625-2.169.103l-.116-.104-2.62-2.625c-.29-.287-.47-.663-.515-1.067l-.01-.174v-1.32c0-.44.155-.867.437-1.203l.11-.122.673-.673-.514-.516c-.3-.3-.499-.684-.572-1.097l-.024-.179-.008-.181c0-.486.172-.954.482-1.324l.122-.133.517-.518-.67-.67c-.275-.274-.456-.623-.524-.999l-.022-.163-.007-.165v-1.403l-.133-.068c-2.506-1.353-4.25-3.778-4.74-6.572l-.049-.3-.038-.304c-.342-3.148.94-6.253 3.408-8.244.545-.424 1.328-.333 1.76.204zm17.569-7.97c4.064 2.541 5.883 7.501 4.456 12.051l-.044.134 8.752 8.753c.27.271.447.617.514.988l.022.161.008.163v4.271c-.003.872-.674 1.587-1.527 1.66l-.144.006h-4.266c-.439 0-.861-.155-1.196-.434l-.121-.11-1.073-1.072c-.326-.33-.525-.763-.564-1.221l-.007-.173v-1.277h-1.029c-1.099 0-2.008-.811-2.16-1.869l-.016-.153-.006-.155v-1.033h-1.267c-.406.001-.8-.123-1.13-.351l-.137-.104-.128-.117-1.231-1.227-.134.044c-4.36 1.368-9.097-.246-11.721-3.96l-.168-.245-.162-.25c-2.594-4.15-1.98-9.54 1.48-13 3.46-3.46 8.85-4.074 12.999-1.48zm-11.2 3.28c-2.696 2.695-3.105 6.922-.976 10.084 2.129 3.163 6.199 4.375 9.711 2.892.431-.181.924-.108 1.282.18l.104.093 1.63 1.631h2.049c.8 0 1.456.613 1.526 1.394l.007.14-.001 1.677h1.68c.795.003 1.448.612 1.52 1.39l.007.139v2.047l.71.71h3.129v-3.129l-9.128-9.128c-.331-.33-.45-.813-.32-1.255l.047-.131c1.483-3.512.27-7.582-2.892-9.71-3.162-2.13-7.39-1.72-10.085.975zm3.77.846l.21.007c.698.052 1.356.351 1.854.849.985.985 1.136 2.53.361 3.687-.774 1.158-2.259 1.608-3.546 1.074-1.286-.534-2.017-1.902-1.744-3.269.272-1.366 1.472-2.35 2.865-2.348z" opacity=".15"/>
</svg>
