<?xml version="1.0" standalone="no"?>
<!DOCTYPE svg PUBLIC "-//W3C//DTD SVG 1.1//EN" "http://www.w3.org/Graphics/SVG/1.1/DTD/svg11.dtd" >
<svg xmlns="http://www.w3.org/2000/svg" xmlns:xlink="http://www.w3.org/1999/xlink" version="1.1">
<metadata>
Created by FontForge 20170924 at Fri Oct 11 13:05:22 2019
 By www-data
Copyright (c) 2016 Monotype Imaging Inc. All rights reserved.
</metadata>
<defs>
<font id="HelveticaNeueLTGEO-75Bold" horiz-adv-x="259" >
  <font-face 
    font-family="HelveticaNeueLTGEO-75Bold"
    font-weight="400"
    font-stretch="normal"
    units-per-em="1000"
    panose-1="2 11 8 4 2 2 2 2 2 4"
    ascent="785"
    descent="-215"
    x-height="517"
    cap-height="714"
    bbox="-166 -217 1078 973"
    underline-thickness="50"
    underline-position="-125"
    unicode-range="U+000D-FEFF"
  />
<missing-glyph horiz-adv-x="512" 
d="M512 718v-718h-512v718h512zM462 50v617h-412v-617h412zM259 609q54 0 89 -36.5t35 -94.5q0 -38 -14.5 -63.5t-49.5 -57.5q-34 -31 -41 -46q-7 -17 -7 -77h-46l-2 19q0 34 4 54q6 38 59 88q46 42 46 79q0 34 -23 59.5t-53 25.5q-70 0 -82 -95l-50 8q7 67 41.5 102
t93.5 35zM222 184h56v-67h-56v67z" />
    <glyph glyph-name=".notdef" horiz-adv-x="512" 
d="M512 718v-718h-512v718h512zM462 50v617h-412v-617h412zM259 609q54 0 89 -36.5t35 -94.5q0 -38 -14.5 -63.5t-49.5 -57.5q-34 -31 -41 -46q-7 -17 -7 -77h-46l-2 19q0 34 4 54q6 38 59 88q46 42 46 79q0 34 -23 59.5t-53 25.5q-70 0 -82 -95l-50 8q7 67 41.5 102
t93.5 35zM222 184h56v-67h-56v67z" />
    <glyph glyph-name=".null" horiz-adv-x="0" 
 />
    <glyph glyph-name="nonmarkingreturn" horiz-adv-x="333" 
 />
    <glyph glyph-name="NULL" horiz-adv-x="0" 
 />
    <glyph glyph-name="NULL" horiz-adv-x="0" 
 />
    <glyph glyph-name="CR" unicode="&#xd;" horiz-adv-x="278" 
 />
    <glyph glyph-name="space" unicode=" " horiz-adv-x="278" 
 />
    <glyph glyph-name="exclam" unicode="!" horiz-adv-x="278" 
d="M213 714v-192l-39 -308h-71l-38 308v192h148zM218 154v-154h-157v154h157z" />
    <glyph glyph-name="quotedbl" unicode="&#x22;" horiz-adv-x="463" 
d="M192 714v-321h-107v321h107zM378 714v-321h-107v321h107z" />
    <glyph glyph-name="numbersign" unicode="#" horiz-adv-x="556" 
d="M283 700l-28 -198h97l27 198h97l-27 -198h74v-90h-87l-17 -124h74v-90h-87l-27 -198h-97l27 198h-96l-27 -195l-1 -3h-97l28 198h-83v90h95l18 124h-83v90h95l28 198h97zM243 412l-18 -124h97l17 124h-96z" />
    <glyph glyph-name="dollar" unicode="$" horiz-adv-x="556" 
d="M248 808h59v-77q103 -11 161.5 -65.5t63.5 -147.5h-142q-1 40 -25 68t-58 28v-177q137 -30 193.5 -85.5t56.5 -153.5q0 -33 -14 -67t-42 -66.5t-78.5 -55t-115.5 -26.5v-85h-59v85q-226 17 -249 249h142v-3q0 -51 29 -85t78 -44v209q-2 1 -27.5 7.5t-40.5 11.5
q-83 26 -123.5 70.5t-40.5 118.5q0 92 64 149t168 65v77zM158 531q0 -33 21 -50.5t69 -29.5v163q-38 0 -64 -23t-26 -60zM307 100q48 5 78 31.5t30 66.5q0 37 -23.5 57.5t-84.5 36.5v-192z" />
    <glyph glyph-name="percent" unicode="%" horiz-adv-x="1000" 
d="M753 722l-412 -744h-87l414 744h85zM245 714q85 0 124.5 -54.5t39.5 -146.5q0 -91 -44 -140t-125 -49q-165 0 -165 192q0 88 43.5 143t126.5 55zM177 513q0 -23 1.5 -37.5t7 -35t19.5 -31t36 -10.5q66 0 66 114q0 126 -62 126q-68 0 -68 -126zM761 376q164 0 164 -196
q0 -90 -44 -142t-125 -52q-83 0 -124 52t-41 145q0 86 43 139.5t127 53.5zM693 182q0 -24 1.5 -39.5t7 -37.5t19.5 -33t36 -11q66 0 66 121q0 119 -63 119q-67 0 -67 -119z" />
    <glyph glyph-name="ampersand" unicode="&#x26;" horiz-adv-x="685" 
d="M311 722q83 0 139 -45t56 -126q0 -110 -127 -178l92 -113q20 35 26 85h123q-11 -102 -69 -176l145 -169h-174l-58 71q-87 -85 -201 -85q-101 0 -166 58.5t-65 155.5q0 132 160 207q-68 80 -68 152q0 71 55 117t132 46zM253 564q0 -44 56 -107q39 24 56 47t17 55
q0 28 -19 48t-47 20q-26 0 -44.5 -17.5t-18.5 -45.5zM167 197q0 -38 31 -66t71 -28q64 0 120 63l-122 149q-100 -42 -100 -118z" />
    <glyph glyph-name="quotesingle" unicode="'" horiz-adv-x="278" 
d="M193 714v-321h-107v321h107z" />
    <glyph glyph-name="parenleft" unicode="(" horiz-adv-x="296" 
d="M303 731q-109 -203 -109 -453q0 -248 108 -460h-118q-132 216 -132 450q0 118 33.5 243t98.5 220h119z" />
    <glyph glyph-name="parenright" unicode=")" horiz-adv-x="296" 
d="M112 731q132 -216 132 -451q0 -115 -33 -241t-99 -221h-119q109 208 109 452q0 250 -108 461h118z" />
    <glyph glyph-name="asterisk" unicode="*" horiz-adv-x="407" 
d="M242 714v-125l116 44l27 -77l-118 -39l74 -98l-66 -49l-74 103l-70 -103l-67 49l74 98l-116 39l27 77l113 -44v125h80z" />
    <glyph glyph-name="plus" unicode="+" horiz-adv-x="600" 
d="M354 505v-199h199v-107h-199v-199h-107v199h-199v107h199v199h107z" />
    <glyph glyph-name="comma" unicode="," horiz-adv-x="278" 
d="M218 154v-156q0 -60 -41.5 -106t-114.5 -58v72q31 7 51 32t20 55v7h-72v154h157z" />
    <glyph glyph-name="hyphen" unicode="-" horiz-adv-x="407" 
d="M354 334v-122h-301v122h301z" />
    <glyph glyph-name="period" unicode="." horiz-adv-x="278" 
d="M217 154v-154h-157v154h157z" />
    <glyph glyph-name="slash" unicode="/" horiz-adv-x="371" 
d="M382 731l-279 -748h-114l279 748h114z" />
    <glyph glyph-name="zero" unicode="0" horiz-adv-x="556" 
d="M277 714q126 0 192 -92t66 -269q0 -180 -66 -273.5t-192 -93.5t-191 93t-65 274q0 177 65 269t191 92zM163 357q0 -30 0.5 -49.5t3.5 -54t10.5 -57t19.5 -46t32.5 -35.5t47.5 -12t47.5 11.5t33 34t20 45.5t10.5 56t4 54.5t1 52.5q0 36 -1.5 63.5t-8.5 62.5t-19 58.5
t-34.5 39.5t-53.5 16q-27 0 -47.5 -12t-32 -35.5t-19 -45t-10.5 -54.5t-3.5 -50t-0.5 -43z" />
    <glyph glyph-name="one" unicode="1" horiz-adv-x="556" 
d="M392 700v-700h-142v454h-176v107h10q174 0 195 139h113z" />
    <glyph glyph-name="two" unicode="2" horiz-adv-x="556" 
d="M291 714q100 0 170 -60t70 -159q0 -68 -32 -120q-36 -57 -135 -120q-119 -75 -160 -133h331v-122h-514q0 128 93 216q39 37 177 130q47 32 72.5 64t25.5 74q0 48 -28.5 78t-76.5 30q-52 0 -81 -43t-30 -118h-136v13q0 122 69 196t185 74z" />
    <glyph glyph-name="three" unicode="3" horiz-adv-x="556" 
d="M277 714q91 0 163 -53t72 -141q0 -53 -26 -91.5t-72 -51.5v-2q58 -13 91 -56.5t33 -102.5q0 -105 -76 -167.5t-184 -62.5q-119 0 -189.5 67t-70.5 180v8h135q3 -66 35.5 -102t87.5 -36q50 0 82 30.5t32 79.5q0 58 -35 81t-105 23h-22v100h26q60 0 91.5 22.5t31.5 64.5
q0 43 -28.5 68t-70.5 25q-45 0 -76.5 -30t-31.5 -95h-135q4 110 69.5 176t172.5 66z" />
    <glyph glyph-name="four" unicode="4" horiz-adv-x="556" 
d="M447 700v-421h93v-117h-93v-162h-135v162h-296v130l304 408h127zM309 522l-181 -243h184v243h-3z" />
    <glyph glyph-name="five" unicode="5" horiz-adv-x="556" 
d="M500 700v-117h-289l-28 -159l2 -2q54 54 137 54q101 0 158.5 -68t57.5 -170q0 -105 -74.5 -178.5t-182.5 -73.5q-114 0 -187 59t-76 163h142q5 -48 36.5 -76.5t78.5 -28.5q53 0 87 39.5t34 95.5q0 55 -32.5 93t-89.5 38q-66 0 -106 -56h-128l69 387h391z" />
    <glyph glyph-name="six" unicode="6" horiz-adv-x="556" 
d="M296 714q93 0 154 -51.5t73 -142.5h-135q-8 39 -34 63t-60 24q-61 0 -95 -60.5t-39 -152.5l2 -2q55 78 157 78q87 0 151.5 -61.5t64.5 -166.5q0 -109 -68.5 -182.5t-176.5 -73.5q-137 0 -203 97.5t-66 264.5q0 65 15 127t45.5 117t86 88.5t128.5 33.5zM173 233
q0 -54 31.5 -92t81.5 -38q48 0 77.5 38t29.5 90q0 54 -27.5 93t-80.5 39q-51 0 -81.5 -36t-30.5 -94z" />
    <glyph glyph-name="seven" unicode="7" horiz-adv-x="556" 
d="M517 700v-122q-104 -93 -165 -257.5t-64 -320.5h-152q12 154 73 300.5t162 267.5h-332v132h478z" />
    <glyph glyph-name="eight" unicode="8" horiz-adv-x="556" 
d="M279 714q61 0 108.5 -19t73.5 -48.5t39 -61t13 -60.5q0 -52 -26.5 -90.5t-75.5 -55.5v-2q64 -15 97.5 -60t33.5 -111q0 -104 -77 -162t-185 -58q-70 0 -128.5 22t-98 73.5t-39.5 123.5q0 66 34.5 111.5t97.5 60.5v2q-49 13 -76 51.5t-27 92.5q0 88 71 139.5t165 51.5z
M172 510q0 -43 31 -67.5t76 -24.5q46 0 75.5 24.5t29.5 67.5q0 38 -23.5 67.5t-82.5 29.5q-43 0 -74.5 -25.5t-31.5 -71.5zM156 212q0 -53 35.5 -86t88.5 -33q52 0 86 33t34 85q0 48 -34 80t-87 32q-54 0 -88.5 -30t-34.5 -81z" />
    <glyph glyph-name="nine" unicode="9" horiz-adv-x="556" 
d="M267 714q135 0 201.5 -97t66.5 -264q0 -68 -15.5 -131t-47 -117t-86.5 -86.5t-126 -32.5q-93 0 -154 51.5t-73 142.5h135q8 -38 34 -62.5t60 -24.5q57 0 92 54.5t42 158.5l-2 2q-54 -78 -158 -78q-36 0 -72.5 13.5t-69 39.5t-53 72t-20.5 103q0 108 67.5 182t178.5 74z
M163 469q0 -54 27.5 -93t79.5 -39q54 0 83.5 37t29.5 93q0 54 -31.5 92t-81.5 38q-48 0 -77.5 -38t-29.5 -90z" />
    <glyph glyph-name="colon" unicode=":" horiz-adv-x="278" 
d="M218 508v-154h-157v154h157zM218 154v-154h-157v154h157z" />
    <glyph glyph-name="semicolon" unicode=";" horiz-adv-x="278" 
d="M218 508v-154h-157v154h157zM218 154v-155q0 -64 -43.5 -109t-112.5 -56v72q30 6 50.5 31t20.5 56v7h-72v154h157z" />
    <glyph glyph-name="less" unicode="&#x3c;" horiz-adv-x="600" 
d="M554 399l-367 -146l367 -146v-115l-508 202v118l508 202v-115z" />
    <glyph glyph-name="equal" unicode="=" horiz-adv-x="600" 
d="M553 413v-107h-505v107h505zM553 199v-107h-505v107h505z" />
    <glyph glyph-name="greater" unicode="&#x3e;" horiz-adv-x="600" 
d="M46 514l508 -202v-118l-508 -202v115l367 146l-367 146v115z" />
    <glyph glyph-name="question" unicode="?" horiz-adv-x="556" 
d="M275 731q66 0 116.5 -18.5t78 -48.5t41 -62.5t13.5 -64.5q0 -47 -15.5 -83t-31 -52.5t-40.5 -34.5l-33 -24q-62 -45 -62 -100v-29h-135v29q0 58 21.5 98.5t67.5 76.5q29 23 40.5 34t21 29.5t9.5 42.5q0 90 -85 90q-49 0 -76 -35t-27 -95h-147q2 111 69 179t174 68z
M350 154v-154h-157v154h157z" />
    <glyph glyph-name="at" unicode="@" horiz-adv-x="800" 
d="M416 731q141 0 244.5 -86t103.5 -219q0 -71 -27 -130t-66.5 -92t-77 -50.5t-65.5 -17.5q-30 0 -50 15.5t-22 41.5h-2q-36 -58 -108 -58q-63 0 -110 50.5t-47 121.5q0 97 61 175.5t157 78.5q39 0 71 -18t46 -52l16 54h82l-61 -250q-10 -38 -10 -51q0 -23 17 -23
q45 0 81.5 53t36.5 131q0 113 -75 179.5t-196 66.5q-127 0 -205 -83.5t-78 -212.5t82 -210.5t213 -81.5q62 0 119 21.5t96 60.5h84q-53 -79 -132.5 -120.5t-172.5 -41.5q-161 0 -273 107.5t-112 266.5q0 157 111.5 265.5t268.5 108.5zM291 319q0 -39 21 -64t57 -25
q51 0 87 47.5t36 103.5q0 35 -22 60t-56 25q-50 0 -86.5 -45.5t-36.5 -101.5z" />
    <glyph glyph-name="A" unicode="A" horiz-adv-x="685" 
d="M425 714l267 -714h-163l-54 159h-267l-56 -159h-159l271 714h161zM342 538l-93 -262h185l-90 262h-2z" />
    <glyph glyph-name="B" unicode="B" horiz-adv-x="704" 
d="M406 714q227 0 227 -176q0 -102 -97 -150q65 -18 98 -65.5t33 -115.5q0 -101 -72.5 -154t-179.5 -53h-346v714h337zM386 425q44 0 69.5 21.5t25.5 63.5q0 82 -106 82h-149v-167h160zM395 122q115 0 115 94q0 102 -112 102h-172v-196h169z" />
    <glyph glyph-name="C" unicode="C" horiz-adv-x="741" 
d="M389 731q123 0 209 -69.5t99 -187.5h-152q-8 53 -53 89t-103 36q-94 0 -144 -67t-50 -178q0 -106 50 -172.5t144 -66.5q68 0 110 42t52 118h152q-12 -135 -97 -213.5t-217 -78.5q-160 0 -255.5 105t-95.5 266q0 163 95 270t256 107z" />
    <glyph glyph-name="D" unicode="D" horiz-adv-x="741" 
d="M375 714q150 0 238 -93t88 -260q0 -169 -86 -265t-236 -96h-310v714h306zM365 132q79 0 129 53t50 162q0 124 -52 179.5t-154 55.5h-112v-450h139z" />
    <glyph glyph-name="E" unicode="E" horiz-adv-x="648" 
d="M603 714v-132h-377v-153h346v-122h-346v-175h385v-132h-542v714h534z" />
    <glyph glyph-name="F" unicode="F" horiz-adv-x="593" 
d="M571 714v-132h-345v-165h299v-122h-299v-295h-157v714h502z" />
    <glyph glyph-name="G" unicode="G" horiz-adv-x="759" 
d="M389 731q118 0 204.5 -69t96.5 -183h-150q-14 59 -53.5 89.5t-97.5 30.5q-94 0 -144 -67.5t-50 -177.5q0 -102 48.5 -170.5t145.5 -68.5q155 0 170 154h-158v117h300v-386h-100l-16 81q-76 -98 -196 -98q-160 0 -255.5 105.5t-95.5 265.5q0 164 94.5 270.5t256.5 106.5z
" />
    <glyph glyph-name="H" unicode="H" horiz-adv-x="741" 
d="M226 714v-274h289v274h157v-714h-157v308h-289v-308h-157v714h157z" />
    <glyph glyph-name="I" unicode="I" horiz-adv-x="295" 
d="M226 714v-714h-157v714h157z" />
    <glyph glyph-name="J" unicode="J" horiz-adv-x="556" 
d="M487 714v-490q0 -118 -59.5 -179.5t-176.5 -61.5q-109 0 -173 59.5t-64 159.5v64h142v-35q0 -62 22.5 -89t68.5 -27q28 0 45.5 9t25.5 27t10 34t2 41v488h157z" />
    <glyph glyph-name="K" unicode="K" horiz-adv-x="722" 
d="M226 714v-296l279 296h196l-279 -282l306 -432h-197l-215 321l-90 -91v-230h-157v714h157z" />
    <glyph glyph-name="L" unicode="L" horiz-adv-x="593" 
d="M226 714v-582h348v-132h-505v714h157z" />
    <glyph glyph-name="M" unicode="M" horiz-adv-x="907" 
d="M290 714l167 -491h2l158 491h221v-714h-147v506h-2l-175 -506h-121l-175 501h-2v-501h-147v714h221z" />
    <glyph glyph-name="N" unicode="N" horiz-adv-x="741" 
d="M225 714l298 -479h2v479h147v-714h-157l-297 478h-2v-478h-147v714h156z" />
    <glyph glyph-name="O" unicode="O" horiz-adv-x="778" 
d="M389 731q159 0 255 -106t96 -271q0 -160 -95.5 -265.5t-255.5 -105.5t-255.5 105.5t-95.5 265.5q0 163 95.5 270t255.5 107zM195 354q0 -105 50 -172t144 -67q95 0 144.5 67.5t49.5 171.5q0 109 -49.5 177t-145.5 68q-94 0 -143.5 -68t-49.5 -177z" />
    <glyph glyph-name="P" unicode="P" horiz-adv-x="667" 
d="M392 714q120 0 183 -64t63 -165t-63.5 -165t-181.5 -64h-167v-256h-157v714h323zM351 378q69 0 102 25.5t33 81.5q0 55 -32.5 81t-101.5 26h-126v-214h125z" />
    <glyph glyph-name="Q" unicode="Q" horiz-adv-x="778" 
d="M389 731q159 0 255 -105.5t96 -271.5q0 -156 -93 -263l89 -81l-73 -77l-101 92q-73 -42 -173 -42q-161 0 -256 106t-95 265q0 164 94.5 270.5t256.5 106.5zM195 354q0 -44 10 -83.5t31 -76t60.5 -58t93.5 -21.5q50 0 62 10l-67 61l73 78l81 -74q44 59 44 164
q0 111 -50.5 178t-144.5 67q-93 0 -143 -67.5t-50 -177.5z" />
    <glyph glyph-name="R" unicode="R" horiz-adv-x="722" 
d="M454 714q93 0 151 -56.5t58 -140.5q0 -134 -113 -179v-2q29 -8 49.5 -27t30.5 -37t16 -49t7.5 -46.5t2.5 -45.5q4 -98 28 -131h-157q-13 32 -20 124q-7 84 -30.5 119.5t-92.5 35.5h-158v-279h-157v714h385zM399 391q107 0 107 102q0 99 -108 99h-172v-201h173z" />
    <glyph glyph-name="S" unicode="S" horiz-adv-x="649" 
d="M315 731q124 0 205 -57.5t81 -172.5h-152q-7 108 -140 108q-47 0 -78 -20.5t-31 -60.5q0 -38 32.5 -54.5t157.5 -47.5q41 -11 66 -18.5t61.5 -25t56.5 -38t35.5 -55t15.5 -77.5q0 -103 -78.5 -166t-218.5 -63q-59 0 -111.5 14.5t-96.5 43.5t-70 78t-26 113v5h152
q0 -69 46 -100.5t111 -31.5q60 0 100 21.5t40 67.5q0 34 -28.5 56.5t-94.5 38.5q-134 35 -145 39q-157 52 -157 188q0 69 40 119t99.5 73t127.5 23z" />
    <glyph glyph-name="T" unicode="T" horiz-adv-x="611" 
d="M598 714v-132h-214v-582h-157v582h-214v132h585z" />
    <glyph glyph-name="U" unicode="U" horiz-adv-x="741" 
d="M223 714v-447q0 -79 35.5 -115.5t111.5 -36.5q81 0 114.5 36t33.5 116v447h157v-447q0 -135 -77.5 -209.5t-227.5 -74.5q-152 0 -228 74t-76 210v447h157z" />
    <glyph glyph-name="V" unicode="V" horiz-adv-x="630" 
d="M154 714l159 -502h2l161 502h162l-237 -714h-177l-232 714h162z" />
    <glyph glyph-name="W" unicode="W" horiz-adv-x="944" 
d="M160 714l113 -486h2l124 486h147l122 -492h2l117 492h154l-192 -714h-156l-121 486h-2l-119 -486h-159l-189 714h157z" />
    <glyph glyph-name="X" unicode="X" horiz-adv-x="667" 
d="M196 714l140 -228l145 228h172l-229 -341l249 -373h-187l-156 247l-159 -247h-177l250 374l-230 340h182z" />
    <glyph glyph-name="Y" unicode="Y" horiz-adv-x="667" 
d="M168 714l167 -282l166 282h175l-265 -440v-274h-157v278l-263 436h177z" />
    <glyph glyph-name="Z" unicode="Z" horiz-adv-x="648" 
d="M615 714v-124l-383 -458h393v-132h-602v124l383 458h-353v132h562z" />
    <glyph glyph-name="bracketleft" unicode="[" horiz-adv-x="333" 
d="M332 731v-112h-122v-689h122v-112h-264v913h264z" />
    <glyph glyph-name="backslash" unicode="\" horiz-adv-x="371" 
d="M103 731l279 -748h-114l-279 748h114z" />
    <glyph glyph-name="bracketright" unicode="]" horiz-adv-x="333" 
d="M265 731v-913h-264v112h122v689h-122v112h264z" />
    <glyph glyph-name="asciicircum" unicode="^" horiz-adv-x="600" 
d="M367 700l172 -385h-117l-122 275l-122 -275h-117l172 385h134z" />
    <glyph glyph-name="underscore" unicode="_" horiz-adv-x="500" 
d="M500 -75v-50h-500v50h500z" />
    <glyph glyph-name="grave" unicode="`" 
d="M109 731l96 -142h-99l-154 142h157z" />
    <glyph glyph-name="a" unicode="a" horiz-adv-x="574" 
d="M292 531q226 0 226 -147v-274q0 -81 18 -110h-144q-9 28 -10 50q-61 -64 -174 -64q-81 0 -128.5 40.5t-47.5 114.5q0 71 45 110q46 39 167 52q76 8 104 20t28 44q0 40 -24 54.5t-67 14.5q-88 0 -95 -78h-142q4 84 69 128.5t175 44.5zM174 147q0 -66 87 -66q115 0 115 117
v55q-18 -16 -86 -25q-60 -7 -88 -24.5t-28 -56.5z" />
    <glyph glyph-name="b" unicode="b" horiz-adv-x="611" 
d="M196 714v-260h2q51 77 163 77q86 0 150 -70t64 -202q0 -129 -62.5 -201t-152.5 -72q-126 0 -169 80h-2v-66h-135v714h142zM191 258q0 -73 32 -119t89 -46q58 0 89.5 46.5t31.5 118.5q0 73 -31 119.5t-91 46.5q-57 0 -88.5 -46t-31.5 -120z" />
    <glyph glyph-name="c" unicode="c" horiz-adv-x="574" 
d="M302 531q102 0 170 -52.5t73 -143.5h-139q-14 89 -105 89q-60 0 -90.5 -49t-30.5 -119q0 -69 29.5 -116t88.5 -47q98 0 113 105h137q-14 -102 -79.5 -157t-169.5 -55q-118 0 -189.5 75t-71.5 190q0 125 71 202.5t193 77.5z" />
    <glyph glyph-name="d" unicode="d" horiz-adv-x="611" 
d="M558 714v-714h-135v66h-2q-47 -80 -157 -80t-171 80t-61 197q0 113 61 190.5t168 77.5q48 0 89 -20t64 -57h2v260h142zM174 259q0 -68 32 -117t93 -49q60 0 91 44t31 123q0 75 -30.5 119.5t-92.5 44.5q-60 0 -92 -44.5t-32 -120.5z" />
    <glyph glyph-name="e" unicode="e" horiz-adv-x="574" 
d="M293 531q118 0 185 -80.5t67 -200.5l-1 -26h-373q6 -131 126 -131q40 0 72.5 19.5t40.5 47.5h125q-57 -174 -242 -174q-121 0 -192.5 75.5t-71.5 196.5q0 118 74 195.5t190 77.5zM402 314q-10 58 -37 84t-77 26q-51 0 -81.5 -29t-35.5 -81h231z" />
    <glyph glyph-name="f" unicode="f" horiz-adv-x="333" 
d="M85 0v422h-85v95h85v38q0 78 47 118.5t126 40.5q19 0 75 -4v-106q-27 3 -51 3q-31 0 -43 -13.5t-12 -46.5v-30h98v-95h-98v-422h-142z" />
    <glyph glyph-name="g" unicode="g" horiz-adv-x="611" 
d="M260 531q106 0 154 -83h2v69h135v-485q0 -106 -65.5 -167t-201.5 -61q-93 0 -159 45t-70 121h141q17 -71 106 -71q55 0 84.5 33t29.5 92v71h-2q-21 -38 -62 -59t-93 -21q-108 0 -164.5 71t-56.5 189q0 106 59 181t163 75zM180 277q0 -68 28.5 -111.5t86.5 -43.5
q56 0 88.5 40.5t32.5 103.5q0 30 -5.5 55.5t-18 50t-37.5 38.5t-61 14q-54 0 -84 -41t-30 -106z" />
    <glyph glyph-name="h" unicode="h" horiz-adv-x="593" 
d="M196 714v-269h3q24 40 65 63t87 23q98 0 143 -50t45 -158v-323h-142v294q0 64 -21 94.5t-70 30.5q-62 0 -86 -37t-24 -111v-271h-142v714h142z" />
    <glyph glyph-name="i" unicode="i" horiz-adv-x="258" 
d="M200 714v-117h-142v117h142zM200 517v-517h-142v517h142z" />
    <glyph glyph-name="j" unicode="j" horiz-adv-x="278" 
d="M209 714v-117h-142v117h142zM209 517v-546q0 -83 -40.5 -118t-140.5 -35q-26 0 -47 4v117q11 -4 32 -4q30 0 42 12t12 35v535h142z" />
    <glyph glyph-name="k" unicode="k" horiz-adv-x="574" 
d="M209 714v-383l179 186h168l-195 -190l217 -327h-172l-142 231l-55 -53v-178h-142v714h142z" />
    <glyph glyph-name="l" unicode="l" horiz-adv-x="258" 
d="M200 714v-714h-142v714h142z" />
    <glyph glyph-name="m" unicode="m" horiz-adv-x="906" 
d="M352 531q113 0 151 -86q59 86 157 86q94 0 141 -48t47 -136v-347h-142v299q0 60 -17 90t-70 30q-95 0 -95 -130v-289h-142v305q0 58 -17 86t-69 28q-34 0 -65 -27.5t-31 -90.5v-301h-142v517h134v-70h2q59 84 158 84z" />
    <glyph glyph-name="n" unicode="n" horiz-adv-x="593" 
d="M351 531q98 0 143 -50t45 -159v-322h-142v293q0 65 -21 95.5t-70 30.5q-62 0 -86 -37.5t-24 -112.5v-269h-142v517h135v-72h3q53 86 159 86z" />
    <glyph glyph-name="o" unicode="o" horiz-adv-x="611" 
d="M305 531q122 0 195 -74.5t73 -198.5t-74 -198t-194 -74q-122 0 -194.5 74.5t-72.5 197.5q0 124 73 198.5t194 74.5zM180 258q0 -79 32.5 -122t92.5 -43q62 0 94 43.5t32 121.5q0 72 -29.5 119t-97.5 47q-59 0 -91.5 -43.5t-32.5 -122.5z" />
    <glyph glyph-name="p" unicode="p" horiz-adv-x="611" 
d="M345 531q113 0 174 -78.5t61 -199.5q0 -113 -60 -190t-167 -77q-102 0 -155 78h-2v-246h-142v699h135v-66h2q50 80 154 80zM191 257q0 -74 31 -119t93 -45q63 0 93 45t30 119q0 69 -30 118t-95 49q-58 0 -90 -44t-32 -123z" />
    <glyph glyph-name="q" unicode="q" horiz-adv-x="611" 
d="M264 531q112 0 157 -80h2v66h135v-699h-142v247h-2q-23 -38 -66 -58.5t-97 -20.5q-84 0 -151.5 66.5t-67.5 201.5q0 117 60.5 197t171.5 80zM174 258q0 -75 30.5 -120t92.5 -45q63 0 93.5 45t30.5 118q0 68 -29.5 118t-92.5 50q-62 0 -93.5 -46t-31.5 -120z" />
    <glyph glyph-name="r" unicode="r" horiz-adv-x="389" 
d="M356 531q14 0 31 -5v-132q-23 5 -51 5q-140 0 -140 -166v-233h-142v517h135v-96h2q20 49 66 79.5t99 30.5z" />
    <glyph glyph-name="s" unicode="s" horiz-adv-x="537" 
d="M266 531q105 0 163 -42.5t65 -122.5h-135q-6 70 -97 70q-79 0 -79 -48q0 -24 25 -39t86 -27q130 -26 174 -63q40 -36 40 -93q0 -93 -67.5 -136.5t-168.5 -43.5q-109 0 -174.5 46.5t-68.5 135.5h135q0 -42 31 -64.5t78 -22.5q39 0 66 17t27 49q0 28 -34.5 44.5
t-121.5 34.5q-90 19 -129.5 51.5t-39.5 87.5q0 82 57.5 124t167.5 42z" />
    <glyph glyph-name="t" unicode="t" horiz-adv-x="352" 
d="M234 672v-155h104v-95h-104v-256q0 -36 12 -48t48 -12q28 0 44 4v-111q-30 -5 -84 -5q-84 0 -123 28.5t-39 96.5v303h-86v95h86v155h142z" />
    <glyph glyph-name="u" unicode="u" horiz-adv-x="593" 
d="M196 517v-293q0 -63 20.5 -94.5t70.5 -31.5q58 0 84 35t26 112v272h142v-517h-135v72h-3q-53 -86 -159 -86q-100 0 -144 51t-44 159v321h142z" />
    <glyph glyph-name="v" unicode="v" horiz-adv-x="520" 
d="M154 517l109 -353h2l109 353h141l-175 -517h-158l-177 517h149z" />
    <glyph glyph-name="w" unicode="w" horiz-adv-x="814" 
d="M156 517l95 -351h2l86 351h138l88 -350h2l95 350h146l-163 -517h-146l-92 347h-2l-88 -347h-147l-164 517h150z" />
    <glyph glyph-name="x" unicode="x" horiz-adv-x="537" 
d="M178 517l91 -135l90 135h157l-170 -242l191 -275h-162l-108 163l-108 -163h-159l186 272l-170 245h162z" />
    <glyph glyph-name="y" unicode="y" horiz-adv-x="519" 
d="M146 517l117 -354h2l113 354h147l-216 -582q-23 -61 -64 -89t-112 -28q-39 0 -89 5v117q38 -5 75 -5q29 0 46 18t17 47q0 15 -6 32l-182 485h152z" />
    <glyph glyph-name="z" unicode="z" horiz-adv-x="519" 
d="M478 517v-107l-269 -303h288v-107h-475v107l269 303h-249v107h436z" />
    <glyph glyph-name="braceleft" unicode="{" horiz-adv-x="333" 
d="M333 619h-54q-54 0 -54 -71v-153q0 -53 -26 -83.5t-73 -35.5v-3q42 -6 70.5 -34.5t28.5 -74.5v-163q0 -71 55 -71h53v-112h-124q-46 0 -86 37.5t-40 96.5v196q0 39 -29 60.5t-63 22.5v87q39 2 65.5 26t26.5 62v191q0 57 39.5 95.5t87.5 38.5h123v-112z" />
    <glyph glyph-name="bar" unicode="|" horiz-adv-x="223" 
d="M165 786v-1000h-107v1000h107z" />
    <glyph glyph-name="braceright" unicode="}" horiz-adv-x="333" 
d="M126 731q42 0 83 -36.5t41 -99.5v-188q0 -39 26.5 -63t65.5 -26v-87q-41 -2 -66.5 -25t-25.5 -56v-198q0 -60 -40.5 -97t-83.5 -37h-126v112h54q54 0 54 72v161q0 49 28.5 77t70.5 33v3q-49 5 -74 36.5t-25 79.5v156q0 71 -54 71h-54v112h126z" />
    <glyph glyph-name="asciitilde" unicode="~" horiz-adv-x="600" 
d="M533 251q-31 -45 -59.5 -65.5t-65.5 -20.5q-40 0 -110 34q-69 34 -107 34q-52 0 -84 -72l-40 93q45 86 125 86q41 0 124 -38q64 -30 89 -30q23 0 43 16.5t45 55.5z" />
    <glyph glyph-name="uni00A0" unicode="&#xa0;" horiz-adv-x="278" 
 />
    <glyph glyph-name="exclamdown" unicode="&#xa1;" horiz-adv-x="278" 
d="M218 531v-154h-157v154h157zM175 317l38 -308v-192h-148v192l39 308h71z" />
    <glyph glyph-name="cent" unicode="&#xa2;" horiz-adv-x="556" 
d="M260 616h59v-85q84 0 152 -54t72 -143h-139q-3 36 -27 61.5t-58 28.5v-331q37 7 62 39.5t25 70.5h139q-8 -93 -69 -150.5t-157 -66.5v-101h-59v101q-106 6 -172.5 81t-66.5 183q0 118 63 194.5t176 86.5v85zM163 264q0 -67 25 -111.5t72 -59.5v330q-46 -12 -71.5 -54
t-25.5 -105z" />
    <glyph glyph-name="sterling" unicode="&#xa3;" horiz-adv-x="556" 
d="M295 731q116 0 179.5 -64t64.5 -186h-135q-6 133 -109 133q-44 0 -71 -25t-27 -68q0 -32 8 -56.5t33 -70.5h133v-85h-105q8 -24 8 -61q0 -76 -82 -141l2 -2q38 23 68 23t78 -11q54 -12 80 -12q47 0 87 43l60 -101q-66 -64 -157 -64q-62 0 -111 19t-96 19q-67 0 -115 -38
l-62 93q113 72 113 166q0 26 -19 67h-99v85h64q-45 58 -45 138q0 87 69.5 143t185.5 56z" />
    <glyph glyph-name="currency" unicode="&#xa4;" horiz-adv-x="556" 
d="M475 610l61 -61l-56 -55q45 -49 45 -143q0 -91 -46 -146l55 -56l-55 -55l-57 58q-52 -50 -143 -50q-94 0 -147 49l-56 -58l-56 56l57 58q-48 57 -48 142q0 96 48 144l-57 58l57 57l57 -56q54 46 146 46q85 0 137 -45zM153 349q0 -59 34 -99.5t92 -40.5q57 0 89.5 40.5
t32.5 101.5q0 56 -31.5 98t-90.5 42q-57 0 -91.5 -40t-34.5 -102z" />
    <glyph glyph-name="yen" unicode="&#xa5;" horiz-adv-x="556" 
d="M154 714l132 -311l129 311h162l-155 -311h95v-95h-143l-15 -29v-46h158v-95h-158v-138h-152v138h-157v95h157v46l-14 29h-143v95h95l-154 311h163z" />
    <glyph glyph-name="brokenbar" unicode="&#xa6;" horiz-adv-x="223" 
d="M165 661v-250h-107v250h107zM165 161v-250h-107v250h107z" />
    <glyph glyph-name="section" unicode="&#xa7;" horiz-adv-x="556" 
d="M283 731q92 0 151.5 -51.5t59.5 -141.5h-124q0 38 -23.5 62t-61.5 24q-30 0 -53 -18t-23 -45q0 -26 27 -50t97 -56q127 -57 169 -100q44 -47 44 -105q0 -51 -28.5 -90t-75.5 -56q55 -41 55 -118q0 -78 -64.5 -123t-148.5 -45q-106 0 -165.5 50t-59.5 144h124
q4 -87 98 -87q28 0 51 15t23 53q0 29 -28 53q-32 26 -133 71q-102 45 -143 91.5t-41 103.5q0 107 107 145q-43 47 -43 101q0 80 63.5 126.5t145.5 46.5zM134 323q0 -32 34 -50l165 -90q25 -14 43 -14q19 0 32.5 18.5t13.5 36.5q0 38 -45 63l-174 98q-8 5 -16 5
q-20 0 -36.5 -21t-16.5 -46z" />
    <glyph glyph-name="dieresis" unicode="&#xa8;" 
d="M94 715v-117h-135v117h135zM300 715v-117h-135v117h135z" />
    <glyph glyph-name="copyright" unicode="&#xa9;" horiz-adv-x="800" 
d="M400 731q158 0 271 -104t113 -270q0 -165 -113 -269.5t-271 -104.5q-102 0 -189 45t-141 132t-54 197t54 197t141 132t189 45zM118 357q0 -126 81 -210t201 -84q117 0 199.5 83.5t82.5 210.5t-82 210.5t-201 83.5q-118 0 -199.5 -83.5t-81.5 -210.5zM412 583
q73 0 122.5 -42t58.5 -113h-78q-8 35 -36 55t-67 20q-55 0 -86 -39t-31 -103q0 -60 33 -102t86 -42q41 0 68 20.5t33 57.5h81q-12 -73 -62.5 -115.5t-119.5 -42.5q-96 0 -155.5 63t-59.5 159q0 100 58.5 162t154.5 62z" />
    <glyph glyph-name="ordfeminine" unicode="&#xaa;" horiz-adv-x="344" 
d="M176 714q150 0 150 -90v-168q0 -49 12 -72h-101q-6 20 -7 31q-37 -40 -108 -40q-53 0 -82.5 26t-29.5 74q0 71 78 90q19 5 81 12q22 2 33 4.5t20 9.5t9 19q0 23 -15 31t-44 8q-21 0 -34.5 -12t-15.5 -32h-102q17 109 156 109zM112 477q0 -37 46 -37q72 0 72 72v23
q-12 -10 -48 -15q-70 -10 -70 -43z" />
    <glyph glyph-name="guillemotleft" unicode="&#xab;" horiz-adv-x="444" 
d="M199 463v-120l-90 -71l90 -72v-120l-157 125v135zM402 463v-120l-90 -71l90 -72v-120l-157 125v135z" />
    <glyph glyph-name="logicalnot" unicode="&#xac;" horiz-adv-x="600" 
d="M544 406v-307h-107v200h-397v107h504z" />
    <glyph glyph-name="uni00AD" unicode="&#xad;" horiz-adv-x="407" 
d="M354 334v-122h-301v122h301z" />
    <glyph glyph-name="registered" unicode="&#xae;" horiz-adv-x="800" 
d="M400 731q158 0 271 -104t113 -269q0 -110 -53.5 -197t-140.5 -132.5t-190 -45.5q-102 0 -189.5 45.5t-141 132.5t-53.5 197q0 165 113.5 269t270.5 104zM118 358q0 -125 80.5 -210t201.5 -85q118 0 200 84t82 211q0 124 -81 208.5t-202 84.5q-118 0 -199.5 -83
t-81.5 -210zM411 568q82 0 122 -30t40 -94q0 -103 -110 -112l112 -183h-87l-102 179h-52v-179h-83v419h160zM413 393q43 0 60 13.5t17 44.5q0 52 -85 52h-71v-110h79z" />
    <glyph glyph-name="macron" unicode="&#xaf;" 
d="M306 694v-75h-353v75h353z" />
    <glyph glyph-name="degree" unicode="&#xb0;" horiz-adv-x="400" 
d="M200 714q63 0 105.5 -43t42.5 -105q0 -63 -43 -105.5t-105 -42.5q-63 0 -105.5 43t-42.5 105t42.5 105t105.5 43zM117 566q0 -36 25 -62t58 -26t58 26.5t25 61.5t-25 61.5t-58 26.5q-32 0 -57.5 -26t-25.5 -62z" />
    <glyph glyph-name="plusminus" unicode="&#xb1;" horiz-adv-x="600" 
d="M354 506v-131h199v-107h-199v-131h-107v131h-199v107h199v131h107zM553 107v-107h-505v107h505z" />
    <glyph glyph-name="twosuperior" unicode="&#xb2;" horiz-adv-x="390" 
d="M205 829q72 0 112 -34t40 -93q0 -41 -22 -71q-9 -13 -26.5 -28t-31.5 -24t-42.5 -26.5t-40.5 -24.5q-43 -27 -46 -51h206v-80h-321v1q0 69 21.5 109.5t76.5 75.5l75 47q27 17 38.5 33t11.5 39q0 22 -14 36t-38 14q-61 0 -64 -76h-100q0 70 44.5 111.5t120.5 41.5z" />
    <glyph glyph-name="threesuperior" unicode="&#xb3;" horiz-adv-x="390" 
d="M198 829q66 0 106 -30t40 -83q0 -64 -66 -88q83 -16 83 -106q0 -61 -48.5 -97.5t-121.5 -36.5q-78 0 -121 38t-43 101h96q8 -60 71 -60q33 0 53 16t20 43q0 32 -18.5 46t-58.5 14h-28v69h26q29 0 46.5 13t17.5 36t-15.5 36t-42.5 13q-62 0 -62 -66h-95q3 68 45.5 105
t115.5 37z" />
    <glyph glyph-name="acute" unicode="&#xb4;" 
d="M307 731l-154 -142h-99l96 142h157z" />
    <glyph glyph-name="mu" unicode="&#xb5;" horiz-adv-x="593" 
d="M196 517v-292q0 -65 21 -96t70 -31q58 0 84 35t26 112v272h142v-517h-135v72h-3q-58 -86 -130 -86q-44 0 -75 24v-192h-142v699h142z" />
    <glyph glyph-name="paragraph" unicode="&#xb6;" horiz-adv-x="620" 
d="M535 -166h-102v800h-110v-800h-102v523q-106 1 -162.5 47.5t-56.5 127.5q0 182 238 182h295v-880z" />
    <glyph glyph-name="periodcentered" unicode="&#xb7;" horiz-adv-x="278" 
d="M140 372q34 0 59 -25t25 -60q0 -33 -25 -58.5t-58 -25.5q-35 0 -60.5 24.5t-25.5 59.5t25.5 60t59.5 25z" />
    <glyph glyph-name="cedilla" unicode="&#xb8;" 
d="M115 0h49l-39 -52l2 -2q17 7 40 7q39 0 62.5 -20t23.5 -57q0 -44 -32.5 -68.5t-93.5 -24.5q-56 0 -115 22l21 48q41 -18 79 -18q45 0 45 34q0 15 -11.5 24t-30.5 9q-18 0 -38 -8l-21 24z" />
    <glyph glyph-name="onesuperior" unicode="&#xb9;" horiz-adv-x="390" 
d="M269 820v-423h-102v268h-110v72h21q96 0 107 83h84z" />
    <glyph glyph-name="ordmasculine" unicode="&#xba;" horiz-adv-x="367" 
d="M183 714q78 0 125 -46t47 -124t-46.5 -123.5t-125.5 -45.5q-78 0 -124.5 45.5t-46.5 123.5t46.5 124t124.5 46zM119 544q0 -38 16.5 -66t47.5 -28q32 0 48.5 28.5t16.5 65.5q0 38 -16.5 66.5t-48.5 28.5q-31 0 -47.5 -28.5t-16.5 -66.5z" />
    <glyph glyph-name="guillemotright" unicode="&#xbb;" horiz-adv-x="444" 
d="M199 340v-135l-157 -125v120l90 72l-90 71v120zM245 463l157 -123v-135l-157 -125v120l90 72l-90 71v120z" />
    <glyph glyph-name="onequarter" unicode="&#xbc;" horiz-adv-x="834" 
d="M649 722l-412 -744h-87l414 744h85zM247 703v-423h-102v268h-110v72h21q96 0 107 83h84zM733 423v-264h57v-76h-57v-83h-96v83h-188v84l193 256h91zM524 159h113v154z" />
    <glyph glyph-name="onehalf" unicode="&#xbd;" horiz-adv-x="834" 
d="M629 722l-412 -744h-87l414 744h85zM247 703v-423h-102v268h-110v72h21q96 0 107 83h84zM642 432q72 0 112 -34t40 -93q0 -41 -22 -71q-9 -13 -26.5 -28t-31.5 -24t-42.5 -26.5t-40.5 -24.5q-43 -27 -46 -51h206v-80h-321v1q0 69 21.5 109.5t76.5 75.5l75 47
q27 17 38.5 33t11.5 39q0 21 -14.5 35.5t-37.5 14.5q-61 0 -64 -76h-100q0 70 44.5 111.5t120.5 41.5z" />
    <glyph glyph-name="threequarters" unicode="&#xbe;" horiz-adv-x="834" 
d="M720 722l-412 -744h-87l414 744h85zM208 712q66 0 106 -30t40 -83q0 -64 -66 -88q83 -16 83 -106q0 -61 -48.5 -97.5t-121.5 -36.5q-78 0 -121 38t-43 101h96q8 -60 71 -60q33 0 53 16t20 43q0 32 -18.5 46t-58.5 14h-28v69h26q29 0 46.5 13t17.5 36t-15.5 36t-42.5 13
q-62 0 -62 -66h-95q3 68 45.5 105t115.5 37zM763 423v-264h57v-76h-57v-83h-96v83h-188v84l193 256h91zM554 159h113v154z" />
    <glyph glyph-name="questiondown" unicode="&#xbf;" horiz-adv-x="556" 
d="M363 531v-154h-157v154h157zM349 321v-25q0 -62 -22.5 -104t-71.5 -79q-38 -29 -52 -50t-14 -51q0 -91 85 -91q49 0 75 36t26 94h147q-3 -112 -69.5 -179.5t-172.5 -67.5q-65 0 -115.5 18.5t-78 48.5t-41 62t-13.5 65q0 57 20 97t67 73q63 45 79 70q16 26 16 54v29h135z
" />
    <glyph glyph-name="Agrave" unicode="&#xc0;" horiz-adv-x="685" 
d="M315 921l96 -142h-99l-154 142h157zM425 714l267 -714h-163l-54 159h-267l-56 -159h-159l271 714h161zM342 538l-93 -262h185l-90 262h-2z" />
    <glyph glyph-name="Aacute" unicode="&#xc1;" horiz-adv-x="685" 
d="M528 921l-154 -142h-99l96 142h157zM425 714l267 -714h-163l-54 159h-267l-56 -159h-159l271 714h161zM342 538l-93 -262h185l-90 262h-2z" />
    <glyph glyph-name="Acircumflex" unicode="&#xc2;" horiz-adv-x="685" 
d="M410 921l110 -142h-115l-62 81l-64 -81h-110l111 142h130zM425 714l267 -714h-163l-54 159h-267l-56 -159h-159l271 714h161zM342 538l-93 -262h185l-90 262h-2z" />
    <glyph glyph-name="Atilde" unicode="&#xc3;" horiz-adv-x="685" 
d="M277 911q28 0 80 -19q43 -16 63 -16q34 0 43 35h64q-23 -114 -112 -114q-32 0 -77 16q-49 18 -70 18q-34 0 -45 -42h-63q6 51 38 86.5t79 35.5zM425 714l267 -714h-163l-54 159h-267l-56 -159h-159l271 714h161zM342 538l-93 -262h185l-90 262h-2z" />
    <glyph glyph-name="Adieresis" unicode="&#xc4;" horiz-adv-x="685" 
d="M308 905v-117h-135v117h135zM514 905v-117h-135v117h135zM425 714l267 -714h-163l-54 159h-267l-56 -159h-159l271 714h161zM342 538l-93 -262h185l-90 262h-2z" />
    <glyph glyph-name="Aring" unicode="&#xc5;" horiz-adv-x="685" 
d="M344 973q50 0 83.5 -33t33.5 -81q0 -47 -34 -80.5t-83 -33.5t-83 32.5t-34 81.5q0 48 34 81t83 33zM283 859q0 -28 17 -45.5t44 -17.5q28 0 44.5 17.5t16.5 45.5q0 26 -16 44.5t-46 18.5q-26 0 -43 -17t-17 -46zM425 714l267 -714h-163l-54 159h-267l-56 -159h-159
l271 714h161zM342 538l-93 -262h185l-90 262h-2z" />
    <glyph glyph-name="AE" unicode="&#xc6;" horiz-adv-x="981" 
d="M936 714v-132h-332v-153h312v-122h-312v-175h340v-132h-492v159h-224l-72 -159h-167l341 714h606zM418 582l-138 -306h172v306h-34z" />
    <glyph glyph-name="Ccedilla" unicode="&#xc7;" horiz-adv-x="741" 
d="M389 731q123 0 209 -69.5t99 -187.5h-152q-9 55 -54.5 90t-101.5 35q-96 0 -145 -68.5t-49 -176.5q0 -104 49.5 -171.5t144.5 -67.5q68 0 110 42t52 118h152q-12 -134 -96.5 -212.5t-216.5 -79.5l-26 -35l2 -2q15 7 40 7q40 0 63 -20.5t23 -56.5q0 -44 -33 -68.5
t-92 -24.5q-57 0 -116 22l21 48q41 -18 79 -18q45 0 45 34q0 15 -11.5 24t-30.5 9q-17 0 -38 -8l-21 24l48 68q-140 15 -222.5 117t-82.5 251q0 163 94.5 270t256.5 107z" />
    <glyph glyph-name="Egrave" unicode="&#xc8;" horiz-adv-x="648" 
d="M294 921l96 -142h-99l-154 142h157zM603 714v-132h-377v-153h346v-122h-346v-175h385v-132h-542v714h534z" />
    <glyph glyph-name="Eacute" unicode="&#xc9;" horiz-adv-x="648" 
d="M526 921l-154 -142h-99l96 142h157zM603 714v-132h-377v-153h346v-122h-346v-175h385v-132h-542v714h534z" />
    <glyph glyph-name="Ecircumflex" unicode="&#xca;" horiz-adv-x="648" 
d="M398 921l110 -142h-115l-62 81l-64 -81h-110l111 142h130zM603 714v-132h-377v-153h346v-122h-346v-175h385v-132h-542v714h534z" />
    <glyph glyph-name="Edieresis" unicode="&#xcb;" horiz-adv-x="648" 
d="M296 905v-117h-135v117h135zM502 905v-117h-135v117h135zM603 714v-132h-377v-153h346v-122h-346v-175h385v-132h-542v714h534z" />
    <glyph glyph-name="Igrave" unicode="&#xcc;" horiz-adv-x="295" 
d="M121 921l96 -142h-99l-154 142h157zM226 714v-714h-157v714h157z" />
    <glyph glyph-name="Iacute" unicode="&#xcd;" horiz-adv-x="295" 
d="M328 921l-154 -142h-99l96 142h157zM226 714v-714h-157v714h157z" />
    <glyph glyph-name="Icircumflex" unicode="&#xce;" horiz-adv-x="295" 
d="M213 921l110 -142h-115l-62 81l-64 -81h-110l111 142h130zM226 714v-714h-157v714h157z" />
    <glyph glyph-name="Idieresis" unicode="&#xcf;" horiz-adv-x="295" 
d="M111 905v-117h-135v117h135zM317 905v-117h-135v117h135zM226 714v-714h-157v714h157z" />
    <glyph glyph-name="Eth" unicode="&#xd0;" horiz-adv-x="741" 
d="M375 714q153 0 239.5 -94t86.5 -259q0 -167 -85.5 -264t-236.5 -97h-310v320h-73v98h73v296h306zM386 418v-98h-160v-188h140q77 0 127.5 52.5t50.5 162.5q0 126 -53 180.5t-154 54.5h-111v-164h160z" />
    <glyph glyph-name="Ntilde" unicode="&#xd1;" horiz-adv-x="741" 
d="M299 911q28 0 80 -19q43 -16 63 -16q34 0 43 35h64q-23 -114 -112 -114q-32 0 -77 16q-49 18 -70 18q-34 0 -45 -42h-63q6 51 38 86.5t79 35.5zM225 714l298 -479h2v479h147v-714h-157l-297 478h-2v-478h-147v714h156z" />
    <glyph glyph-name="Ograve" unicode="&#xd2;" horiz-adv-x="778" 
d="M351 921l96 -142h-99l-154 142h157zM389 731q159 0 255 -106t96 -271q0 -160 -95.5 -265.5t-255.5 -105.5t-255.5 105.5t-95.5 265.5q0 163 95.5 270t255.5 107zM195 354q0 -105 50 -172t144 -67q95 0 144.5 67.5t49.5 171.5q0 109 -49.5 177t-145.5 68q-94 0 -143.5 -68
t-49.5 -177z" />
    <glyph glyph-name="Oacute" unicode="&#xd3;" horiz-adv-x="778" 
d="M584 921l-154 -142h-99l96 142h157zM389 731q159 0 255 -106t96 -271q0 -160 -95.5 -265.5t-255.5 -105.5t-255.5 105.5t-95.5 265.5q0 163 95.5 270t255.5 107zM195 354q0 -105 50 -172t144 -67q95 0 144.5 67.5t49.5 171.5q0 109 -49.5 177t-145.5 68q-94 0 -143.5 -68
t-49.5 -177z" />
    <glyph glyph-name="Ocircumflex" unicode="&#xd4;" horiz-adv-x="778" 
d="M456 921l110 -142h-115l-62 81l-64 -81h-110l111 142h130zM389 731q159 0 255 -106t96 -271q0 -160 -95.5 -265.5t-255.5 -105.5t-255.5 105.5t-95.5 265.5q0 163 95.5 270t255.5 107zM195 354q0 -105 50 -172t144 -67q95 0 144.5 67.5t49.5 171.5q0 109 -49.5 177
t-145.5 68q-94 0 -143.5 -68t-49.5 -177z" />
    <glyph glyph-name="Otilde" unicode="&#xd5;" horiz-adv-x="778" 
d="M323 911q28 0 80 -19q43 -16 63 -16q34 0 43 35h64q-23 -114 -112 -114q-32 0 -77 16q-49 18 -70 18q-34 0 -45 -42h-63q6 51 38 86.5t79 35.5zM389 731q159 0 255 -106t96 -271q0 -160 -95.5 -265.5t-255.5 -105.5t-255.5 105.5t-95.5 265.5q0 163 95.5 270t255.5 107z
M195 354q0 -105 50 -172t144 -67q95 0 144.5 67.5t49.5 171.5q0 109 -49.5 177t-145.5 68q-94 0 -143.5 -68t-49.5 -177z" />
    <glyph glyph-name="Odieresis" unicode="&#xd6;" horiz-adv-x="778" 
d="M354 905v-117h-135v117h135zM560 905v-117h-135v117h135zM389 731q159 0 255 -106t96 -271q0 -160 -95.5 -265.5t-255.5 -105.5t-255.5 105.5t-95.5 265.5q0 163 95.5 270t255.5 107zM195 354q0 -105 50 -172t144 -67q95 0 144.5 67.5t49.5 171.5q0 109 -49.5 177
t-145.5 68q-94 0 -143.5 -68t-49.5 -177z" />
    <glyph glyph-name="multiply" unicode="&#xd7;" horiz-adv-x="600" 
d="M142 489l159 -160l160 160l76 -76l-161 -160l161 -160l-76 -76l-160 161l-161 -161l-76 76l161 160l-159 160z" />
    <glyph glyph-name="Oslash" unicode="&#xd8;" horiz-adv-x="778" 
d="M744 699l-84 -93q80 -101 80 -252q0 -161 -96 -266t-255 -105q-132 0 -223 76l-83 -92l-49 43l86 95q-82 100 -82 249q0 163 95 270t256 107q136 0 225 -77l80 89zM195 354q0 -77 28 -135l296 329q-51 51 -131 51q-94 0 -143.5 -68t-49.5 -177zM261 164q49 -49 128 -49
q98 0 146 69t48 170q0 76 -27 136z" />
    <glyph glyph-name="Ugrave" unicode="&#xd9;" horiz-adv-x="741" 
d="M332 921l96 -142h-99l-154 142h157zM223 714v-447q0 -79 35.5 -115.5t111.5 -36.5q81 0 114.5 36t33.5 116v447h157v-447q0 -135 -77.5 -209.5t-227.5 -74.5q-152 0 -228 74t-76 210v447h157z" />
    <glyph glyph-name="Uacute" unicode="&#xda;" horiz-adv-x="741" 
d="M565 921l-154 -142h-99l96 142h157zM223 714v-447q0 -79 35.5 -115.5t111.5 -36.5q81 0 114.5 36t33.5 116v447h157v-447q0 -135 -77.5 -209.5t-227.5 -74.5q-152 0 -228 74t-76 210v447h157z" />
    <glyph glyph-name="Ucircumflex" unicode="&#xdb;" horiz-adv-x="741" 
d="M437 921l110 -142h-115l-62 81l-64 -81h-110l111 142h130zM223 714v-447q0 -79 35.5 -115.5t111.5 -36.5q81 0 114.5 36t33.5 116v447h157v-447q0 -135 -77.5 -209.5t-227.5 -74.5q-152 0 -228 74t-76 210v447h157z" />
    <glyph glyph-name="Udieresis" unicode="&#xdc;" horiz-adv-x="741" 
d="M335 905v-117h-135v117h135zM541 905v-117h-135v117h135zM223 714v-447q0 -79 35.5 -115.5t111.5 -36.5q81 0 114.5 36t33.5 116v447h157v-447q0 -135 -77.5 -209.5t-227.5 -74.5q-152 0 -228 74t-76 210v447h157z" />
    <glyph glyph-name="Yacute" unicode="&#xdd;" horiz-adv-x="667" 
d="M531 921l-154 -142h-99l96 142h157zM168 714l167 -282l166 282h175l-265 -440v-274h-157v278l-263 436h177z" />
    <glyph glyph-name="Thorn" unicode="&#xde;" horiz-adv-x="667" 
d="M226 714v-97h167q117 0 181 -63.5t64 -165.5q0 -100 -62.5 -164.5t-184.5 -64.5h-165v-159h-157v714h157zM351 281q69 0 102 25.5t33 81.5t-33 81.5t-104 25.5h-123v-214h125z" />
    <glyph glyph-name="germandbls" unicode="&#xdf;" horiz-adv-x="611" 
d="M291 731q100 0 163.5 -50.5t63.5 -140.5q0 -49 -26 -88t-67 -52v-2q61 -13 95.5 -61.5t34.5 -117.5q0 -95 -62 -164t-156 -69q-37 0 -81 6v116q16 -5 40 -5q51 0 84 34.5t33 87.5q0 58 -32 89.5t-90 31.5q-15 0 -35 -2v94q16 -2 22 -2q44 0 74.5 23t30.5 66q0 89 -95 89
q-45 0 -67.5 -27t-22.5 -71v-516h-142v494q0 237 235 237z" />
    <glyph glyph-name="agrave" unicode="&#xe0;" horiz-adv-x="574" 
d="M260 731l96 -142h-99l-154 142h157zM292 531q226 0 226 -147v-274q0 -81 18 -110h-144q-9 28 -10 50q-61 -64 -174 -64q-81 0 -128.5 40.5t-47.5 114.5q0 71 45 110q46 39 167 52q76 8 104 20t28 44q0 40 -24 54.5t-67 14.5q-88 0 -95 -78h-142q4 84 69 128.5t175 44.5z
M174 147q0 -66 87 -66q115 0 115 117v55q-18 -16 -86 -25q-60 -7 -88 -24.5t-28 -56.5z" />
    <glyph glyph-name="aacute" unicode="&#xe1;" horiz-adv-x="574" 
d="M485 731l-154 -142h-99l96 142h157zM292 531q226 0 226 -147v-274q0 -81 18 -110h-144q-9 28 -10 50q-61 -64 -174 -64q-81 0 -128.5 40.5t-47.5 114.5q0 71 45 110q46 39 167 52q76 8 104 20t28 44q0 40 -24 54.5t-67 14.5q-88 0 -95 -78h-142q4 84 69 128.5t175 44.5z
M174 147q0 -66 87 -66q115 0 115 117v55q-18 -16 -86 -25q-60 -7 -88 -24.5t-28 -56.5z" />
    <glyph glyph-name="acircumflex" unicode="&#xe2;" horiz-adv-x="574" 
d="M361 731l110 -142h-115l-62 81l-64 -81h-110l111 142h130zM292 531q226 0 226 -147v-274q0 -81 18 -110h-144q-9 28 -10 50q-61 -64 -174 -64q-81 0 -128.5 40.5t-47.5 114.5q0 71 45 110q46 39 167 52q76 8 104 20t28 44q0 40 -24 54.5t-67 14.5q-88 0 -95 -78h-142
q4 84 69 128.5t175 44.5zM174 147q0 -66 87 -66q115 0 115 117v55q-18 -16 -86 -25q-60 -7 -88 -24.5t-28 -56.5z" />
    <glyph glyph-name="atilde" unicode="&#xe3;" horiz-adv-x="574" 
d="M228 721q29 0 75 -17q46 -18 68 -18q33 0 43 35h64q-22 -114 -112 -114q-32 0 -77 16q-49 18 -70 18q-33 0 -45 -42h-63q6 51 37.5 86.5t79.5 35.5zM292 531q226 0 226 -147v-274q0 -81 18 -110h-144q-9 28 -10 50q-61 -64 -174 -64q-81 0 -128.5 40.5t-47.5 114.5
q0 71 45 110q46 39 167 52q76 8 104 20t28 44q0 40 -24 54.5t-67 14.5q-88 0 -95 -78h-142q4 84 69 128.5t175 44.5zM174 147q0 -66 87 -66q115 0 115 117v55q-18 -16 -86 -25q-60 -7 -88 -24.5t-28 -56.5z" />
    <glyph glyph-name="adieresis" unicode="&#xe4;" horiz-adv-x="574" 
d="M259 715v-117h-135v117h135zM465 715v-117h-135v117h135zM292 531q226 0 226 -147v-274q0 -81 18 -110h-144q-9 28 -10 50q-61 -64 -174 -64q-81 0 -128.5 40.5t-47.5 114.5q0 71 45 110q46 39 167 52q76 8 104 20t28 44q0 40 -24 54.5t-67 14.5q-88 0 -95 -78h-142
q4 84 69 128.5t175 44.5zM174 147q0 -66 87 -66q115 0 115 117v55q-18 -16 -86 -25q-60 -7 -88 -24.5t-28 -56.5z" />
    <glyph glyph-name="aring" unicode="&#xe5;" horiz-adv-x="574" 
d="M296 804q54 0 88 -34t34 -86q0 -51 -35.5 -85.5t-87.5 -34.5q-54 0 -88 34.5t-34 85.5t35.5 85.5t87.5 34.5zM232 684q0 -29 16.5 -48t46.5 -19q29 0 46.5 18.5t17.5 48.5q0 29 -16.5 48t-47.5 19q-27 0 -45 -18t-18 -49zM292 531q226 0 226 -147v-274q0 -81 18 -110
h-144q-9 28 -10 50q-61 -64 -174 -64q-81 0 -128.5 40.5t-47.5 114.5q0 71 45 110q46 39 167 52q76 8 104 20t28 44q0 40 -24 54.5t-67 14.5q-88 0 -95 -78h-142q4 84 69 128.5t175 44.5zM174 147q0 -66 87 -66q115 0 115 117v55q-18 -16 -86 -25q-60 -7 -88 -24.5
t-28 -56.5z" />
    <glyph glyph-name="ae" unicode="&#xe6;" horiz-adv-x="907" 
d="M295 531q58 0 103.5 -18.5t68.5 -51.5q32 37 72 53.5t101 16.5q112 0 174.5 -81t63.5 -226h-369v-6q0 -55 35 -96t88 -41q88 0 103 81h138q-23 -83 -88.5 -129.5t-149.5 -46.5q-132 0 -193 88q-32 -43 -88.5 -65.5t-122.5 -22.5q-88 0 -140.5 39t-52.5 115q0 52 22 84
q22 33 61 50.5t121 28.5q86 11 114.5 23.5t28.5 43.5q0 66 -92 66q-94 0 -99 -80h-142q3 87 69.5 131t173.5 44zM736 314q0 51 -29.5 86.5t-82.5 35.5q-48 0 -81 -34t-34 -88h227zM180 148q0 -67 88 -67q46 0 81.5 28t35.5 78v65q-24 -17 -102 -28q-59 -8 -81 -26.5
t-22 -49.5z" />
    <glyph glyph-name="ccedilla" unicode="&#xe7;" horiz-adv-x="574" 
d="M302 531q101 0 169.5 -52.5t73.5 -143.5h-139q-14 89 -105 89q-62 0 -91.5 -50t-29.5 -118t29 -115.5t89 -47.5q48 0 77 27.5t36 77.5h137q-13 -95 -74 -151.5t-162 -60.5l-28 -38l2 -2q17 7 40 7q40 0 63 -20.5t23 -56.5q0 -44 -33 -68.5t-92 -24.5q-58 0 -116 22l21 48
q41 -18 79 -18q45 0 45 34q0 15 -11.5 24t-30.5 9q-18 0 -38 -8l-21 24l50 70q-106 11 -166.5 84.5t-60.5 178.5q0 126 71.5 203t192.5 77z" />
    <glyph glyph-name="egrave" unicode="&#xe8;" horiz-adv-x="574" 
d="M259 731l96 -142h-99l-154 142h157zM293 531q118 0 185 -80.5t67 -200.5l-1 -26h-373q6 -131 126 -131q40 0 72.5 19.5t40.5 47.5h125q-57 -174 -242 -174q-121 0 -192.5 75.5t-71.5 196.5q0 118 74 195.5t190 77.5zM402 314q-10 58 -37 84t-77 26q-51 0 -81.5 -29
t-35.5 -81h231z" />
    <glyph glyph-name="eacute" unicode="&#xe9;" horiz-adv-x="574" 
d="M484 731l-154 -142h-99l96 142h157zM293 531q118 0 185 -80.5t67 -200.5l-1 -26h-373q6 -131 126 -131q40 0 72.5 19.5t40.5 47.5h125q-57 -174 -242 -174q-121 0 -192.5 75.5t-71.5 196.5q0 118 74 195.5t190 77.5zM402 314q-10 58 -37 84t-77 26q-51 0 -81.5 -29
t-35.5 -81h231z" />
    <glyph glyph-name="ecircumflex" unicode="&#xea;" horiz-adv-x="574" 
d="M360 731l110 -142h-115l-62 81l-64 -81h-110l111 142h130zM293 531q118 0 185 -80.5t67 -200.5l-1 -26h-373q6 -131 126 -131q40 0 72.5 19.5t40.5 47.5h125q-57 -174 -242 -174q-121 0 -192.5 75.5t-71.5 196.5q0 118 74 195.5t190 77.5zM402 314q-10 58 -37 84t-77 26
q-51 0 -81.5 -29t-35.5 -81h231z" />
    <glyph glyph-name="edieresis" unicode="&#xeb;" horiz-adv-x="574" 
d="M258 715v-117h-135v117h135zM464 715v-117h-135v117h135zM293 531q118 0 185 -80.5t67 -200.5l-1 -26h-373q6 -131 126 -131q40 0 72.5 19.5t40.5 47.5h125q-57 -174 -242 -174q-121 0 -192.5 75.5t-71.5 196.5q0 118 74 195.5t190 77.5zM402 314q-10 58 -37 84t-77 26
q-51 0 -81.5 -29t-35.5 -81h231z" />
    <glyph glyph-name="igrave" unicode="&#xec;" horiz-adv-x="258" 
d="M105 731l96 -142h-99l-154 142h157zM200 517v-517h-142v517h142z" />
    <glyph glyph-name="iacute" unicode="&#xed;" horiz-adv-x="258" 
d="M310 731l-154 -142h-99l96 142h157zM200 517v-517h-142v517h142z" />
    <glyph glyph-name="icircumflex" unicode="&#xee;" horiz-adv-x="258" 
d="M196 731l110 -142h-115l-62 81l-64 -81h-110l111 142h130zM200 517v-517h-142v517h142z" />
    <glyph glyph-name="idieresis" unicode="&#xef;" horiz-adv-x="258" 
d="M94 715v-117h-135v117h135zM300 715v-117h-135v117h135zM200 517v-517h-142v517h142z" />
    <glyph glyph-name="eth" unicode="&#xf0;" horiz-adv-x="611" 
d="M247 743q64 -21 110 -50l106 50l46 -59l-89 -41q153 -138 153 -371q0 -126 -73.5 -206t-194.5 -80t-194 74.5t-73 189.5q0 108 61 182t174 74q85 0 140 -50h2q-35 92 -97 137l-117 -56l-46 59l92 43q-17 9 -74 34zM180 257q0 -69 29 -116.5t96 -47.5q64 0 95 45t31 119
q0 63 -31 108.5t-97 45.5q-59 0 -91 -42.5t-32 -111.5z" />
    <glyph glyph-name="ntilde" unicode="&#xf1;" horiz-adv-x="593" 
d="M229 721q29 0 75 -17q46 -18 68 -18q33 0 43 35h64q-22 -114 -112 -114q-32 0 -77 16q-49 18 -70 18q-33 0 -45 -42h-63q6 51 37.5 86.5t79.5 35.5zM351 531q98 0 143 -50t45 -159v-322h-142v293q0 65 -21 95.5t-70 30.5q-62 0 -86 -37.5t-24 -112.5v-269h-142v517h135
v-72h3q53 86 159 86z" />
    <glyph glyph-name="ograve" unicode="&#xf2;" horiz-adv-x="611" 
d="M272 731l96 -142h-99l-154 142h157zM305 531q122 0 195 -74.5t73 -198.5t-74 -198t-194 -74q-122 0 -194.5 74.5t-72.5 197.5q0 124 73 198.5t194 74.5zM180 258q0 -79 32.5 -122t92.5 -43q62 0 94 43.5t32 121.5q0 72 -29.5 119t-97.5 47q-59 0 -91.5 -43.5
t-32.5 -122.5z" />
    <glyph glyph-name="oacute" unicode="&#xf3;" horiz-adv-x="611" 
d="M497 731l-154 -142h-99l96 142h157zM305 531q122 0 195 -74.5t73 -198.5t-74 -198t-194 -74q-122 0 -194.5 74.5t-72.5 197.5q0 124 73 198.5t194 74.5zM180 258q0 -79 32.5 -122t92.5 -43q62 0 94 43.5t32 121.5q0 72 -29.5 119t-97.5 47q-59 0 -91.5 -43.5
t-32.5 -122.5z" />
    <glyph glyph-name="ocircumflex" unicode="&#xf4;" horiz-adv-x="611" 
d="M373 731l110 -142h-115l-62 81l-64 -81h-110l111 142h130zM305 531q122 0 195 -74.5t73 -198.5t-74 -198t-194 -74q-122 0 -194.5 74.5t-72.5 197.5q0 124 73 198.5t194 74.5zM180 258q0 -79 32.5 -122t92.5 -43q62 0 94 43.5t32 121.5q0 72 -29.5 119t-97.5 47
q-59 0 -91.5 -43.5t-32.5 -122.5z" />
    <glyph glyph-name="otilde" unicode="&#xf5;" horiz-adv-x="611" 
d="M240 721q29 0 75 -17q47 -18 68 -18q33 0 43 35h64q-22 -114 -112 -114q-32 0 -77 16q-49 18 -70 18q-33 0 -45 -42h-63q6 51 37.5 86.5t79.5 35.5zM305 531q122 0 195 -74.5t73 -198.5t-74 -198t-194 -74q-122 0 -194.5 74.5t-72.5 197.5q0 124 73 198.5t194 74.5z
M180 258q0 -79 32.5 -122t92.5 -43q62 0 94 43.5t32 121.5q0 72 -29.5 119t-97.5 47q-59 0 -91.5 -43.5t-32.5 -122.5z" />
    <glyph glyph-name="odieresis" unicode="&#xf6;" horiz-adv-x="611" 
d="M271 715v-117h-135v117h135zM477 715v-117h-135v117h135zM305 531q122 0 195 -74.5t73 -198.5t-74 -198t-194 -74q-122 0 -194.5 74.5t-72.5 197.5q0 124 73 198.5t194 74.5zM180 258q0 -79 32.5 -122t92.5 -43q62 0 94 43.5t32 121.5q0 72 -29.5 119t-97.5 47
q-59 0 -91.5 -43.5t-32.5 -122.5z" />
    <glyph glyph-name="divide" unicode="&#xf7;" horiz-adv-x="600" 
d="M301 545q34 0 59 -25t25 -60q0 -33 -25 -58.5t-58 -25.5q-35 0 -60.5 25t-25.5 59q0 35 25.5 60t59.5 25zM553 306v-107h-505v107h505zM301 129q35 0 59.5 -24.5t24.5 -59.5q0 -33 -25.5 -59t-57.5 -26q-35 0 -60.5 25.5t-25.5 59.5t25 59t60 25z" />
    <glyph glyph-name="oslash" unicode="&#xf8;" horiz-adv-x="611" 
d="M521 544l37 -32l-54 -61q69 -74 69 -193q0 -124 -73 -198t-195 -74q-97 0 -165 50l-59 -67l-37 32l60 68q-66 72 -66 189q0 124 73 198.5t194 74.5q95 0 163 -48zM180 258q0 -52 15 -86l193 220q-30 32 -84 32q-60 0 -92 -43.5t-32 -122.5zM220 127q31 -34 85 -34
q62 0 94 43.5t32 121.5q0 51 -16 91z" />
    <glyph glyph-name="ugrave" unicode="&#xf9;" horiz-adv-x="593" 
d="M264 731l96 -142h-99l-154 142h157zM196 517v-293q0 -63 20.5 -94.5t70.5 -31.5q58 0 84 35t26 112v272h142v-517h-135v72h-3q-53 -86 -159 -86q-100 0 -144 51t-44 159v321h142z" />
    <glyph glyph-name="uacute" unicode="&#xfa;" horiz-adv-x="593" 
d="M489 731l-154 -142h-99l96 142h157zM196 517v-293q0 -63 20.5 -94.5t70.5 -31.5q58 0 84 35t26 112v272h142v-517h-135v72h-3q-53 -86 -159 -86q-100 0 -144 51t-44 159v321h142z" />
    <glyph glyph-name="ucircumflex" unicode="&#xfb;" horiz-adv-x="593" 
d="M365 731l110 -142h-115l-62 81l-64 -81h-110l111 142h130zM196 517v-293q0 -63 20.5 -94.5t70.5 -31.5q58 0 84 35t26 112v272h142v-517h-135v72h-3q-53 -86 -159 -86q-100 0 -144 51t-44 159v321h142z" />
    <glyph glyph-name="udieresis" unicode="&#xfc;" horiz-adv-x="593" 
d="M263 715v-117h-135v117h135zM469 715v-117h-135v117h135zM196 517v-293q0 -63 20.5 -94.5t70.5 -31.5q58 0 84 35t26 112v272h142v-517h-135v72h-3q-53 -86 -159 -86q-100 0 -144 51t-44 159v321h142z" />
    <glyph glyph-name="yacute" unicode="&#xfd;" horiz-adv-x="519" 
d="M455 731l-154 -142h-99l96 142h157zM146 517l117 -354h2l113 354h147l-216 -582q-23 -61 -64 -89t-112 -28q-39 0 -89 5v117q38 -5 75 -5q29 0 46 18t17 47q0 15 -6 32l-182 485h152z" />
    <glyph glyph-name="thorn" unicode="&#xfe;" horiz-adv-x="611" 
d="M196 714v-263h2q49 80 148 80q112 0 173 -78.5t61 -199.5q0 -111 -59.5 -189t-167.5 -78q-101 0 -155 78h-2v-246h-142v896h142zM191 257q0 -71 30 -117.5t94 -46.5q61 0 92 44.5t31 119.5q0 29 -5.5 56t-18.5 53t-39 42t-62 16q-62 0 -92 -46.5t-30 -120.5z" />
    <glyph glyph-name="ydieresis" unicode="&#xff;" horiz-adv-x="519" 
d="M229 715v-117h-135v117h135zM435 715v-117h-135v117h135zM146 517l117 -354h2l113 354h147l-216 -582q-23 -61 -64 -89t-112 -28q-39 0 -89 5v117q38 -5 75 -5q29 0 46 18t17 47q0 15 -6 32l-182 485h152z" />
    <glyph glyph-name="Gbreve" unicode="&#x11e;" horiz-adv-x="759" 
d="M283 921q5 -33 33.5 -50t65.5 -17q94 0 110 67h63q-19 -142 -178 -142q-72 0 -112.5 36.5t-46.5 105.5h65zM389 731q118 0 204.5 -69t96.5 -183h-150q-14 59 -53.5 89.5t-97.5 30.5q-94 0 -144 -67.5t-50 -177.5q0 -102 48.5 -170.5t145.5 -68.5q155 0 170 154h-158v117
h300v-386h-100l-16 81q-76 -98 -196 -98q-160 0 -255.5 105.5t-95.5 265.5q0 164 94.5 270.5t256.5 106.5z" />
    <glyph glyph-name="gbreve" unicode="&#x11f;" horiz-adv-x="611" 
d="M208 731q4 -31 32 -49t67 -18q93 0 110 67h63q-18 -142 -178 -142q-72 0 -112.5 36.5t-46.5 105.5h65zM260 531q106 0 154 -83h2v69h135v-485q0 -106 -65.5 -167t-201.5 -61q-93 0 -159 45t-70 121h141q17 -71 106 -71q55 0 84.5 33t29.5 92v71h-2q-21 -38 -62 -59
t-93 -21q-108 0 -164.5 71t-56.5 189q0 106 59 181t163 75zM180 277q0 -68 28.5 -111.5t86.5 -43.5q56 0 88.5 40.5t32.5 103.5q0 30 -5.5 55.5t-18 50t-37.5 38.5t-61 14q-54 0 -84 -41t-30 -106z" />
    <glyph glyph-name="Idotaccent" unicode="&#x130;" horiz-adv-x="295" 
d="M215 905v-117h-135v117h135zM226 714v-714h-157v714h157z" />
    <glyph glyph-name="dotlessi" unicode="&#x131;" horiz-adv-x="258" 
d="M200 517v-517h-142v517h142z" />
    <glyph glyph-name="Lslash" unicode="&#x141;" horiz-adv-x="593" 
d="M226 714v-278l211 148v-112l-211 -148v-192h348v-132h-505v214l-80 -56v112l80 56v388h157z" />
    <glyph glyph-name="lslash" unicode="&#x142;" horiz-adv-x="258" 
d="M200 714v-214l67 53v-102l-67 -53v-398h-142v286l-67 -53v102l67 53v326h142z" />
    <glyph glyph-name="OE" unicode="&#x152;" horiz-adv-x="1093" 
d="M373 731q116 0 169 -68h2v51h500v-132h-354v-153h324v-122h-324v-175h361v-132h-507v54h-2q-65 -71 -172 -71q-151 0 -241.5 106t-90.5 264q0 154 90.5 266t244.5 112zM195 355q0 -100 47 -170t139 -70q73 0 115 45.5t42 116.5v172q0 65 -43 107.5t-112 42.5
q-93 0 -140.5 -70t-47.5 -174z" />
    <glyph glyph-name="oe" unicode="&#x153;" horiz-adv-x="926" 
d="M292 531q124 0 178 -82q24 37 73.5 59.5t100.5 22.5q119 0 185.5 -80.5t67.5 -226.5h-369q0 -62 33 -96.5t90 -34.5q75 0 104 71h138q-25 -84 -89 -131t-153 -47q-132 0 -187 88q-25 -42 -74 -65t-109 -23q-114 0 -178.5 79t-64.5 196q0 116 69.5 193t184.5 77zM180 256
q0 -68 27 -115.5t83 -47.5q114 0 114 167q0 164 -112 164q-54 0 -83 -46t-29 -122zM755 314q-5 110 -115 110q-48 0 -78.5 -29t-33.5 -81h227z" />
    <glyph glyph-name="Scedilla" unicode="&#x15e;" horiz-adv-x="649" 
d="M315 731q126 0 206 -58t80 -172h-152q-6 108 -140 108q-46 0 -77.5 -20.5t-31.5 -60.5q0 -26 13.5 -40.5t52.5 -27.5q32 -11 168 -45q191 -47 191 -203q0 -103 -77.5 -165.5t-214.5 -63.5l-26 -35l2 -2q17 7 40 7q39 0 62.5 -20t23.5 -57q0 -44 -33 -68.5t-93 -24.5
q-56 0 -115 22l21 48q41 -18 78 -18q46 0 46 34q0 33 -43 33q-16 0 -37 -8l-21 24l48 67q-120 11 -191 75.5t-71 169.5v7h152q0 -69 46 -100.5t111 -31.5q61 0 100.5 22t39.5 67q0 35 -29 57t-97 39q-111 28 -133 35q-166 52 -166 190q0 102 79.5 159t187.5 57z" />
    <glyph glyph-name="scedilla" unicode="&#x15f;" horiz-adv-x="537" 
d="M266 531q104 0 162.5 -42t65.5 -123h-135q-6 70 -97 70q-79 0 -79 -48q0 -27 29 -41.5t96 -27.5q118 -24 161 -61q39 -34 39 -92q0 -84 -59.5 -131t-169.5 -49l-28 -38l2 -2q17 7 40 7q39 0 62.5 -20.5t23.5 -56.5q0 -44 -33 -68.5t-93 -24.5q-57 0 -115 22l21 48
q41 -18 79 -18q45 0 45 34q0 16 -12.5 24.5t-29.5 8.5q-18 0 -38 -8l-21 24l50 70q-97 9 -148.5 55t-54.5 125h135q0 -42 31 -64.5t78 -22.5q39 0 66 17t27 48q0 27 -33 44t-123 36t-129.5 51.5t-39.5 87.5q0 82 57.5 124t167.5 42z" />
    <glyph glyph-name="Scaron" unicode="&#x160;" horiz-adv-x="649" 
d="M268 921l62 -81l64 81h110l-111 -142h-130l-110 142h115zM315 731q124 0 205 -57.5t81 -172.5h-152q-7 108 -140 108q-47 0 -78 -20.5t-31 -60.5q0 -38 32.5 -54.5t157.5 -47.5q41 -11 66 -18.5t61.5 -25t56.5 -38t35.5 -55t15.5 -77.5q0 -103 -78.5 -166t-218.5 -63
q-59 0 -111.5 14.5t-96.5 43.5t-70 78t-26 113v5h152q0 -69 46 -100.5t111 -31.5q60 0 100 21.5t40 67.5q0 34 -28.5 56.5t-94.5 38.5q-134 35 -145 39q-157 52 -157 188q0 69 40 119t99.5 73t127.5 23z" />
    <glyph glyph-name="scaron" unicode="&#x161;" horiz-adv-x="537" 
d="M211 731l62 -81l64 81h110l-111 -142h-130l-110 142h115zM266 531q105 0 163 -42.5t65 -122.5h-135q-6 70 -97 70q-79 0 -79 -48q0 -24 25 -39t86 -27q130 -26 174 -63q40 -36 40 -93q0 -93 -67.5 -136.5t-168.5 -43.5q-109 0 -174.5 46.5t-68.5 135.5h135
q0 -42 31 -64.5t78 -22.5q39 0 66 17t27 49q0 28 -34.5 44.5t-121.5 34.5q-90 19 -129.5 51.5t-39.5 87.5q0 82 57.5 124t167.5 42z" />
    <glyph glyph-name="Ydieresis" unicode="&#x178;" horiz-adv-x="667" 
d="M301 905v-117h-135v117h135zM507 905v-117h-135v117h135zM168 714l167 -282l166 282h175l-265 -440v-274h-157v278l-263 436h177z" />
    <glyph glyph-name="Zcaron" unicode="&#x17d;" horiz-adv-x="648" 
d="M273 921l62 -81l64 81h110l-111 -142h-130l-110 142h115zM615 714v-124l-383 -458h393v-132h-602v124l383 458h-353v132h562z" />
    <glyph glyph-name="zcaron" unicode="&#x17e;" horiz-adv-x="519" 
d="M201 731l62 -81l64 81h110l-111 -142h-130l-110 142h115zM478 517v-107l-269 -303h288v-107h-475v107l269 303h-249v107h436z" />
    <glyph glyph-name="uni018F" unicode="&#x18f;" horiz-adv-x="752" 
d="M373 -17q-148 0 -241.5 106.5t-93.5 273.5l1 36h508q-2 93 -51.5 149t-129.5 56q-66 0 -110.5 -38.5t-54.5 -95.5h-153q22 118 111 189.5t211 71.5q153 0 248.5 -104t95.5 -271q0 -166 -94 -269.5t-247 -103.5zM206 285q8 -74 55.5 -125t113.5 -51q72 0 120.5 51
t51.5 125h-341z" />
    <glyph glyph-name="florin" unicode="&#x192;" horiz-adv-x="556" 
d="M436 731q43 0 75 -7l-18 -107q-15 7 -38 7q-38 0 -54.5 -13t-23.5 -49l-25 -130h98l-16 -95h-100l-56 -310q-20 -109 -62.5 -153t-148.5 -44q-45 0 -72 3l19 107q19 -3 45 -3q19 0 32 6t20 19t9.5 21t5.5 25l63 329h-92l18 95h91l24 127q18 97 64.5 134.5t141.5 37.5z
" />
    <glyph glyph-name="uni0259" unicode="&#x259;" horiz-adv-x="574" 
d="M290 -17q-119 0 -190 81t-71 200l1 26h373q-6 131 -126 131q-39 0 -67.5 -19.5t-37.5 -47.5h-133q57 174 242 174q121 0 192.5 -75.5t71.5 -196.5q0 -119 -70 -196t-185 -77zM172 200q10 -58 37 -84t77 -26q51 0 81.5 29t35.5 81h-231z" />
    <glyph glyph-name="circumflex" unicode="&#x2c6;" 
d="M195 731l110 -142h-115l-62 81l-64 -81h-110l111 142h130z" />
    <glyph glyph-name="caron" unicode="&#x2c7;" 
d="M69 731l62 -81l64 81h110l-111 -142h-130l-110 142h115z" />
    <glyph glyph-name="breve" unicode="&#x2d8;" 
d="M26 731q4 -31 32 -49t67 -18q93 0 110 67h63q-18 -142 -178 -142q-72 0 -112.5 36.5t-46.5 105.5h65z" />
    <glyph glyph-name="dotaccent" unicode="&#x2d9;" 
d="M197 715v-117h-135v117h135z" />
    <glyph glyph-name="ring" unicode="&#x2da;" 
d="M130 804q54 0 88 -34t34 -86q0 -51 -35.5 -85.5t-87.5 -34.5q-54 0 -88 34.5t-34 85.5t35.5 85.5t87.5 34.5zM66 684q0 -29 16.5 -48t46.5 -19q29 0 46.5 18.5t17.5 48.5q0 29 -16.5 48t-47.5 19q-27 0 -45 -18t-18 -49z" />
    <glyph glyph-name="ogonek" unicode="&#x2db;" 
d="M180 0q-53 -58 -64 -80q-9 -20 -9 -38q0 -19 11 -29t26 -10q28 0 55 32l45 -26q-44 -66 -124 -66q-49 0 -79 22.5t-30 60.5q0 34 24.5 65t80.5 69h64z" />
    <glyph glyph-name="tilde" unicode="&#x2dc;" 
d="M63 721q29 0 75 -17q46 -18 68 -18q33 0 43 35h64q-22 -114 -112 -114q-32 0 -77 16q-49 18 -70 18q-33 0 -45 -42h-63q6 51 37.5 86.5t79.5 35.5z" />
    <glyph glyph-name="hungarumlaut" unicode="&#x2dd;" 
d="M192 731l-149 -142h-99l91 142h157zM399 731l-149 -142h-99l91 142h157z" />
    <glyph glyph-name="uni0394" unicode="&#x394;" horiz-adv-x="681" 
d="M423 714l265 -714h-695l269 714h161zM340 538l-142 -406h282l-138 406h-2z" />
    <glyph glyph-name="uni03A9" unicode="&#x3a9;" horiz-adv-x="774" 
d="M387 731q156 0 252.5 -93.5t96.5 -244.5q0 -168 -140 -260v-5h141v-128h-305v118q79 54 113 116t34 150q0 103 -51.5 159t-140.5 56t-140.5 -56.5t-51.5 -158.5q0 -83 32.5 -145t113.5 -121v-118h-306v128h137v5q-64 40 -99 107t-35 153q0 146 99.5 242t249.5 96z" />
    <glyph glyph-name="uni03BC" unicode="&#x3bc;" horiz-adv-x="593" 
d="M196 517v-292q0 -65 21 -96t70 -31q58 0 84 35t26 112v272h142v-517h-135v72h-3q-58 -86 -130 -86q-44 0 -75 24v-192h-142v699h142z" />
    <glyph glyph-name="pi" unicode="&#x3c0;" horiz-adv-x="692" 
d="M672 517v-107h-110v-271q0 -24 9 -34.5t32 -10.5q15 0 33 4v-92q-41 -20 -93 -20q-64 0 -93.5 28t-29.5 86v310h-159v-410h-142v410h-104v107h657z" />
    <glyph glyph-name="uni10D0" unicode="&#x10d0;" horiz-adv-x="551" 
d="M273 -14q-116 0 -176.5 60t-60.5 156q0 38 10 67h136q-6 -29 -6 -58q0 -49 24.5 -83.5t73.5 -34.5t73 32.5t24 77.5q0 50 -21 80.5t-64 60.5q-28 20 -40 29t-31 30.5t-27 48t-8 62.5h141q3 -22 16 -42t24 -29.5t37 -29.5q55 -41 85 -87t30 -121q0 -90 -65 -154.5
t-175 -64.5z" />
    <glyph glyph-name="uni10D1" unicode="&#x10d1;" horiz-adv-x="592" 
d="M296 -14q-120 0 -189 72.5t-69 190.5q0 105 55.5 175t154.5 84v37q0 31 -15.5 46t-46.5 27q-24 10 -38.5 20.5t-27.5 39t-13 72.5h132q2 -21 13 -37t22 -23.5t32 -18.5q27 -14 40 -22.5t26.5 -32t13.5 -56.5v-61q80 -25 124 -91.5t44 -158.5q0 -118 -69 -190.5
t-189 -72.5zM296 93q57 0 86.5 44.5t29.5 111.5q0 68 -29.5 112t-87.5 44q-56 0 -85.5 -44.5t-29.5 -111.5t29.5 -111.5t86.5 -44.5z" />
    <glyph glyph-name="uni10D2" unicode="&#x10d2;" horiz-adv-x="569" 
d="M285 -214q-110 0 -181 64.5t-71 177.5q0 102 64 161t157 76q77 14 77 79q0 30 -15 50t-44 20q-60 0 -60 -78h-137q0 80 54 129t141 49q84 0 140.5 -45t56.5 -109q0 -92 -80 -126v-4q68 -17 108.5 -72t40.5 -130q0 -113 -71 -177.5t-180 -64.5zM285 -109q53 0 81.5 38
t28.5 99q0 62 -28 99t-83 37q-53 0 -81.5 -37.5t-28.5 -98.5q0 -60 29 -98.5t82 -38.5z" />
    <glyph glyph-name="uni10D3" unicode="&#x10d3;" horiz-adv-x="856" 
d="M442 -200q0 41 -42.5 67.5t-122.5 26.5h-174v97h94v4q-79 29 -119 100.5t-40 161.5q0 123 53 190t148 67q121 0 159 -94h4q54 94 181 94q104 0 169.5 -73t65.5 -183q0 -111 -67 -180.5t-178 -69.5q-110 0 -176.5 70.5t-66.5 179.5v51q0 44 -18.5 71t-52.5 27
q-79 0 -79 -152q0 -104 57.5 -175t147.5 -95q107 -28 159.5 -68t52.5 -117h-155zM573 114q53 0 81 41.5t28 103.5q0 64 -27.5 106.5t-81.5 42.5q-52 0 -79.5 -43t-27.5 -106q0 -61 27.5 -103t79.5 -42z" />
    <glyph glyph-name="uni10D4" unicode="&#x10d4;" horiz-adv-x="569" 
d="M276 -214q-116 0 -179.5 60t-63.5 156q0 47 18 98h137q-13 -42 -13 -89q0 -49 25 -83.5t76 -34.5q53 0 78 34.5t25 83.5v269q0 127 -93 127q-47 0 -70 -30.5t-23 -75.5q0 -22 5 -42h-141q-6 26 -6 48q0 85 63 146t172 61q115 0 175 -65.5t60 -159.5v-279
q0 -96 -65.5 -160t-179.5 -64z" />
    <glyph glyph-name="uni10D5" unicode="&#x10d5;" horiz-adv-x="565" 
d="M283 -214q-114 0 -182 60.5t-68 149.5q0 44 18 89h137q-13 -42 -13 -80q0 -49 29 -81t81 -32q50 0 77.5 33t27.5 80q0 53 -27 83.5t-78 30.5h-33v107h31q87 0 87 88q0 37 -20 65t-66 28q-91 0 -91 -99q0 -16 3 -34h-139q-5 18 -5 42q0 84 63 141t171 57
q102 0 163.5 -55.5t61.5 -135.5q0 -114 -93 -148v-4q114 -41 114 -171q0 -90 -69 -152t-180 -62z" />
    <glyph glyph-name="uni10D6" unicode="&#x10d6;" horiz-adv-x="673" 
d="M373 -14q-117 0 -189.5 73t-72.5 190q0 87 52 143v5q-59 7 -103.5 54t-44.5 122q0 85 56 138t146 53q89 0 147 -50.5t58 -126.5q0 -51 -26 -83v-4q107 -4 173 -72.5t66 -178.5q0 -117 -72.5 -190t-189.5 -73zM219 478q35 0 56 25.5t21 66.5t-21.5 68.5t-55.5 27.5
q-35 0 -56.5 -27.5t-21.5 -68.5q0 -40 22 -66t56 -26zM373 93q57 0 88 45.5t31 110.5q0 67 -31 111t-89 44q-55 0 -86 -45t-31 -110t30.5 -110.5t87.5 -45.5z" />
    <glyph glyph-name="uni10D7" unicode="&#x10d7;" horiz-adv-x="863" 
d="M610 0q73 120 73 256q0 150 -75 150q-72 0 -72 -99v-57q0 -118 -63.5 -191t-185.5 -73q-123 0 -186 73.5t-63 190.5q0 114 64 189t179 75q62 0 106.5 -20.5t76.5 -73.5h4q25 52 63 72.5t93 20.5q94 0 147.5 -68t53.5 -188q0 -152 -71 -257h-144zM287 93q54 0 81.5 43.5
t27.5 113.5q0 71 -27 114t-83 43q-54 0 -80 -43.5t-26 -113.5t26.5 -113.5t80.5 -43.5z" />
    <glyph glyph-name="uni10D8" unicode="&#x10d8;" horiz-adv-x="569" 
d="M333 0q55 120 55 243q0 164 -104 164q-103 0 -103 -164q0 -123 55 -243h-139q-59 112 -59 248q0 118 64.5 192t181.5 74t182 -74t65 -192q0 -133 -59 -248h-139z" />
    <glyph glyph-name="uni10D9" unicode="&#x10d9;" horiz-adv-x="561" 
d="M279 -214q-114 0 -180 60.5t-66 149.5q0 43 17 89h135q-11 -32 -11 -78q0 -47 28.5 -81.5t78.5 -34.5t75.5 35.5t25.5 88.5q0 55 -26.5 89.5t-74.5 34.5h-43v107h43q38 0 58 21.5t20 54.5q0 28 -19 52t-53 28v107q102 -4 156.5 -51t54.5 -122q0 -103 -90 -138v-4
q51 -16 84 -63.5t33 -120.5q0 -96 -67 -160t-179 -64z" />
    <glyph glyph-name="uni10DA" unicode="&#x10da;" horiz-adv-x="1023" 
d="M591 -200q-16 94 -187 94h-290v99h85l1 4q-78 33 -119 103t-41 157q0 124 52 190.5t147 66.5q105 0 141 -92h4q14 46 47.5 69t78.5 23q99 0 126 -92h4q39 92 140 92q99 0 151 -66t52 -188q0 -120 -42 -215h-144q43 89 43 209q0 153 -74 153q-60 0 -60 -98v-176h-133v175
q0 49 -13.5 74t-47.5 25q-62 0 -62 -98v-176h-134v174q0 100 -60 100q-39 0 -56.5 -37.5t-17.5 -114.5q0 -108 55 -171t144 -78q7 -1 82.5 -10.5t100.5 -16.5q89 -24 133.5 -66.5t48.5 -112.5h-155z" />
    <glyph glyph-name="uni10DB" unicode="&#x10db;" horiz-adv-x="602" 
d="M293 -14q-124 0 -189.5 72t-65.5 192q0 119 58.5 187.5t155.5 68.5q107 0 156 -73h2v100q0 59 -27.5 92t-78.5 33q-45 0 -75 -25.5t-30 -62.5h-139q0 81 63.5 137.5t180.5 56.5q120 0 184 -61.5t64 -160.5v-295q0 -118 -67 -189.5t-192 -71.5zM293 93q56 0 89 41.5
t33 109.5q0 76 -31.5 116t-88.5 40q-56 0 -85.5 -41t-29.5 -115q0 -69 29.5 -110t83.5 -41z" />
    <glyph glyph-name="uni10DC" unicode="&#x10dc;" horiz-adv-x="602" 
d="M308 -14q-125 0 -191.5 71.5t-66.5 189.5v290q0 111 59 162t191 51h204v-109h-217q-51 0 -73 -21.5t-22 -71.5v-109h2q22 34 64 53.5t92 19.5q96 0 155 -72t59 -192t-65.5 -191t-190.5 -71zM308 93q54 0 84 41.5t30 110.5q0 74 -30 117.5t-85 43.5q-57 0 -88.5 -42.5
t-31.5 -118.5q0 -68 32.5 -110t88.5 -42z" />
    <glyph glyph-name="uni10DD" unicode="&#x10dd;" horiz-adv-x="767" 
d="M513 0q74 119 74 254q0 153 -80 153q-59 0 -59 -102v-172h-132v172q0 102 -57 102q-79 0 -79 -152q0 -136 73 -255h-144q-71 106 -71 261q0 121 51.5 187t145.5 66q109 0 144 -92h4q36 92 148 92q95 0 146.5 -68.5t51.5 -185.5q0 -155 -71 -260h-145z" />
    <glyph glyph-name="uni10DE" unicode="&#x10de;" horiz-adv-x="573" 
d="M286 -14q-115 0 -182.5 59.5t-67.5 150.5q0 35 14 80h136q-9 -38 -9 -70q0 -47 29.5 -80t81.5 -33q50 0 77 35.5t27 87.5q0 58 -26.5 92t-75.5 34h-41v108h47q34 0 54.5 15.5t20.5 44.5q0 53 -86 82q-28 10 -46 19t-38 26.5t-30 45.5t-10 67h139q2 -31 25 -49.5t67 -37.5
q57 -24 89.5 -55t32.5 -86q0 -88 -93 -123v-4q47 -17 80.5 -65.5t33.5 -119.5q0 -98 -68.5 -161t-180.5 -63z" />
    <glyph glyph-name="uni10DF" unicode="&#x10df;" horiz-adv-x="588" 
d="M285 -214q-116 0 -179.5 58t-63.5 155q0 30 9 54h136q-4 -17 -4 -45q0 -52 26 -84t78 -32q54 0 79 39t25 97v379l-157 -22v-5q28 -17 46 -44t18 -53q0 -59 -49 -98.5t-120 -39.5h-91v104h69q27 0 45.5 15.5t18.5 41.5q0 27 -18 43t-46 16v99l280 42h146v-474
q0 -120 -65.5 -183t-182.5 -63z" />
    <glyph glyph-name="uni10E0" unicode="&#x10e0;" horiz-adv-x="768" 
d="M514 0q73 117 73 257q0 78 -19.5 113t-59.5 35q-59 0 -59 -102v-170h-132v170q0 102 -57 102q-79 0 -79 -150q0 -136 73 -255h-144q-72 105 -72 317q0 175 75.5 265.5t212.5 118.5l91 19q33 7 42 30h144q-6 -59 -41 -91.5t-110 -48.5l-90 -18q-87 -17 -142.5 -47.5
t-73.5 -96.5h3q43 64 116 64q80 0 115 -89h4q16 41 56.5 65t90.5 24q94 0 146.5 -68.5t52.5 -183.5q0 -155 -71 -260h-145z" />
    <glyph glyph-name="uni10E1" unicode="&#x10e1;" horiz-adv-x="583" 
d="M296 -14q-116 0 -181 64.5t-65 180.5v519h142v-520q0 -62 26.5 -99.5t78.5 -37.5t78.5 35.5t26.5 94.5q0 53 -36 103q-1 2 -14 20t-16 23t-12.5 23t-12 30.5t-6 33.5t-3.5 44h139q0 -64 49 -128q55 -75 55 -159q0 -103 -69 -165t-180 -62z" />
    <glyph glyph-name="uni10E2" unicode="&#x10e2;" horiz-adv-x="707" 
d="M353 -214q-140 0 -227.5 99.5t-87.5 262.5q0 144 69.5 240.5t182.5 119.5h9q-9 33 -9 105h127q0 -72 -9 -106h9q113 -22 182.5 -118.5t69.5 -240.5q0 -163 -88.5 -262.5t-227.5 -99.5zM353 -106q86 0 129.5 68.5t43.5 185.5q0 208 -109 250l-12 7q15 -71 15 -136v-136
h-133v137q0 69 15 135l-12 -6q-109 -42 -109 -251q0 -117 44 -185.5t128 -68.5z" />
    <glyph glyph-name="uni10E3" unicode="&#x10e3;" horiz-adv-x="594" 
d="M295 -214q-115 0 -184 61.5t-69 148.5q0 48 18 97h137q-14 -44 -14 -86q0 -48 29.5 -81.5t81.5 -33.5q50 0 79 37t29 93v298q0 90 -67 90q-31 0 -47 -20.5t-16 -52.5v-112h-134v106q0 63 -75 63h-43v114h43q55 0 86.5 -17t51.5 -59h4q38 82 149 82q103 0 146.5 -57.5
t43.5 -163.5v-269q0 -106 -66.5 -172t-182.5 -66z" />
    <glyph glyph-name="uni10E4" unicode="&#x10e4;" horiz-adv-x="822" 
d="M482 -214q-122 0 -194.5 47t-76.5 140h142q13 -46 46.5 -64t89.5 -18q61 0 100.5 26.5t39.5 78.5q0 94 -74 94h-16v109h29q76 1 76 101q0 47 -20 78.5t-57 31.5q-35 0 -54 -24t-19 -65v-44q0 -107 -60 -169.5t-166 -62.5t-168 63.5t-62 168.5t59.5 171t161.5 66
q123 0 170 -89h4q42 89 156 89q89 0 142 -58.5t53 -146.5q0 -62 -28 -105.5t-74 -60.5v-4q89 -40 89 -152q0 -94 -74.5 -147.5t-214.5 -53.5zM268 146q50 0 75 37t25 95q0 59 -25 97t-75 38q-51 0 -75.5 -37t-24.5 -98q0 -58 25 -95t75 -37z" />
    <glyph glyph-name="uni10E5" unicode="&#x10e5;" horiz-adv-x="580" 
d="M283 -214q-118 0 -181.5 59t-63.5 158q0 45 18 97h136q-13 -44 -13 -85q0 -56 25 -89t79 -33q55 0 80 36.5t25 94.5v237q0 64 -25.5 104t-74.5 40q-47 0 -68.5 -29t-21.5 -74q0 -18 5 -43h-140q-6 26 -6 56q0 86 48 142.5t147 56.5q46 0 81 -21t53 -53h2v310h142v-720
q0 -121 -64 -182.5t-183 -61.5z" />
    <glyph glyph-name="uni10E6" unicode="&#x10e6;" horiz-adv-x="768" 
d="M439 -200q0 41 -43 67.5t-123 26.5h-169v97h94v4q-76 33 -118 103t-42 159q0 124 51 190.5t146 66.5q109 0 144 -92h4q39 92 147 92q98 0 149 -65.5t51 -188.5q0 -120 -42 -215h-145q44 92 44 209q0 153 -79 153q-59 0 -59 -104v-170h-133v170q0 104 -58 104
q-78 0 -78 -152q0 -109 54 -177t146 -88q104 -23 158.5 -67.5t54.5 -122.5h-154z" />
    <glyph glyph-name="uni10E7" unicode="&#x10e7;" horiz-adv-x="579" 
d="M283 -214q-109 0 -174.5 50.5t-65.5 142.5q0 22 8 51h135q-4 -17 -4 -42q0 -43 26.5 -69t75.5 -26q103 0 103 126v149h-2q-47 -69 -143 -69q-94 0 -148 61t-54 163q0 107 41 177h134q-33 -75 -33 -156q0 -71 24.5 -105t79.5 -34q56 0 81 39t25 118v138h137v-480
q0 -234 -246 -234z" />
    <glyph glyph-name="uni10E8" unicode="&#x10e8;" horiz-adv-x="610" 
d="M302 -14q-125 0 -190 71t-65 190t58.5 186t155.5 67q104 0 156 -71h2v143q0 88 -67 88q-30 0 -46 -20t-16 -47v-31h-130v31q0 60 -71 60q-24 0 -51 -3v105q40 5 73 5q90 0 120 -77h3q18 40 56 60.5t80 20.5q190 0 190 -194v-326q0 -118 -66.5 -188t-191.5 -70zM303 93
q56 0 88.5 40t32.5 108q0 75 -31.5 114t-88.5 39q-56 0 -85.5 -39.5t-29.5 -113.5q0 -68 30 -108t84 -40z" />
    <glyph glyph-name="uni10E9" unicode="&#x10e9;" horiz-adv-x="589" 
d="M355 0q28 61 41.5 114.5t13.5 126.5q0 74 -28.5 115t-82.5 41q-55 0 -83 -40t-28 -111v-246h-138v557q0 100 57.5 153.5t156.5 53.5q102 0 158 -53.5t56 -153.5h-138q0 100 -75 100q-72 0 -72 -101v-125h2q47 72 146 72q95 0 152.5 -69.5t57.5 -187.5q0 -138 -59 -246
h-137z" />
    <glyph glyph-name="uni10EA" unicode="&#x10ea;" horiz-adv-x="637" 
d="M334 -214q-139 0 -217.5 94t-78.5 297q0 87 21 177t51 146h134q-26 -57 -44.5 -146t-18.5 -172q0 -289 161 -289q55 0 86.5 32.5t31.5 92.5q0 56 -29 87t-82 31h-40v107h54q34 0 54.5 17.5t20.5 46.5q0 19 -9.5 35t-19 24t-28.5 21q-61 43 -61 113h139q7 -34 50 -66
q22 -16 34.5 -28.5t24 -37.5t11.5 -57q0 -83 -90 -119v-4q46 -17 79.5 -62.5t33.5 -118.5q0 -101 -75.5 -161t-192.5 -60z" />
    <glyph glyph-name="uni10EB" unicode="&#x10eb;" horiz-adv-x="600" 
d="M293 -14q-124 0 -189.5 73.5t-65.5 193.5t58.5 190.5t155.5 70.5q106 0 154 -73h2v309h142v-500q0 -119 -66.5 -191.5t-190.5 -72.5zM293 93q55 0 87.5 43t32.5 111q0 77 -31 119.5t-87 42.5q-55 0 -85 -44t-30 -118q0 -69 29.5 -111.5t83.5 -42.5z" />
    <glyph glyph-name="uni10EC" unicode="&#x10ec;" horiz-adv-x="610" 
d="M308 -14q-125 0 -191.5 70t-66.5 188v315q0 205 190 205q42 0 80 -20.5t56 -60.5h3q30 77 120 77q33 0 73 -5v-105q-27 3 -51 3q-71 0 -71 -60v-31h-130v31q0 27 -16 47t-46 20q-67 0 -67 -88v-143h2q52 71 156 71q97 0 155.5 -67t58.5 -186t-65 -190t-190 -71zM307 93
q54 0 84 40t30 108q0 74 -29.5 113.5t-85.5 39.5q-57 0 -88.5 -39t-31.5 -114q0 -68 32.5 -108t88.5 -40z" />
    <glyph glyph-name="uni10ED" unicode="&#x10ed;" horiz-adv-x="637" 
d="M275 -214q-116 0 -179 58.5t-63 150.5q0 34 10 59h137q-6 -22 -6 -49q0 -49 25 -81t76 -32q103 0 103 142v169h-2q-17 -30 -55.5 -48t-88.5 -18q-81 0 -132.5 45.5t-51.5 129.5q0 88 62.5 138t156.5 50h111v250h143v-250h101v-108h-102v-361q0 -116 -63.5 -180.5
t-181.5 -64.5zM279 241q43 0 72 23t29 59v71h-100q-45 0 -72 -21t-27 -57q0 -37 26.5 -56t71.5 -19z" />
    <glyph glyph-name="uni10EE" unicode="&#x10ee;" horiz-adv-x="601" 
d="M307 -14q-124 0 -190.5 73t-66.5 195v496h142v-309h2q49 73 155 73q97 0 155.5 -70.5t58.5 -190.5t-65.5 -193.5t-190.5 -73.5zM307 93q54 0 84 42.5t30 111.5q0 74 -30 118t-85 44q-56 0 -87.5 -42.5t-31.5 -119.5q0 -68 33 -111t87 -43z" />
    <glyph glyph-name="uni10EF" unicode="&#x10ef;" horiz-adv-x="559" 
d="M281 -214q-114 0 -179.5 59.5t-65.5 151.5q0 33 13 61h134q-6 -24 -6 -52q0 -46 27 -79.5t77 -33.5q53 0 77 37t24 86q0 52 -25.5 89.5t-85.5 37.5h-66v174h-171v101h171v96h133v-96h173v-101h-173v-79q87 -16 136 -76t49 -142q0 -93 -66.5 -163.5t-175.5 -70.5z" />
    <glyph glyph-name="uni10F0" unicode="&#x10f0;" horiz-adv-x="564" 
d="M277 -14q-116 0 -178.5 51.5t-62.5 141.5q0 18 7 41h132q-4 -15 -4 -38q0 -40 30 -64.5t79 -24.5q50 0 77 23.5t27 62.5q0 36 -26 59t-73 23h-48v99h68q66 0 66 42q0 21 -18 32.5t-48 11.5h-68v100h68q55 0 55 37q0 21 -21 32t-61 19q-121 26 -121 116h139q11 -31 88 -50
q48 -12 81 -38.5t33 -65.5q0 -38 -20.5 -61.5t-67.5 -35.5v-4q99 -17 99 -93q0 -70 -90 -89v-4q107 -34 107 -145q0 -84 -67.5 -131t-181.5 -47z" />
    <glyph glyph-name="uni10F1" unicode="&#x10f1;" horiz-adv-x="637" 
d="M336 -14q-144 0 -221 101t-77 306q0 97 23 198.5t53 158.5h133q-27 -58 -47.5 -159t-20.5 -193q0 -155 38.5 -229t120.5 -74q52 0 84.5 21t32.5 64q0 36 -25 58.5t-71 22.5h-46v99h66q66 0 66 45q0 47 -66 47h-66v100h66q56 0 56 31q0 13 -7 23.5t-15 16.5t-24 16
q-64 41 -64 111h139q10 -35 48 -62q20 -14 29.5 -23t20 -29.5t10.5 -46.5q0 -62 -88 -84v-4q99 -18 99 -96q0 -73 -90 -92v-4q43 -14 74.5 -50.5t31.5 -86.5q0 -85 -74.5 -135.5t-188.5 -50.5z" />
    <glyph glyph-name="uni10F2" unicode="&#x10f2;" horiz-adv-x="562" 
d="M281 42q-107 -45 -243 -45v106q54 0 135 11v3q-59 15 -98.5 65t-39.5 116q0 88 65.5 152t180.5 64t180.5 -64t65.5 -152q0 -66 -39.5 -116t-98.5 -65v-3q81 -11 135 -11v-106q-136 0 -243 45zM281 134q49 21 77 64.5t28 93.5q0 45 -27 79.5t-78 34.5t-78 -34.5t-27 -79.5
q0 -50 28 -93.5t77 -64.5z" />
    <glyph glyph-name="uni10F3" unicode="&#x10f3;" horiz-adv-x="568" 
d="M287 -214q-116 0 -184 58t-68 152q0 43 17 89h137q-13 -38 -13 -80q0 -50 29 -80t82 -30q49 0 76.5 35t27.5 87t-27.5 88.5t-71.5 36.5h-53v109h50q71 0 71 84v58h-268v107h408v-156q0 -110 -90 -145v-4q54 -21 88.5 -66.5t34.5 -116.5q0 -97 -67.5 -161.5t-178.5 -64.5z
" />
    <glyph glyph-name="uni10F4" unicode="&#x10f4;" horiz-adv-x="569" 
d="M287 -214q-116 0 -184 58t-68 152q0 50 16 89h136q-11 -39 -11 -80q0 -50 29 -80t82 -30q51 0 77.5 33t26.5 89q0 53 -27 89t-75 36h-40v109h43q35 0 55.5 17t20.5 50v75h-97q-89 0 -149 51.5t-60 164.5h137q0 -61 32 -85t92 -24h186v-173q0 -93 -89 -128v-4
q47 -17 80.5 -64.5t33.5 -118.5q0 -101 -67 -163.5t-180 -62.5z" />
    <glyph glyph-name="uni10F5" unicode="&#x10f5;" horiz-adv-x="627" 
d="M275 -14q-103 0 -170 45t-67 132q0 84 60 127t170 43h107v96h-105q-222 0 -222 165q0 86 62.5 128t165.5 42q105 0 169.5 -47t64.5 -137v-49h102v-102h-102v-96h102v-102h-102v-55q0 -91 -65.5 -140.5t-169.5 -49.5zM375 531v46q0 40 -27.5 61.5t-72.5 21.5
q-93 0 -93 -67q0 -34 22.5 -48t69.5 -14h101zM273 90q45 0 73.5 23.5t28.5 65.5v52h-103q-100 0 -100 -68q0 -36 28 -54.5t73 -18.5z" />
    <glyph glyph-name="uni10F6" unicode="&#x10f6;" horiz-adv-x="761" 
d="M223 -206v113h32q27 0 40 11.5t13 44.5v37q-131 5 -200.5 70t-69.5 186q0 122 73.5 187t196.5 69v68q0 89 38 129t127 40h64v-114h-32q-30 0 -42 -12.5t-12 -53.5v-57q125 -3 197.5 -71.5t72.5 -185.5q0 -123 -69.5 -186.5t-201.5 -67.5v-39q0 -88 -39.5 -128t-128.5 -40
h-59zM448 108q65 0 97 33.5t32 113.5q0 74 -33.5 111t-95.5 37v-295zM311 402q-62 0 -96 -37t-34 -109q0 -78 32.5 -112t97.5 -35v293z" />
    <glyph glyph-name="uni10F7" unicode="&#x10f7;" horiz-adv-x="579" 
d="M290 -214q-109 0 -180.5 61t-71.5 161q0 49 14.5 87t44 65t54.5 42t63 33q32 14 47.5 22t36.5 22t29.5 29.5t8.5 34.5q0 30 -15 49.5t-44 19.5q-60 0 -60 -78h-137q0 80 54.5 130t140.5 50t141.5 -44.5t55.5 -117.5q0 -35 -11 -64.5t-23.5 -47t-41 -37t-42.5 -26.5
t-50 -24q-61 -29 -93 -60t-32 -86q0 -45 29.5 -78.5t81.5 -33.5q53 0 81.5 34t28.5 89q0 49 -11 80h138q14 -33 14 -74q0 -113 -70.5 -175.5t-180.5 -62.5z" />
    <glyph glyph-name="uni10F8" unicode="&#x10f8;" horiz-adv-x="577" 
d="M296 -214q-246 0 -246 234v480h137v-138q0 -79 25 -118t81 -39q55 0 79.5 34t24.5 105q0 81 -33 156h134q41 -70 41 -177q0 -102 -54 -163t-148 -61q-97 0 -143 69h-2v-149q0 -126 103 -126q49 0 75.5 26t26.5 69q0 25 -4 42h135q8 -29 8 -51q0 -92 -65.5 -142.5
t-174.5 -50.5z" />
    <glyph glyph-name="uni10F9" unicode="&#x10f9;" horiz-adv-x="573" 
d="M286 514q110 0 181 -64.5t71 -177.5q0 -102 -64 -161t-157 -76q-77 -14 -77 -79q0 -30 15 -50t44 -20q60 0 60 78h137q0 -80 -54 -129t-141 -49q-84 0 -140.5 45t-56.5 109q0 92 80 126v4q-68 17 -108.5 72t-40.5 130q0 113 71 177.5t180 64.5zM286 409q-53 0 -81.5 -38
t-28.5 -99q0 -62 28 -99t83 -37q53 0 81.5 37.5t28.5 98.5q0 60 -29 98.5t-82 38.5z" />
    <glyph glyph-name="uni10FA" unicode="&#x10fa;" horiz-adv-x="546" 
d="M295 0q-10 35 -37.5 46.5t-95.5 11.5h-88v94h84v4q-57 17 -88.5 58t-31.5 100q0 89 63 144.5t174 55.5q118 0 177 -57t59 -159q0 -33 -10 -68h-133q7 31 7 59q0 54 -25 86t-75 32t-74.5 -29.5t-24.5 -77.5q0 -26 8 -47.5t19 -35t31 -26t35 -19t41 -15.5q62 -23 99 -58
t40 -99h-154z" />
    <glyph glyph-name="uni10FB" unicode="&#x10fb;" horiz-adv-x="590" 
d="M220 508v-154h-157v154h157zM528 331v-154h-157v154h157zM220 154v-154h-157v154h157z" />
    <glyph glyph-name="uni10FC" unicode="&#x10fc;" horiz-adv-x="390" 
d="M202 388q-71 0 -112 40t-41 108v157q0 126 149 126h123v-77h-115q-60 0 -60 -53v-49h2q27 42 79 42q56 0 92 -39.5t36 -106.5t-40.5 -107.5t-112.5 -40.5zM202 467q26 0 40 18.5t14 49.5q0 71 -54 71q-27 0 -42 -18.5t-15 -52.5q0 -30 15.5 -49t41.5 -19z" />
    <glyph glyph-name="uni10FD" unicode="&#x10fd;" horiz-adv-x="614" 
d="M309 -14q-132 0 -200.5 64.5t-70.5 189.5h152q2 -139 123 -139q111 0 111 95q0 41 -30 72.5t-112 57.5q-221 70 -221 229q0 99 65 154t174 55q122 0 187 -60.5t65 -168.5h-147q-2 57 -26 85.5t-79 28.5q-44 0 -68 -24t-24 -63t33 -69t114 -56q117 -37 169 -94.5
t52 -138.5q0 -102 -68.5 -160t-198.5 -58z" />
    <glyph glyph-name="uni10FE" unicode="&#x10fe;" horiz-adv-x="562" 
d="M281 -14q-115 0 -180.5 64t-65.5 152q0 66 39.5 116t98.5 65v3q-81 11 -135 11v106q136 0 243 -45q107 45 243 45v-106q-54 0 -135 -11v-3q59 -15 98.5 -65t39.5 -116q0 -88 -65.5 -152t-180.5 -64zM281 94q51 0 78 34.5t27 79.5q0 50 -28 93.5t-77 64.5
q-49 -21 -77 -64.5t-28 -93.5q0 -45 27 -79.5t78 -34.5z" />
    <glyph glyph-name="uni10FF" unicode="&#x10ff;" horiz-adv-x="586" 
d="M293 -14q-120 0 -189 73t-69 191t69.5 191t188.5 73t188.5 -73t69.5 -191t-69.5 -191t-188.5 -73zM293 95q57 0 87 44t30 111q0 68 -30 111.5t-88 43.5q-57 0 -86.5 -43.5t-29.5 -111.5q0 -66 29.5 -110.5t87.5 -44.5z" />
    <glyph glyph-name="endash" unicode="&#x2013;" horiz-adv-x="500" 
d="M500 334v-122h-500v122h500z" />
    <glyph glyph-name="emdash" unicode="&#x2014;" horiz-adv-x="1000" 
d="M870 334v-122h-740v122h740z" />
    <glyph glyph-name="quoteleft" unicode="&#x2018;" horiz-adv-x="278" 
d="M210 648q-66 -22 -66 -99v-2h66v-154h-142v159q0 63 40 108.5t102 53.5v-66z" />
    <glyph glyph-name="quoteright" unicode="&#x2019;" horiz-adv-x="278" 
d="M210 714v-159q0 -63 -40 -108.5t-102 -53.5v66q66 22 66 99v2h-66v154h142z" />
    <glyph glyph-name="quotesinglbase" unicode="&#x201a;" horiz-adv-x="278" 
d="M210 154v-160q0 -62 -40 -107.5t-102 -53.5v66q66 22 66 99v2h-66v154h142z" />
    <glyph glyph-name="quotedblleft" unicode="&#x201c;" horiz-adv-x="463" 
d="M196 648q-35 -12 -50.5 -35.5t-15.5 -65.5h66v-154h-142v160q0 61 40 107t102 54v-66zM409 648q-66 -22 -66 -101h66v-154h-142v160q0 61 40 107t102 54v-66z" />
    <glyph glyph-name="quotedblright" unicode="&#x201d;" horiz-adv-x="463" 
d="M196 714v-161q0 -61 -40 -106.5t-102 -53.5v66q34 12 50 35.5t16 65.5h-66v154h142zM409 714v-159q0 -63 -39.5 -108t-102.5 -54v66q66 22 66 101h-66v154h142z" />
    <glyph glyph-name="quotedblbase" unicode="&#x201e;" horiz-adv-x="463" 
d="M196 154v-161q0 -59 -39 -105t-103 -55v66q34 12 50 35t16 66h-66v154h142zM409 154v-160q0 -61 -39 -106.5t-103 -54.5v66q66 21 66 101h-66v154h142z" />
    <glyph glyph-name="dagger" unicode="&#x2020;" horiz-adv-x="556" 
d="M345 714v-197h187v-117h-187v-566h-135v566h-186v117h186v197h135z" />
    <glyph glyph-name="daggerdbl" unicode="&#x2021;" horiz-adv-x="556" 
d="M345 714v-197h187v-117h-187v-256h187v-117h-187v-193h-135v193h-186v117h186v256h-186v117h186v197h135z" />
    <glyph glyph-name="bullet" unicode="&#x2022;" horiz-adv-x="501" 
d="M250 535q74 0 126.5 -51.5t52.5 -126.5q0 -74 -52 -126.5t-127 -52.5q-74 0 -126 52t-52 127t52 126.5t126 51.5z" />
    <glyph glyph-name="ellipsis" unicode="&#x2026;" horiz-adv-x="1000" 
d="M245 154v-154h-157v154h157zM578 154v-154h-157v154h157zM911 154v-154h-157v154h157z" />
    <glyph glyph-name="perthousand" unicode="&#x2030;" horiz-adv-x="1147" 
d="M649 722l-412 -744h-87l414 744h85zM216 714q145 0 145 -175q0 -75 -36 -122t-110 -47q-68 0 -107 46t-39 123t37 126t110 49zM159 548q0 -113 56 -113q20 0 32 8.5t17 27t6 31.5t1 38q0 26 -1 40t-5.5 33t-16.5 27.5t-31 8.5q-20 0 -33 -8.5t-18 -26t-6 -30.5t-1 -36z
M587 330q145 0 145 -175q0 -80 -38 -124.5t-108 -44.5q-67 0 -106.5 46t-39.5 123q0 80 38.5 127.5t108.5 47.5zM933 330q145 0 145 -175q0 -80 -37.5 -124.5t-108.5 -44.5q-68 0 -107 45.5t-39 123.5q0 80 38 127.5t109 47.5zM530 162q0 -111 56 -111q19 0 31 8t17 24.5
t6.5 31.5t1.5 40q0 27 -1.5 42.5t-6 33t-16 26t-30.5 8.5q-21 0 -33.5 -8.5t-17.5 -26.5t-6 -31t-1 -37zM876 164q0 -113 56 -113q20 0 32 8.5t17 26t6 31.5t1 38q0 21 -0.5 32t-3 28.5t-8 26.5t-16 16t-26.5 7q-37 0 -47.5 -26t-10.5 -75z" />
    <glyph glyph-name="guilsinglleft" unicode="&#x2039;" horiz-adv-x="241" 
d="M199 463v-120l-90 -71l90 -72v-120l-157 125v135z" />
    <glyph glyph-name="guilsinglright" unicode="&#x203a;" horiz-adv-x="241" 
d="M199 340v-135l-157 -125v120l90 72l-90 71v120z" />
    <glyph glyph-name="fraction" unicode="&#x2044;" horiz-adv-x="167" 
d="M333 722l-412 -744h-87l414 744h85z" />
    <glyph glyph-name="Euro" unicode="&#x20ac;" horiz-adv-x="556" 
d="M394 722q84 0 182 -50l-61 -125q-71 45 -131 45q-105 0 -140 -137h244l-31 -72h-224l-1 -42h213l-31 -72h-174q32 -158 148 -158q74 0 154 63l-1 -151q-66 -40 -155 -40q-125 0 -198.5 77.5t-94.5 208.5h-77l31 72h40v13q0 17 1 29h-73l31 72h51q22 113 97.5 190
t199.5 77z" />
    <glyph glyph-name="uni20BE" unicode="&#x20be;" horiz-adv-x="753" 
d="M470 698q112 -29 176.5 -123t64.5 -223h-143q0 89 -23 143.5t-75 83.5v-227h-59v245q-17 3 -33 3q-17 0 -32 -3v-245h-59v227q-96 -56 -96 -216q0 -113 56 -181t150 -68h242v-114h-553v110h93v4q-61 35 -95 108.5t-34 159.5q0 110 65 198.5t172 117.5v110h59v-99
q11 1 34 1q5 0 15.5 -0.5t15.5 -0.5v99h59v-110z" />
    <glyph glyph-name="uni2113" unicode="&#x2113;" horiz-adv-x="500" 
d="M299 721q68 0 109.5 -41t41.5 -109q0 -74 -46 -148t-146 -158v-112q0 -30 16.5 -48t44.5 -18q38 0 88 38h2l47 -72q-80 -67 -172 -67q-79 0 -121.5 41.5t-42.5 105.5v41l-55 -48h-2l-49 75l105 86v236q0 88 52 143t128 55zM258 382q79 85 79 181q0 28 -11 47t-28 19
q-18 0 -29 -22.5t-11 -53.5v-171z" />
    <glyph glyph-name="uni2116" unicode="&#x2116;" horiz-adv-x="1046" 
d="M223 700l256 -465v465h142v-700h-151l-258 466v-466h-143v700h154zM844 452q72 0 117 -43.5t45 -117.5q0 -73 -44 -117.5t-119 -44.5t-119.5 44.5t-44.5 117.5t45.5 117t119.5 44zM778 291q0 -88 65 -88q31 0 48 23t17 65q0 41 -17 64t-50 23q-28 0 -45.5 -22.5
t-17.5 -64.5zM999 98v-98h-301v98h301z" />
    <glyph glyph-name="trademark" unicode="&#x2122;" horiz-adv-x="1000" 
d="M398 714v-80h-117v-332h-102v332h-117v80h336zM587 714l103 -271l103 271h135v-412h-96v292h-2l-106 -292h-69l-106 292h-2v-292h-96v412h136z" />
    <glyph glyph-name="Omega" unicode="&#x2126;" horiz-adv-x="774" 
d="M387 731q156 0 252.5 -93.5t96.5 -244.5q0 -168 -140 -260v-5h141v-128h-305v118q79 54 113 116t34 150q0 103 -51.5 159t-140.5 56t-140.5 -56.5t-51.5 -158.5q0 -83 32.5 -145t113.5 -121v-118h-306v128h137v5q-64 40 -99 107t-35 153q0 146 99.5 242t249.5 96z" />
    <glyph glyph-name="partialdiff" unicode="&#x2202;" horiz-adv-x="572" 
d="M253 721q138 0 207 -100.5t69 -262.5q0 -183 -66.5 -277t-191.5 -94q-102 0 -165.5 65t-63.5 167q0 96 61.5 160t158.5 64q71 0 134 -48v8q0 101 -36 159t-101 58q-59 0 -121 -53l-70 80q86 74 185 74zM169 212q0 -56 28 -92t76 -36q56 0 89 52.5t33 125.5v29
q-50 55 -113 55q-50 0 -81.5 -37.5t-31.5 -96.5z" />
    <glyph glyph-name="Delta" unicode="&#x2206;" horiz-adv-x="681" 
d="M423 714l265 -714h-695l269 714h161zM340 538l-142 -406h282l-138 406h-2z" />
    <glyph glyph-name="product" unicode="&#x220f;" horiz-adv-x="749" 
d="M693 786v-1000h-132v874h-373v-874h-133v1000h638z" />
    <glyph glyph-name="summation" unicode="&#x2211;" horiz-adv-x="673" 
d="M634 786v-126h-418l263 -367l-281 -381h448v-126h-619v110l295 396l-283 384v110h595z" />
    <glyph glyph-name="minus" unicode="&#x2212;" horiz-adv-x="600" 
d="M553 306v-107h-505v107h505z" />
    <glyph glyph-name="uni2215" unicode="&#x2215;" horiz-adv-x="167" 
d="M333 722l-412 -744h-87l414 744h85z" />
    <glyph glyph-name="uni2219" unicode="&#x2219;" horiz-adv-x="278" 
d="M140 372q34 0 59 -25t25 -60q0 -33 -25 -58.5t-58 -25.5q-35 0 -60.5 24.5t-25.5 59.5t25.5 60t59.5 25z" />
    <glyph glyph-name="radical" unicode="&#x221a;" horiz-adv-x="570" 
d="M580 786l-218 -1000h-122l-147 303l-53 -26l-49 105l171 78l117 -255l162 795h139z" />
    <glyph glyph-name="infinity" unicode="&#x221e;" horiz-adv-x="848" 
d="M228 463q55 0 99.5 -27.5t96.5 -94.5q91 122 196 122q83 0 133 -54.5t50 -139.5q0 -88 -50.5 -144t-133.5 -56q-99 0 -195 116q-55 -65 -98.5 -89.5t-93.5 -24.5q-84 0 -135.5 54.5t-51.5 142.5q0 86 49.5 140.5t133.5 54.5zM491 264q68 -80 128 -80q34 0 54.5 23
t20.5 59q0 37 -21.5 60t-56.5 23q-54 0 -125 -85zM154 266q0 -36 21 -58.5t56 -22.5q63 0 125 79q-72 84 -127 84q-34 0 -54.5 -23.5t-20.5 -58.5z" />
    <glyph glyph-name="integral" unicode="&#x222b;" horiz-adv-x="628" 
d="M400 784q43 0 81 -22t38 -60q0 -28 -17 -46t-44 -18q-24 0 -36 13.5t-21 41.5q-9 32 -22 32q-19 0 -19 -36q0 -6 3 -80t3 -94v-478q0 -128 -40.5 -189t-126.5 -61q-45 0 -83.5 24t-38.5 65q0 26 19 41.5t44 15.5q22 0 35 -13t20 -45q7 -29 20 -29q19 0 19 30q0 6 -3 75.5
t-3 81.5v482q0 159 48 219q41 50 124 50z" />
    <glyph glyph-name="approxequal" unicode="&#x2248;" horiz-adv-x="600" 
d="M195 435q38 0 109 -30q76 -33 108 -33q52 0 61 62h84q-15 -164 -153 -164q-41 0 -112 32q-69 31 -104 31q-53 0 -61 -60h-84q7 79 45.5 120.5t106.5 41.5zM195 221q38 0 116 -33q69 -30 101 -30q52 0 61 62h84q-15 -164 -153 -164q-42 0 -112 32q-67 31 -104 31
q-53 0 -61 -60h-84q7 79 45.5 120.5t106.5 41.5z" />
    <glyph glyph-name="notequal" unicode="&#x2260;" horiz-adv-x="600" 
d="M492 504l-50 -92h111v-104h-172l-55 -111h227v-104h-285l-71 -134l-87 43l49 91h-111v104h173l54 111h-227v104h285l72 135z" />
    <glyph glyph-name="lessequal" unicode="&#x2264;" horiz-adv-x="600" 
d="M553 401l-356 -83l356 -83v-113l-505 142v108l505 142v-113zM553 107v-107h-505v107h505z" />
    <glyph glyph-name="greaterequal" unicode="&#x2265;" horiz-adv-x="600" 
d="M48 514l505 -142v-108l-505 -142v112l356 83l-356 83v114zM553 107v-107h-505v107h505z" />
    <glyph glyph-name="fi" unicode="&#xfb01;" horiz-adv-x="591" 
d="M85 0v422h-85v95h85v38q0 78 47 118.5t126 40.5q19 0 75 -4v-106q-27 3 -51 3q-31 0 -43 -13.5t-12 -46.5v-30h98v-95h-98v-422h-142zM533 714v-117h-142v117h142zM533 517v-517h-142v517h142z" />
    <glyph glyph-name="fl" unicode="&#xfb02;" horiz-adv-x="591" 
d="M85 0v422h-85v95h85v38q0 78 47 118.5t126 40.5q19 0 75 -4v-106q-27 3 -51 3q-31 0 -43 -13.5t-12 -46.5v-30h98v-95h-98v-422h-142zM533 714v-714h-142v714h142z" />
    <glyph glyph-name="uniFEFF" unicode="&#xfeff;" horiz-adv-x="0" 
 />
    <glyph glyph-name="grave.cap" 
d="M109 921l96 -142h-99l-154 142h157z" />
    <glyph glyph-name="acute.cap" 
d="M308 921l-154 -142h-99l96 142h157z" />
    <glyph glyph-name="circumflex.cap" 
d="M195 921l110 -142h-115l-62 81l-64 -81h-110l111 142h130z" />
    <glyph glyph-name="caron.cap" 
d="M69 921l62 -81l64 81h110l-111 -142h-130l-110 142h115z" />
    <glyph glyph-name="caron.alt" 
d="M266 714l-81 -142h-98l31 142h148z" />
    <glyph glyph-name="tilde.cap" 
d="M63 911q28 0 80 -19q43 -16 63 -16q34 0 43 35h64q-23 -114 -112 -114q-32 0 -77 16q-49 18 -70 18q-34 0 -45 -42h-63q6 51 38 86.5t79 35.5z" />
    <glyph glyph-name="dieresis.cap" 
d="M94 905v-117h-135v117h135zM300 905v-117h-135v117h135z" />
    <glyph glyph-name="macron.cap" 
d="M306 884v-75h-353v75h353z" />
    <glyph glyph-name="breve.cap" 
d="M26 921q5 -33 33.5 -50t65.5 -17q94 0 110 67h63q-19 -142 -178 -142q-72 0 -112.5 36.5t-46.5 105.5h65z" />
    <glyph glyph-name="ring.cap" 
d="M130 973q50 0 83.5 -33t33.5 -81q0 -47 -34 -80.5t-83 -33.5t-83 32.5t-34 81.5q0 48 34 81t83 33zM69 859q0 -28 17 -45.5t44 -17.5q28 0 44.5 17.5t16.5 45.5q0 26 -16 44.5t-46 18.5q-26 0 -43 -17t-17 -46z" />
    <glyph glyph-name="hungarumlaut.cap" 
d="M192 921l-149 -142h-99l91 142h157zM399 921l-149 -142h-99l91 142h157z" />
    <glyph glyph-name="dotaccent.cap" 
d="M197 905v-117h-135v117h135z" />
    <glyph glyph-name="uni10D0.case" horiz-adv-x="604" 
d="M296 -17q-117 0 -191.5 68t-74.5 174q0 59 27 117h150q-21 -59 -21 -108q0 -58 30 -95.5t82 -37.5q53 0 82.5 37t29.5 95q0 36 -8 66t-26.5 58.5t-31 43.5t-39.5 44q-33 36 -52 63.5t-36 82t-17 123.5h156q0 -64 21.5 -109t62.5 -94q26 -31 36.5 -44t32 -45t31 -56.5
t18 -62t8.5 -78.5q0 -105 -77 -173.5t-193 -68.5z" />
    <glyph glyph-name="uni10D1.case" horiz-adv-x="622" 
d="M310 -17q-116 0 -194.5 69.5t-78.5 183.5q0 101 61 167.5t157 81.5v18q0 28 -14.5 44t-44.5 34q-21 12 -33 24t-22.5 40t-10.5 69h144q0 -43 47 -74q26 -17 39.5 -28t28.5 -37t15 -58v-40q80 -22 130.5 -86.5t50.5 -154.5q0 -114 -78.5 -183.5t-196.5 -69.5zM310 101
q54 0 87 36t33 99q0 62 -32.5 97.5t-87.5 35.5q-52 0 -84.5 -35.5t-32.5 -97.5q0 -63 32 -99t85 -36z" />
    <glyph glyph-name="uni10D2.case" horiz-adv-x="619" 
d="M309 -17q-115 0 -193.5 64.5t-78.5 180.5q0 98 59 157t145 84q125 35 125 92q0 25 -19 42.5t-49 17.5q-31 0 -50.5 -20.5t-19.5 -52.5h-150q0 78 63.5 130.5t154.5 52.5q94 0 153.5 -46t59.5 -115q0 -84 -94 -125v-5q76 -16 121.5 -74.5t45.5 -137.5q0 -116 -78.5 -180.5
t-194.5 -64.5zM309 101q53 0 86 35t33 94q0 62 -33 98t-86 36q-52 0 -84.5 -36t-32.5 -98q0 -59 32.5 -94t84.5 -35z" />
    <glyph glyph-name="uni10D3.case" horiz-adv-x="904" 
d="M482 0q-1 40 -50.5 63.5t-127.5 23.5h-183v101h97v4q-79 31 -130 103t-51 167q0 120 62.5 194.5t159.5 74.5q55 0 100.5 -25.5t67.5 -73.5h5q57 99 188 99q104 0 176 -73t72 -180t-72.5 -180t-184.5 -73q-110 0 -181.5 73.5t-71.5 179.5v46q0 44 -21 67.5t-52 23.5
q-43 0 -67.5 -41t-24.5 -115q0 -108 69.5 -178.5t170.5 -92.5q104 -23 163 -67t60 -121h-174zM609 341q51 0 83.5 39.5t32.5 98.5q0 61 -32.5 98.5t-83.5 37.5q-49 0 -79.5 -37.5t-30.5 -98.5t30 -99.5t80 -38.5z" />
    <glyph glyph-name="uni10D4.case" horiz-adv-x="614" 
d="M296 -17q-118 0 -189.5 60.5t-71.5 157.5q0 57 18 101h150q-12 -46 -12 -87q0 -53 29.5 -83.5t76.5 -30.5q50 0 77.5 31.5t27.5 86.5v280q0 50 -24 82t-71 32q-44 0 -70 -29t-26 -70q0 -28 5 -50h-153q-8 21 -8 57q0 88 70.5 149t180.5 61q116 0 184.5 -64.5t68.5 -160.5
v-294q0 -103 -73 -166t-190 -63z" />
    <glyph glyph-name="uni10D5.case" horiz-adv-x="606" 
d="M300 -17q-118 0 -191.5 59t-73.5 152q0 50 16 87h148q-10 -29 -10 -64q0 -54 30.5 -85t81.5 -31q48 0 80 29.5t32 80.5q0 48 -27 80t-75 32h-37v109h35q43 0 65.5 25.5t22.5 64.5q0 38 -25.5 64.5t-68.5 26.5q-44 0 -69 -27t-25 -67q0 -25 4 -38h-149q-7 21 -7 54
q0 81 69.5 138.5t177.5 57.5q104 0 174 -56t70 -140q0 -56 -26.5 -97.5t-68.5 -57.5v-4q50 -18 83 -65.5t33 -116.5q0 -93 -77 -152t-192 -59z" />
    <glyph glyph-name="uni10D6.case" horiz-adv-x="673" 
d="M363 -17q-116 0 -194.5 67t-78.5 173q0 43 17.5 84.5t52.5 66.5v4q-61 7 -103 54.5t-42 116.5q0 83 60.5 132.5t152.5 49.5t153.5 -46t61.5 -115q0 -70 -38 -102v-3q97 -5 165 -66.5t68 -164.5q0 -111 -79 -181t-196 -70zM227 460q37 0 60.5 24t23.5 61q0 36 -22.5 59.5
t-58.5 23.5q-35 0 -58.5 -23.5t-23.5 -59.5q0 -37 21.5 -61t57.5 -24zM363 101q54 0 87 37t33 95q0 60 -31.5 95.5t-85.5 35.5t-87 -35.5t-33 -94.5q0 -60 32 -96.5t85 -36.5z" />
    <glyph glyph-name="uni10D7.case" horiz-adv-x="957" 
d="M679 0q33 56 51 140.5t18 171.5v165q0 142 -85 142q-38 0 -61 -31.5t-23 -97.5v-229q0 -132 -73 -205t-187 -73q-115 0 -190.5 73t-75.5 205v192q0 130 71.5 204t180.5 74q64 0 116 -28t78 -78h4q21 49 70 77.5t105 28.5q100 0 163.5 -69.5t63.5 -191.5v-154
q0 -95 -20 -180.5t-51 -135.5h-155zM319 101q108 0 108 162v187q0 163 -108 163q-110 0 -110 -162v-188q0 -162 110 -162z" />
    <glyph glyph-name="uni10D8.case" horiz-adv-x="635" 
d="M372 0q24 54 39 142t15 175v141q0 72 -27.5 113.5t-80.5 41.5q-54 0 -81.5 -41.5t-27.5 -113.5v-141q0 -86 15.5 -174t38.5 -143h-151q-26 52 -42.5 142t-16.5 181v139q0 126 75 197.5t190 71.5q114 0 189.5 -72t75.5 -198v-138q0 -91 -17 -180.5t-43 -142.5h-151z" />
    <glyph glyph-name="uni10D9.case" horiz-adv-x="594" 
d="M294 -17q-114 0 -189 63t-75 154q0 44 16 79h145q-10 -34 -10 -65q0 -49 31.5 -81t81.5 -32t80 32t30 88q0 58 -29 94.5t-78 36.5h-53v115h66q39 0 59 20t20 54q0 31 -19 50.5t-54 23.5v112q100 -5 158 -50.5t58 -122.5q0 -52 -25.5 -88.5t-67.5 -51.5v-4
q57 -22 88.5 -73.5t31.5 -124.5q0 -98 -76 -163.5t-189 -65.5z" />
    <glyph glyph-name="uni10DA.case" horiz-adv-x="1097" 
d="M643 0q-14 88 -192 88h-321v102h98v4q-81 28 -136 98.5t-55 168.5q0 123 60 196.5t156 73.5q52 0 95 -25t60 -69h4q13 43 52 68.5t83 25.5q48 0 87 -25t51 -69h4q19 44 60 69t91 25q98 0 159.5 -70.5t61.5 -189.5q0 -121 -36 -213h-154q35 90 35 209q0 148 -78 148
q-30 0 -49.5 -25t-19.5 -67v-180h-141v181q0 43 -18.5 67t-50.5 24t-51 -25t-19 -66v-181h-141v178q0 45 -17.5 69.5t-49.5 24.5q-38 0 -58.5 -39.5t-20.5 -112.5q0 -114 72 -181t167 -76q152 -16 191 -24q95 -20 141.5 -63.5t50.5 -118.5h-171z" />
    <glyph glyph-name="uni10DB.case" horiz-adv-x="635" 
d="M308 -17q-121 0 -196 71.5t-75 181.5t63 177t160 67q50 0 94.5 -19t67.5 -53h2v90q0 59 -30.5 87t-80.5 28q-38 0 -64.5 -20t-31.5 -52h-157q2 70 71.5 130t180.5 60q123 0 195.5 -61t72.5 -168v-267q0 -110 -75 -181t-197 -71zM309 101q52 0 85.5 35.5t33.5 94.5t-33 95
t-86 36q-52 0 -84 -35.5t-32 -95.5q0 -58 32.5 -94t83.5 -36z" />
    <glyph glyph-name="uni10DC.case" horiz-adv-x="635" 
d="M327 -17q-122 0 -197 71t-75 181v282q0 93 60.5 145t176.5 52h235v-120h-226q-47 0 -68.5 -20.5t-21.5 -63.5v-99h2q23 34 65.5 53.5t91.5 19.5q97 0 162.5 -69t65.5 -179t-75 -181.5t-196 -71.5zM326 101q51 0 83.5 35.5t32.5 95.5q0 61 -32 97t-84 36q-53 0 -86.5 -36
t-33.5 -97q0 -60 33.5 -95.5t86.5 -35.5z" />
    <glyph glyph-name="uni10DD.case" horiz-adv-x="873" 
d="M590 0q33 57 54 148t21 176v148q0 141 -84 141q-33 0 -53.5 -28.5t-20.5 -81.5v-300h-141v300q0 53 -20 81.5t-55 28.5q-38 0 -60.5 -36t-22.5 -104v-149q0 -84 20.5 -176t52.5 -148h-154q-31 51 -52.5 141.5t-21.5 184.5v148q0 116 62 186.5t156 70.5q56 0 99.5 -24
t63.5 -71h4q20 47 64 71t98 24q97 0 158.5 -69t61.5 -188v-148q0 -95 -21.5 -185.5t-53.5 -140.5h-155z" />
    <glyph glyph-name="uni10DE.case" horiz-adv-x="596" 
d="M297 -17q-112 0 -189.5 57.5t-77.5 149.5q0 39 14 73h151q-8 -28 -8 -61q0 -43 31.5 -72t78.5 -29q46 0 76 30t30 74q0 49 -27 81t-75 32h-45v116h63q67 0 67 47q0 17 -12.5 30.5t-26.5 20.5t-42 18q-65 26 -101 63t-39 101h155q2 -9 6 -17t10.5 -15t12 -12t16 -10.5
t15.5 -8t18 -8t16 -7.5q27 -12 43.5 -21t36.5 -26t29.5 -41t9.5 -55q0 -87 -91 -116v-4q47 -14 82 -61t35 -116q0 -95 -75 -154t-187 -59z" />
    <glyph glyph-name="uni10DF.case" horiz-adv-x="627" 
d="M300 -17q-116 0 -189.5 58.5t-73.5 154.5q0 37 10 61h152q-6 -23 -6 -52q0 -41 31 -72.5t77 -31.5q49 0 79 34.5t30 91.5v385l-154 -21v-4q30 -15 44.5 -44t14.5 -58q0 -63 -50 -102.5t-134 -39.5h-85v112h59q34 0 55.5 15.5t21.5 45.5q0 29 -22 45.5t-54 16.5v99l299 41
h162v-503q0 -112 -75 -172t-192 -60z" />
    <glyph glyph-name="uni10E0.case" horiz-adv-x="806" 
d="M547 0q67 116 67 242q0 65 -21 97t-56 32q-30 0 -48 -26t-18 -71v-147h-136v146q0 47 -17.5 72.5t-47.5 25.5q-34 0 -56 -30t-22 -97q0 -131 67 -244h-150q-72 111 -72 303q0 73 16.5 131t43.5 97t66.5 67.5t81 44t91.5 24.5l84 16q45 9 54 31h155q-6 -59 -43 -94.5
t-118 -47.5l-86 -13q-205 -31 -229 -139h3q22 33 56.5 48.5t66.5 15.5q39 0 73 -22t52 -63h3q45 85 154 85q88 0 148 -62.5t60 -168.5q0 -147 -72 -253h-150z" />
    <glyph glyph-name="uni10E1.case" horiz-adv-x="626" 
d="M324 -17q-119 0 -191.5 63.5t-72.5 173.5v494h156v-483q0 -57 29.5 -94t79.5 -37q49 0 78.5 31t29.5 77q0 39 -14.5 69.5t-31.5 48t-32 54.5t-15 88h150q2 -29 12.5 -54.5t25 -46t28.5 -43t23.5 -56t9.5 -75.5q0 -95 -76 -152.5t-189 -57.5z" />
    <glyph glyph-name="uni10E2.case" horiz-adv-x="768" 
d="M384 -17q-149 0 -248.5 97t-99.5 264q0 147 80 241.5t200 117.5h9q-6 18 -6 38h128q0 -16 -5 -38h9q120 -22 200 -116.5t80 -242.5q0 -167 -99.5 -264t-247.5 -97zM384 100q89 0 141.5 65t52.5 179q0 92 -38.5 155.5t-96.5 87.5l-4 -2q15 -68 15 -146v-131h-142v133
q0 81 16 144l-4 2q-136 -46 -136 -243q0 -114 53.5 -179t142.5 -65z" />
    <glyph glyph-name="uni10E3.case" horiz-adv-x="642" 
d="M318 -17q-115 0 -193.5 62.5t-78.5 160.5q0 43 17 91h151q-12 -38 -12 -79q0 -51 31 -84t86 -33q51 0 83 32.5t32 92.5v295q0 43 -17 67.5t-51 24.5q-32 0 -49 -24t-17 -66v-95h-145v94q0 77 -76 77h-47v125h52q108 0 141 -78h4q20 42 61 63.5t94 21.5q94 0 150 -52.5
t56 -140.5v-317q0 -106 -77 -172t-195 -66z" />
    <glyph glyph-name="uni10E4.case" horiz-adv-x="846" 
d="M489 -17q-134 0 -217.5 49t-89.5 151h154q19 -84 152 -84q59 0 105 26.5t46 79.5q0 41 -22.5 69t-60.5 28h-20v109h41q40 0 61 26.5t21 73.5q0 52 -23.5 79t-62.5 27q-35 0 -57.5 -24t-22.5 -67v-31q0 -102 -62.5 -165.5t-165.5 -63.5q-107 0 -171 63.5t-64 165.5
q0 104 62.5 170t166.5 66q122 0 174 -96h4q23 45 67.5 70.5t101.5 25.5q85 0 144.5 -56.5t59.5 -144.5q0 -134 -110 -174v-4q43 -18 67.5 -61t24.5 -103q0 -93 -84.5 -149t-218.5 -56zM264 376q47 0 72.5 33t25.5 88q0 56 -26 89.5t-71 33.5q-46 0 -72 -34t-26 -89t25.5 -88
t71.5 -33z" />
    <glyph glyph-name="uni10E5.case" horiz-adv-x="619" 
d="M294 -17q-117 0 -188 59t-71 157q0 30 11 57h147q-5 -27 -5 -45q0 -49 29 -79.5t77 -30.5q53 0 81.5 33t28.5 90v156q0 53 -28.5 84.5t-73.5 31.5q-41 0 -65 -26t-24 -60q0 -15 4 -33h-150q-7 23 -7 51q0 80 49 131.5t136 51.5q51 0 92.5 -19.5t63.5 -52.5h2v175h156
v-501q0 -110 -72.5 -170t-192.5 -60z" />
    <glyph glyph-name="uni10E6.case" horiz-adv-x="833" 
d="M451 0q-2 39 -39.5 63t-113.5 24h-177v101h96v4q-80 31 -130 103t-50 168q0 122 60.5 195t156.5 73q56 0 99.5 -24.5t60.5 -70.5h4q19 46 64 70.5t96 24.5q98 0 158.5 -72.5t60.5 -192.5q0 -116 -37 -210h-156q37 90 37 205q0 159 -85 159q-31 0 -51 -25t-20 -70v-184
h-139v183q0 48 -18.5 72t-50.5 24q-40 0 -62 -42t-22 -117q0 -113 63.5 -181t156.5 -87q97 -20 153 -64.5t58 -128.5h-173z" />
    <glyph glyph-name="uni10E7.case" horiz-adv-x="630" 
d="M305 -17q-107 0 -183 52.5t-76 142.5q0 24 10 52h145q-5 -22 -5 -37q0 -44 31.5 -68t77.5 -24q51 0 79.5 34t28.5 89v145h-2q-18 -32 -59.5 -50t-93.5 -18q-97 0 -159 64.5t-62 171.5q0 91 41 177h148q-33 -80 -33 -169q0 -60 30 -94.5t81 -34.5q52 0 83.5 37.5
t31.5 101.5v159h151v-496q0 -110 -76 -172.5t-189 -62.5z" />
    <glyph glyph-name="uni10E8.case" horiz-adv-x="636" 
d="M310 -17q-122 0 -197.5 70.5t-75.5 178.5t65.5 173.5t163.5 65.5q49 0 91.5 -19.5t64.5 -53.5h2v127q0 91 -63 91q-29 0 -45 -19t-16 -47v-23h-135v21q0 58 -66 58h-51v120h66q44 0 76.5 -19t44.5 -56h5q40 80 150 80q87 0 139 -49.5t52 -140.5v-309q0 -108 -74.5 -178.5
t-196.5 -70.5zM310 101q51 0 85 35.5t34 90.5q0 57 -33 92t-86 35q-51 0 -83.5 -35t-32.5 -92q0 -55 33 -90.5t83 -35.5z" />
    <glyph glyph-name="uni10E9.case" horiz-adv-x="627" 
d="M384 0q26 58 38 106.5t12 116.5q0 71 -32 105.5t-82 34.5q-48 0 -80.5 -37.5t-32.5 -103.5v-222h-152v525q0 97 64.5 151.5t163.5 54.5q105 0 170.5 -55.5t65.5 -143.5h-147q0 35 -23 59t-59 24q-32 0 -55.5 -24t-23.5 -63v-118h2q54 73 158 73q93 0 156 -69t63 -177
q0 -141 -56 -237h-150z" />
    <glyph glyph-name="uni10EA.case" horiz-adv-x="696" 
d="M372 -17q-69 0 -127.5 22t-106 67.5t-74.5 123t-27 180.5q0 188 97 338h145q-86 -152 -86 -331q0 -145 49.5 -213.5t127.5 -68.5q56 0 95 32.5t39 80.5q0 55 -31 88.5t-81 33.5h-58v114h67q38 0 59 16.5t21 44.5q0 24 -10 42t-24.5 31.5t-29 28.5t-25 40.5t-11.5 60.5
h146q5 -26 23.5 -50t37 -40t33.5 -44.5t15 -63.5q0 -86 -95 -118v-4q53 -20 85.5 -68.5t32.5 -121.5q0 -97 -83.5 -159t-203.5 -62z" />
    <glyph glyph-name="uni10EB.case" horiz-adv-x="640" 
d="M308 -17q-121 0 -196 71.5t-75 181.5t65.5 179t162.5 69q49 0 91 -19.5t66 -53.5h2v303h156v-479q0 -110 -75 -181t-197 -71zM309 101q53 0 86 35.5t33 95.5q0 61 -33 97t-86 36q-52 0 -84 -36t-32 -97q0 -59 32.5 -95t83.5 -36z" />
    <glyph glyph-name="uni10EC.case" horiz-adv-x="638" 
d="M329 -17q-122 0 -196.5 70.5t-74.5 178.5v309q0 91 52 140.5t139 49.5q111 0 151 -80h3q12 37 44.5 56t76.5 19h67v-120h-51q-66 0 -66 -58v-21h-135v23q0 28 -16.5 47t-45.5 19q-63 0 -63 -91v-127h2q22 34 64.5 53.5t91.5 19.5q98 0 164 -65.5t66 -173.5t-75.5 -178.5
t-197.5 -70.5zM328 101q51 0 84 35.5t33 90.5q0 57 -32.5 92t-83.5 35q-53 0 -86.5 -35t-33.5 -92q0 -55 34 -90.5t85 -35.5z" />
    <glyph glyph-name="uni10ED.case" horiz-adv-x="668" 
d="M299 -17q-114 0 -187.5 57.5t-73.5 151.5q0 20 9 42h150q-5 -17 -5 -34q0 -44 29.5 -71.5t77.5 -27.5q50 0 78.5 30.5t28.5 84.5v152h-2q-21 -30 -65.5 -49.5t-94.5 -19.5q-82 0 -140.5 42.5t-58.5 121.5t63.5 124t163.5 45h134v82h155v-82h92v-106h-92v-298
q0 -117 -74 -181t-188 -64zM285 403q51 0 88 25t37 67v31h-128q-46 0 -72 -15.5t-26 -43.5q0 -30 28 -47t73 -17z" />
    <glyph glyph-name="uni10EE.case" horiz-adv-x="642" 
d="M331 -17q-122 0 -196.5 71.5t-74.5 181.5v478h156v-303h2q23 34 65.5 53.5t91.5 19.5q97 0 162.5 -69t65.5 -179t-75.5 -181.5t-196.5 -71.5zM331 101q51 0 83.5 36t32.5 95q0 61 -32 97t-84 36q-53 0 -86.5 -36t-33.5 -97q0 -60 33.5 -95.5t86.5 -35.5z" />
    <glyph glyph-name="uni10EF.case" horiz-adv-x="606" 
d="M303 -17q-118 0 -194 56.5t-76 152.5q0 31 12 61h149q-6 -28 -6 -46q0 -47 31.5 -76.5t83.5 -29.5q50 0 81 30.5t31 82.5q0 57 -32 89.5t-84 32.5h-73v190h-181v106h181v89h140v-89h180v-106h-180v-82q91 -14 148.5 -76.5t57.5 -161.5q0 -98 -77.5 -160.5t-191.5 -62.5z
" />
    <glyph glyph-name="uni10F0.case" horiz-adv-x="603" 
d="M296 -17q-112 0 -190 48t-78 132q0 25 8 46h141q-4 -13 -4 -30q0 -39 35.5 -59.5t88.5 -20.5q52 0 85.5 19.5t33.5 52.5q0 71 -93 71h-74v104h100q62 0 62 36q0 39 -62 39h-100v103h98q54 0 54 31q0 4 -1 7.5t-4 6t-6 4.5t-9 4t-10 3.5t-12 3t-13 2.5t-14.5 3t-14.5 3
q-57 12 -91.5 38.5t-37.5 83.5h143q4 -8 14 -14.5t20 -9.5t30.5 -8.5t32.5 -9.5q51 -17 82 -40.5t31 -64.5q0 -71 -82 -90v-4q42 -6 67.5 -29t25.5 -62q0 -68 -88 -84v-4q49 -11 76 -45.5t27 -86.5q0 -80 -80 -129.5t-191 -49.5z" />
    <glyph glyph-name="uni10F1.case" horiz-adv-x="689" 
d="M384 -17q-155 0 -251 97.5t-96 293.5q0 184 90 340h144q-83 -159 -83 -333q0 -144 55 -212t139 -68q53 0 87.5 19.5t34.5 55.5q0 34 -23 54t-66 20h-71v103h91q59 0 59 40q0 42 -59 42h-91v103h90q52 0 52 33q0 11 -6.5 20.5t-13 14t-20.5 13.5q-19 12 -28.5 20t-21 28
t-12.5 47h143q8 -24 46 -54q20 -15 29 -23t19 -27t10 -43q0 -60 -83 -78v-4q42 -6 67 -29.5t25 -64.5q0 -71 -88 -87v-4q48 -13 76.5 -49.5t28.5 -85.5q0 -81 -79 -131.5t-194 -50.5z" />
    <glyph glyph-name="uni10F2.case" horiz-adv-x="635" 
d="M571 -5q-133 0 -253 63q-121 -63 -253 -63v116q81 0 140 22v4q-74 37 -122.5 119.5t-48.5 187.5q0 129 84 208t200 79t199.5 -79t83.5 -208q0 -108 -48 -189t-123 -118v-4q59 -22 141 -22v-116zM318 181q127 87 127 257q0 78 -34.5 126.5t-92.5 48.5q-59 0 -93.5 -48.5
t-34.5 -126.5q0 -171 128 -257z" />
    <glyph glyph-name="uni10F3.case" horiz-adv-x="600" 
d="M299 -17q-115 0 -190.5 60.5t-75.5 153.5q0 44 15 82h148q-11 -33 -11 -68q0 -49 31.5 -79.5t82.5 -30.5q50 0 80.5 35t30.5 85q0 56 -29 91.5t-78 35.5h-45v114h48q38 0 58 23t20 62v54h-302v113h452v-153q0 -59 -24.5 -98.5t-66.5 -54.5v-3q57 -19 89 -70.5t32 -123.5
q0 -101 -75.5 -164.5t-189.5 -63.5z" />
    <glyph glyph-name="uni10F4.case" horiz-adv-x="600" 
d="M299 -17q-116 0 -191 60t-75 154q0 36 11 66h148q-8 -29 -8 -56q0 -45 31.5 -75.5t84.5 -30.5q50 0 79.5 29.5t29.5 71.5q0 46 -28 74.5t-76 28.5h-44v115h42q77 0 77 78v27h-111q-87 0 -142.5 48.5t-59.5 140.5h148q3 -41 26 -58.5t72 -17.5h221v-124q0 -56 -25 -94.5
t-67 -53.5v-4q54 -15 87.5 -58t33.5 -111q0 -91 -75.5 -150.5t-188.5 -59.5z" />
    <glyph glyph-name="uni10F5.case" horiz-adv-x="651" 
d="M284 -17q-100 0 -173.5 48t-73.5 133q0 79 60.5 121.5t168.5 42.5h132v79h-130q-108 0 -165 39.5t-57 116.5q0 84 71 126t174 42q106 0 180 -43.5t74 -132.5v-46h91v-102h-91v-79h91v-102h-91v-47q0 -94 -74.5 -145t-186.5 -51zM398 509v35q0 76 -105 76q-45 0 -73.5 -14
t-28.5 -43q0 -54 90 -54h117zM288 97q110 0 110 80v49h-121q-42 0 -67 -16.5t-25 -47.5q0 -30 29.5 -47.5t73.5 -17.5z" />
    <glyph glyph-name="uni10F6.case" horiz-adv-x="787" 
d="M238 0v111h25q33 0 47 11t14 43v41q-131 7 -209.5 72t-78.5 183q0 110 79 172.5t214 74.5l-5 30h139l-5 -30q133 -12 212.5 -76t79.5 -171q0 -119 -78.5 -184t-209.5 -70v-43q0 -88 -38 -126t-129 -38h-57zM462 314q66 3 104 36t38 111q0 71 -39.5 105.5t-102.5 37.5
v-290zM324 603q-63 -3 -102.5 -38t-39.5 -104q0 -138 142 -147v289z" />
    <glyph glyph-name="uni10F7.case" horiz-adv-x="606" 
d="M301 -17q-113 0 -192 59t-79 166q0 71 34.5 121.5t84 76.5t98.5 45.5t83.5 44t34.5 57.5q0 27 -20 45.5t-49 18.5q-30 0 -50 -20.5t-20 -52.5h-148q0 79 64.5 133t152.5 54q85 0 151.5 -47t66.5 -125q0 -50 -24.5 -87t-61.5 -57t-79.5 -41t-79.5 -39t-61.5 -51t-24.5 -77
q0 -47 33.5 -77t86.5 -30q55 0 88.5 33t33.5 78q0 41 -13 83h149q16 -38 16 -86q0 -103 -80 -164t-195 -61z" />
    <glyph glyph-name="uni10F8.case" horiz-adv-x="630" 
d="M324 -17q-113 0 -189 62.5t-76 172.5v496h151v-159q0 -64 31.5 -101.5t83.5 -37.5q51 0 81 34.5t30 94.5q0 89 -33 169h148q41 -86 41 -177q0 -107 -62 -171.5t-159 -64.5q-52 0 -93.5 18t-59.5 50h-2v-145q0 -55 28.5 -89t79.5 -34q46 0 77.5 24t31.5 68q0 15 -5 37h145
q10 -28 10 -52q0 -90 -76 -142.5t-183 -52.5z" />
    <glyph glyph-name="uni10F9.case" horiz-adv-x="619" 
d="M310 730q115 0 193.5 -64.5t78.5 -180.5q0 -98 -59 -157t-145 -84q-125 -35 -125 -92q0 -25 19 -42.5t49 -17.5q31 0 50.5 20.5t19.5 52.5h150q0 -78 -63.5 -130.5t-154.5 -52.5q-94 0 -153.5 46t-59.5 115q0 84 94 125v5q-76 16 -121.5 74.5t-45.5 137.5
q0 116 78.5 180.5t194.5 64.5zM310 612q-53 0 -86 -35t-33 -94q0 -62 33 -98t86 -36q52 0 84.5 36t32.5 98q0 59 -32.5 94t-84.5 35z" />
    <glyph glyph-name="uni10FA.case" horiz-adv-x="618" 
d="M334 0q-2 41 -27.5 63.5t-91.5 22.5h-109v102h100v4q-170 82 -170 270q0 120 78 194.5t197 74.5t194.5 -74t75.5 -195q0 -70 -22 -134h-151q17 66 17 134q0 69 -32 108t-86 39q-53 0 -84.5 -41.5t-31.5 -105.5q0 -42 10.5 -78.5t23 -59.5t38.5 -48t41 -36.5t47 -32.5
t42 -28q95 -66 96 -179h-155z" />
    <glyph glyph-name="uni10FD.case" horiz-adv-x="678" 
d="M328 731q124 0 205 -57.5t81 -172.5h-152q-4 55 -37.5 81.5t-102.5 26.5q-47 0 -78 -20.5t-31 -60.5q0 -38 32.5 -54.5t157.5 -47.5q41 -11 66 -18.5t61.5 -25t56.5 -38t35.5 -55t15.5 -77.5q0 -103 -78.5 -166t-218.5 -63q-59 0 -111.5 14.5t-96.5 43.5t-70 78t-26 113
v5h152q0 -69 46 -100.5t111 -31.5q60 0 100 21.5t40 67.5q0 34 -28.5 56.5t-94.5 38.5q-134 35 -145 39q-157 52 -157 188q0 69 40 119t99.5 73t127.5 23z" />
    <glyph glyph-name="uni10FE.case" horiz-adv-x="635" 
d="M318 -17q-116 0 -200 79t-84 208q0 105 48.5 187.5t122.5 119.5v4q-59 22 -140 22v116q132 0 253 -63q120 63 253 63v-116q-82 0 -141 -22v-4q75 -37 123 -118t48 -189q0 -129 -83.5 -208t-199.5 -79zM318 101q58 0 92.5 48.5t34.5 126.5q0 170 -127 257
q-128 -86 -128 -257q0 -78 34.5 -126.5t93.5 -48.5z" />
    <glyph glyph-name="uni10FF.case" horiz-adv-x="731" 
d="M365 -17q-150 0 -242.5 105.5t-92.5 268.5q0 161 92.5 267.5t242.5 106.5q151 0 243.5 -105.5t92.5 -268.5q0 -165 -93 -269.5t-243 -104.5zM365 100q89 0 134 71.5t45 185.5t-45.5 185.5t-134.5 71.5q-87 0 -132 -71.5t-45 -185.5q0 -112 45 -184.5t133 -72.5z" />
    <glyph glyph-name="uni10FB.case" horiz-adv-x="582" 
d="M74 570h156v-161h-156v161zM369 394h155v-160h-155v160zM74 217h156v-160h-156v160z" />
    </font>
</defs>
</svg>
