<svg xmlns="http://www.w3.org/2000/svg" width="36" height="36" viewBox="0 0 36 36">
    <path fill="#FFF" fill-rule="evenodd" d="M13.712 11.493c.413.476.362 1.196-.113 1.609-.238.206-.461.43-.67.67-2.434 2.8-2.138 7.045.663 9.48 2.8 2.434 7.044 2.137 9.479-.664 2.434-2.8 2.138-7.044-.663-9.479-.475-.413-.526-1.133-.112-1.608.413-.476 1.133-.526 1.608-.113 3.752 3.261 4.15 8.946.888 12.697-3.26 3.751-8.945 4.149-12.696.888-3.752-3.261-4.15-8.946-.888-12.697.278-.32.577-.62.895-.895.475-.414 1.195-.363 1.609.112zM18.123 8c.572 0 1.043.433 1.103.989l.007.12v6.905c0 .572-.433 1.042-.989 1.103l-.12.006h-.247c-.572 0-1.043-.433-1.103-.989l-.007-.12V9.11c0-.572.433-1.043.989-1.103l.12-.007h.247z"/>
</svg>
