<svg xmlns="http://www.w3.org/2000/svg" width="36" height="36" viewBox="0 0 36 36">
    <path fill="#FFF" fill-rule="evenodd" d="M24.484 12.547c-.128-.147-.361-.147-.51-.02l-.955.883c-.127.127-.148.337-.02.485.975 1.158 1.506 2.61 1.506 4.126 0 3.432-2.695 6.21-6.091 6.421v-1.137c0-.463-.51-.736-.913-.505l-3.417 2.063c-.382.232-.382.78 0 1.01l3.396 2.043c.403.232.913-.042.913-.505v-.99c4.499-.21 8.107-3.873 8.107-8.4 0-2.021-.7-3.958-2.016-5.474zm-5.985-4.463c-.403-.232-.913.042-.913.505v.99c-4.52.21-8.107 3.873-8.086 8.379 0 2.021.7 3.958 2.016 5.474.128.147.361.147.51.02l.955-.883c.127-.127.148-.337.021-.485-.976-1.158-1.507-2.61-1.507-4.126 0-3.432 2.696-6.21 6.091-6.421v1.137c0 .463.51.736.913.505l3.396-2.042c.382-.232.382-.78 0-1.01z"/>
</svg>
