<svg width="32px" height="32px" viewBox="0 0 32 32" version="1.1" xmlns="http://www.w3.org/2000/svg" xmlns:xlink="http://www.w3.org/1999/xlink">
    <g stroke="none" stroke-width="1" fill="none" fill-rule="evenodd">
        <g>
            <polygon id="Path" points="0 0 32 0 32 32 0 32"></polygon>
            <path d="M17.333,4 C10.707,4 5.333,9.373 5.333,16 L1.333,16 L6.52,21.187 L6.613,21.373 L12,16 L8,16 C8,10.84 12.173,6.667 17.333,6.667 C22.493,6.667 26.667,10.84 26.667,16 C26.667,21.16 22.493,25.333 17.333,25.333 C14.76,25.333 12.427,24.28 10.747,22.587 L8.853,24.48 C11.027,26.653 14.013,28 17.333,28 C23.96,28 29.333,22.627 29.333,16 C29.333,9.373 23.96,4 17.333,4 Z M16,10.667 L16,17.333 L21.667,20.693 L22.693,18.987 L18,16.2 L18,10.667 L16,10.667 Z" id="Shape" fill="#4563FF" fill-rule="nonzero"></path>
        </g>
    </g>
</svg>