<svg xmlns="http://www.w3.org/2000/svg" width="42" height="29" viewBox="0 0 42 29">
    <g fill="none" fill-rule="evenodd">
        <g fill="#3A3E56" fill-rule="nonzero">
            <g>
                <g>
                    <path d="M105.013 13.333c3.505 0 6.346 2.842 6.346 6.346 0 1.336-.412 2.575-1.117 3.597l2.889 2.89.096.108c.352.453.32 1.107-.096 1.523-.419.419-1.078.449-1.531.09l-.101-.09-2.89-2.888c-1.022.704-2.26 1.117-3.596 1.117-3.505 0-6.346-2.842-6.346-6.347 0-3.504 2.84-6.346 6.346-6.346zM107.238 0C109.868 0 112 2.132 112 4.762v6.667l-2.096-.001V4.762c0-1.418-1.106-2.578-2.503-2.662l-.163-.005H76.762c-1.418 0-2.578 1.107-2.662 2.504l-.005.163v17.143c0 1.418 1.107 2.578 2.504 2.662l.163.004H96.76v2.096h-20c-2.629 0-4.761-2.132-4.761-4.762V4.762C72 2.132 74.132 0 76.762 0h30.476zm-2.225 15.41c-2.358 0-4.27 1.912-4.27 4.27 0 2.357 1.912 4.269 4.27 4.269 2.358 0 4.27-1.912 4.27-4.27 0-2.357-1.912-4.269-4.27-4.269zM87.667 17c.605 0 1.095.49 1.095 1.095s-.49 1.095-1.095 1.095h-9.81c-.605 0-1.095-.49-1.095-1.095S77.252 17 77.857 17h9.81zm5-5c.605 0 1.095.49 1.095 1.095s-.49 1.095-1.095 1.095h-14.81c-.605 0-1.095-.49-1.095-1.095S77.252 12 77.857 12h14.81zm12-5c.605 0 1.095.49 1.095 1.095s-.49 1.095-1.095 1.095h-26.81c-.605 0-1.095-.49-1.095-1.095S77.252 7 77.857 7h26.81z" transform="translate(-265 -383) translate(193 383) translate(0 .135)"/>
                </g>
            </g>
        </g>
    </g>
</svg>
