<svg xmlns="http://www.w3.org/2000/svg" width="66" height="24" viewBox="0 0 66 24">
    <g fill="none" fill-rule="nonzero">
        <path fill="#010101" d="M9.168.6c2.901 0 5.184.693 6.848 2.08 1.664 1.387 2.496 3.296 2.496 5.728s-.832 4.341-2.496 5.728c-1.664 1.387-3.947 2.08-6.848 2.08H3.632V23h-3.2V.6h8.736zm-.096 12.832c2.027 0 3.573-.432 4.64-1.296 1.067-.864 1.6-2.107 1.6-3.728s-.533-2.864-1.6-3.728c-1.067-.864-2.613-1.296-4.64-1.296h-5.44v10.048h5.44z"/>
        <path fill="#07F" d="M33.648 23.256c-2.261 0-4.299-.496-6.112-1.488-1.813-.992-3.237-2.363-4.272-4.112-1.035-1.75-1.552-3.701-1.552-5.856s.517-4.107 1.552-5.856c1.035-1.75 2.459-3.12 4.272-4.112C29.349.84 31.386.344 33.648.344c2.24 0 4.267.496 6.08 1.488 1.813.992 3.232 2.357 4.256 4.096 1.024 1.739 1.536 3.696 1.536 5.872 0 2.176-.512 4.133-1.536 5.872-1.024 1.739-2.443 3.104-4.256 4.096-1.813.992-3.84 1.488-6.08 1.488zm0-2.848c1.643 0 3.12-.373 4.432-1.12a8.217 8.217 0 0 0 3.104-3.088c.757-1.312 1.136-2.779 1.136-4.4 0-1.621-.379-3.088-1.136-4.4a8.217 8.217 0 0 0-3.104-3.088c-1.312-.747-2.79-1.12-4.432-1.12-1.643 0-3.13.373-4.464 1.12A8.153 8.153 0 0 0 26.048 7.4c-.757 1.312-1.136 2.779-1.136 4.4 0 1.621.379 3.088 1.136 4.4a8.153 8.153 0 0 0 3.136 3.088c1.333.747 2.821 1.12 4.464 1.12z"/>
        <path fill="#010101" d="M56.944 23.256a15.33 15.33 0 0 1-4.88-.784c-1.568-.523-2.8-1.2-3.696-2.032l1.184-2.496c.853.768 1.947 1.392 3.28 1.872 1.333.48 2.704.72 4.112.72 1.856 0 3.243-.315 4.16-.944.917-.63 1.376-1.467 1.376-2.512 0-.768-.25-1.392-.752-1.872-.501-.48-1.12-.848-1.856-1.104-.736-.256-1.776-.544-3.12-.864-1.685-.405-3.045-.81-4.08-1.216a6.746 6.746 0 0 1-2.656-1.872c-.736-.843-1.104-1.979-1.104-3.408 0-1.195.315-2.272.944-3.232.63-.96 1.584-1.728 2.864-2.304C54 .632 55.59.344 57.488.344c1.323 0 2.624.17 3.904.512 1.28.341 2.379.832 3.296 1.472l-1.056 2.56a11.585 11.585 0 0 0-3.008-1.36 11.227 11.227 0 0 0-3.136-.464c-1.813 0-3.173.33-4.08.992-.907.661-1.36 1.515-1.36 2.56 0 .768.256 1.392.768 1.872.512.48 1.147.853 1.904 1.12.757.267 1.787.55 3.088.848 1.685.405 3.04.81 4.064 1.216a6.841 6.841 0 0 1 2.64 1.856c.736.832 1.104 1.952 1.104 3.36a5.72 5.72 0 0 1-.96 3.216c-.64.97-1.61 1.739-2.912 2.304-1.301.565-2.901.848-4.8.848z"/>
    </g>
</svg>
