<svg xmlns="http://www.w3.org/2000/svg" width="148" height="25" viewBox="0 0 148 25">
    <g fill="none" fill-rule="evenodd">
        <path fill="#FFF" d="M102.32.992h44.936a.5.5 0 0 1 .5.5V16.5a.5.5 0 0 1-.5.5h-35.41a.5.5 0 0 1-.432-.25L102.319.992z"/>
        <text fill="#010101" font-family="NotoSans-Bold, Noto Sans" font-size="14" font-weight="bold" transform="translate(102.32 -.8)">
            <tspan x="10.681" y="15">POS</tspan>
        </text>
        <g>
            <path fill="#EFAE5E" d="M61.912 1.003h16.622v3.154H61.912z"/>
            <g fill="#FFF">
                <path d="M61.912 14.992V24.804h16.622V21.65H65.066v-6.658h13.468v-3.161H61.912zM27.554 24.757L13.51 1l-1.763 3.107 6.385 10.883H5.22L0 24.8h3.559l3.58-6.658h12.843l3.881 6.614zM53.853 8.027A7.027 7.027 0 0 0 46.83 1H34.323v3.249h12.505a3.778 3.778 0 0 1 0 7.556H34.323v12.996h3.156V15.05h6.333l5.695 9.708h3.69l-5.754-9.739a7.025 7.025 0 0 0 6.41-6.99zM111.683 24.757L97.64 1l-1.765 3.107 6.387 10.883H89.35L84.132 24.8h3.556l3.58-6.658h12.846l3.88 6.614z"/>
            </g>
        </g>
    </g>
</svg>
