<svg xmlns="http://www.w3.org/2000/svg" width="136" height="24" viewBox="0 0 136 24">
    <g fill="none">
        <path fill="#FFF" d="M18.724 0H7.758c-3.57-.001-6.47 2.883-6.489 6.453V17.42c.002 3.564 2.89 6.452 6.453 6.453H18.69c3.563-.001 6.45-2.89 6.453-6.453V6.453c.013-1.71-.658-3.353-1.863-4.565C22.074.676 20.434-.004 18.724 0"/>
        <path fill="#F26724" d="M20.594 17.032c.251.074.513.11.775.106 1.164 0 1.728-.456 1.728-1.023 0-.635-.882-.635-.952-1.2-.106-.704-.035-3.843 1.164-5.606l.811.353c.163.086.346.122.53.106.22-.004.428-.108.563-.283.811-.915 1.531-1.907 2.151-2.962.105-.211-1.622-2.363-2.577-3.139-.68-.547-1.525-.846-2.398-.845-1.633.004-3.087 1.034-3.632 2.574-1.66 1.173-3.509 2.055-5.465 2.61-2.715.74-5.43.07-7.3.176-1.019-.012-1.998.398-2.705 1.132-.707.734-1.08 1.728-1.03 2.746.07 2.045 1.48 3.914 1.48 5.855.018.567-.192 1.118-.583 1.528-.392.411-.931.648-1.498.658-1.023 0-1.093-.423-1.376-.423-.074 0-.146.03-.199.082-.052.053-.082.125-.081.2 0 .493 1.27.987 1.975.987 1.064.043 2.076-.463 2.68-1.34.41.922 1.356 1.487 2.362 1.41 1.48 0 2.151-.705 2.151-1.304 0-.494-.282-.706-.494-.988-.175-.262-.272-.567-.282-.882.268.05.54.074.812.07 1.093 0 1.41-.455 1.41-.88 0-.565-.635-.53-.635-1.446 0-.706.39-.917.705-.917.353 0 1.764.141 3.421.317.564.07 1.975.6 1.975 2.751v.776c0 1.304.529 2.962 2.856 2.962 1.587 0 2.468-.882 2.468-1.517 0-.423-.352-.599-.529-.846-.335-.535-.437-1.185-.282-1.798"/>
        <path fill="#FFF" d="M24.437 7.546c-.104-.005-.202.048-.256.137-.053.09-.053.2 0 .29.054.09.152.142.256.137.15-.007.269-.131.269-.282 0-.15-.118-.275-.269-.282M25.388 6.735c-.136 0-.246.11-.246.246 0 .137.11.247.246.247s.247-.11.247-.247c.001-.065-.024-.13-.07-.176-.047-.046-.11-.072-.177-.07M25.847 5.818c-.117 0-.211.095-.211.212 0 .116.094.211.21.211.118 0 .212-.095.212-.211-.007-.114-.098-.204-.211-.212M17.949 7.123c.075 0 .148-.029.2-.082.054-.053.083-.126.082-.2 0-.157-.126-.283-.282-.283-.156 0-.282.126-.282.282 0 .156.126.283.282.283M19.112 14.317c-.075-.001-.148.028-.2.081-.054.053-.083.126-.082.201.01.152.13.272.282.282.075.001.148-.028.201-.081.053-.053.083-.126.081-.201-.01-.152-.13-.272-.282-.282M20.876 14.634c-.156 0-.282.127-.282.283 0 .155.126.282.282.282.156 0 .282-.127.282-.282.001-.076-.028-.148-.081-.201-.054-.053-.126-.083-.201-.082M19.36 11.636c-.157 0-.283.127-.283.283 0 .156.126.282.282.282.156 0 .283-.126.283-.282 0-.076-.029-.148-.082-.201-.053-.053-.125-.083-.2-.082M20.347 9.592c.075 0 .148-.029.2-.082.054-.053.083-.126.082-.2-.01-.152-.13-.273-.282-.283-.075-.001-.148.028-.2.081-.054.054-.083.126-.082.201.01.152.13.272.282.283M15.727 8.392c.156 0 .283-.126.283-.282 0-.156-.127-.282-.283-.282-.156 0-.282.126-.282.282-.035.141.106.282.282.282M17.385 13.717c-.114 0-.217.069-.261.174-.044.106-.02.227.061.308.08.08.202.105.308.061.105-.044.174-.147.174-.26.001-.076-.028-.148-.081-.202-.054-.053-.126-.082-.201-.081M16.574 9.873c.155 0 .282-.126.282-.282 0-.156-.127-.282-.282-.282-.156 0-.283.126-.283.282-.035.141.106.282.283.282M14.67 11.566c-.157 0-.283.126-.283.282 0 .156.126.283.282.283.156 0 .283-.127.283-.283.035-.14-.106-.282-.283-.282M17.773 11.249c.156 0 .282-.127.282-.283 0-.156-.126-.282-.282-.282-.156 0-.283.126-.283.282-.035.141.106.283.283.283M13.047 8.569c-.156 0-.282.126-.282.282 0 .156.126.283.282.283.156 0 .283-.127.283-.283.035-.141-.106-.282-.283-.282M13.718 10.12c-.156 0-.283.127-.283.283 0 .156.127.282.283.282.155 0 .282-.126.282-.282-.01-.152-.13-.272-.282-.283M15.868 12.73c-.156 0-.282.126-.282.282 0 .156.126.283.282.283.156 0 .283-.127.283-.283.035-.176-.106-.282-.283-.282M18.936 8.498c.114 0 .217-.069.26-.174.044-.106.02-.227-.06-.308-.081-.08-.203-.105-.308-.061-.106.043-.175.146-.175.26.01.152.131.273.283.283M21.122 12.201c-.114 0-.217.069-.26.174-.044.106-.02.227.06.308.082.08.203.105.308.061.106-.043.175-.146.175-.26.035-.142-.106-.283-.283-.283M21.898 9.768c-.075-.001-.148.028-.2.081-.054.054-.083.126-.082.201.01.152.13.272.282.283.075 0 .148-.029.2-.082.054-.053.083-.126.082-.2-.01-.152-.13-.273-.282-.283M21.686 7.3c-.155 0-.282.126-.282.282 0 .156.127.282.282.282.156 0 .283-.126.283-.282.035-.141-.106-.282-.283-.282M23.097 7.758c-.075-.002-.148.028-.2.081-.054.053-.083.126-.082.2.01.152.13.273.282.283.104.005.202-.047.256-.137.053-.089.053-.2 0-.29-.054-.09-.152-.142-.256-.137M20.629 6.382c-.156 0-.283.127-.283.283 0 .155.127.282.283.282.156 0 .282-.127.282-.282.001-.076-.028-.148-.082-.201-.053-.053-.125-.083-.2-.082M20.03 5.254c-.156 0-.283.127-.283.282 0 .156.127.283.282.283.156 0 .283-.127.283-.283.035-.14-.106-.282-.283-.282M21.264 5.254c-.156 0-.283.127-.283.282 0 .156.127.283.283.283.156 0 .282-.127.282-.283.035-.14-.106-.282-.282-.282M19.852 4.443c0-.136.11-.247.247-.247.136 0 .247.11.247.247 0 .136-.11.246-.247.246-.132-.008-.238-.114-.247-.246M20.594 3.561c0-.097.078-.176.176-.176.097 0 .176.079.176.176 0 .098-.079.177-.176.177-.095-.006-.17-.082-.176-.177M21.58 3.138c0-.097.08-.176.177-.176.097 0 .176.079.176.176 0 .098-.079.177-.176.177-.106-.035-.177-.106-.177-.177M25.671 5.184c0-.078.063-.141.141-.141.078 0 .142.063.142.14 0 .079-.064.142-.142.142-.075-.005-.136-.065-.14-.141M25.46 8.145c-.01-.087.053-.166.14-.175.088-.01.166.053.176.14.01.088-.053.167-.14.176-.107.036-.177-.035-.177-.14M25.883 7.581c-.01-.087.053-.166.14-.175.088-.01.167.053.177.14.01.088-.054.167-.141.176-.087.01-.166-.054-.176-.14M25.001 8.71c-.01-.087.054-.166.141-.176.088-.01.166.054.176.141.01.088-.053.166-.14.176-.107.035-.177-.035-.177-.141M24.507 9.274c-.01-.087.054-.166.141-.176.088-.01.167.054.176.141.01.088-.053.166-.14.176-.088.009-.166-.054-.177-.141M26.27 7.017c-.009-.087.054-.166.142-.175.087-.01.166.053.175.14.01.088-.053.166-.14.176-.088.01-.166-.054-.177-.14M26.553 6.488c-.01-.087.053-.166.14-.175.088-.01.167.053.177.14.01.088-.053.167-.14.176-.107.036-.177-.035-.177-.14M7.968 19.077c-.636-1.167-.763-2.545-.352-3.809.845-2.15 3.208-1.869 3.208-1.869-.4-.172-.833-.257-1.269-.246-1.726.148-3.012 1.655-2.888 3.383.05.994.525 1.919 1.305 2.537"/>
        <path fill="#FFF" d="M3.949 13.083c-.507-.474-.789-1.14-.775-1.834.02-1.414 1.16-2.555 2.574-2.575 1.48-.07 4.164.353 5.889.141.6 2.645 3.244 5.254 5.324 6.418-2.468-1.093-4.83-3.597-6.876-4.725-2.15-1.199-4.302-1.375-5.43-.317-.755.757-1.027 1.871-.705 2.892M10.016 15.762c.142.776-1.236 1.023-1.236 1.023 1.27.211 1.728-.455 1.728-.455l-.492-.568zM20.028 16.185s-.811 1.164-.246 3.28c-.427.342-.918.594-1.445.74 0 0 1.904.247 2.503-.775-1.163-.883-.812-3.104-.812-3.245M23.837 4.055c-.322-.09-.668-.048-.96.117-.29.166-.504.441-.591.765-.03.327.074.653.285.904.212.252.515.408.843.436.322.09.668.048.96-.117.29-.166.504-.441.591-.765.05-.678-.45-1.272-1.128-1.34m.917 1.304c-.136.468-.626.736-1.093.6-.48-.05-.838-.47-.811-.952.065-.225.216-.415.422-.528.205-.113.447-.14.671-.074.481.05.838.47.812.952"/>
        <path fill="#FFF" d="M23.766 5.184c.074-.258.338-.413.6-.353.282.07.493.283.455.53-.074.257-.337.412-.6.352-.317-.07-.528-.283-.455-.53M22.215 15.128c.456.846-.987 1.164-.987 1.164.64.196 1.325-.124 1.587-.74-.212-.917-.456-.212-.6-.423M25.248 4.725c-.362-.644-1.03-1.056-1.768-1.092-.737-.036-1.442.31-1.864.916-.078.106-.209.16-.339.138-.13-.021-.236-.113-.277-.238-.04-.126-.007-.263.087-.356.563-.639 1.413-.948 2.255-.82.842.13 1.561.677 1.908 1.455M22.956 9.133c-.964-.094-1.882-.461-2.645-1.058-.691-.484-1.259-1.125-1.657-1.87-.044-.069-.047-.157-.01-.23.04-.073.114-.12.196-.123.083-.003.16.038.204.107.375.779.917 1.465 1.587 2.01.66.586 1.463.988 2.327 1.164M21.933 11.21c-1.59-.153-3.07-.88-4.164-2.045-.522-.543-.962-1.16-1.304-1.833-.05-.115 0-.249.112-.305.112-.056.248-.015.31.094.372.853.898 1.63 1.552 2.292.935.968 2.163 1.6 3.494 1.798M14.21 8.075c.117-.03.237.03.283.141.428 1.214 1.114 2.32 2.01 3.245 1.31 1.33 3.071 2.123 4.936 2.221-2.012.01-3.944-.79-5.36-2.221-.891-.867-1.589-1.912-2.045-3.069-.033-.135.044-.273.176-.317"/>
        <path fill="#FFF" d="M22.286 6.312c.386.26.838.407 1.304.423.83.05 1.57-.523 1.728-1.34-.103.951-.912 1.668-1.87 1.657-.477.012-.95-.097-1.374-.318-.115-.06-.162-.2-.106-.317.027-.057.076-.1.136-.12.06-.02.125-.016.181.014"/>
        <path fill="#6E6F71" d="M34.698 16.928c.004.418-.248.795-.635.952.433.136.73.534.74.988 0 .845-.599 1.269-1.691 1.269h-1.94v-4.445h1.833c1.023 0 1.692.39 1.692 1.236m-2.645.6h.917c.455 0 .775-.107.775-.53 0-.422-.352-.529-.775-.529h-.916v1.058zm0 1.868h.988c.494 0 .811-.106.811-.528 0-.423-.317-.53-.811-.53h-.987v1.058zM38.683 20.17l-.39-1.057h-1.905l-.39 1.058h-.912l1.728-4.479h1.093l1.728 4.479h-.952zm-.705-1.868l-.635-1.728-.635 1.728h1.27zM43.372 20.171L41.115 17.173 41.115 20.171 40.199 20.171 40.199 15.692 41.045 15.692 43.301 18.689 43.301 15.692 44.218 15.692 44.218 20.171zM46.123 18.337L46.123 20.17 45.241 20.17 45.241 15.692 46.123 15.692 46.123 17.49 46.546 17.49 48.027 15.692 49.12 15.692 47.25 17.878 49.26 20.17 48.132 20.17 46.545 18.337zM55.75 17.948c.014.96-.552 1.832-1.434 2.209-.882.377-1.904.183-2.587-.49-.683-.673-.892-1.692-.528-2.58.363-.887 1.227-1.466 2.186-1.466.628-.026 1.239.21 1.687.65.447.442.692 1.049.676 1.677m-3.774 0c-.024.384.116.76.384 1.036.27.276.642.425 1.027.41.383.009.752-.142 1.02-.416.267-.274.408-.647.39-1.03.02-.386-.12-.763-.387-1.043-.267-.28-.637-.438-1.023-.437-.389-.007-.762.15-1.03.43-.268.282-.406.663-.38 1.05M57.442 18.372L57.442 20.17 56.561 20.17 56.561 15.692 59.84 15.692 59.84 16.503 57.442 16.503 57.442 17.526 59.699 17.526 59.699 18.372zM66.082 16.291l-.635.635c-.282-.302-.68-.468-1.093-.455-.791.037-1.414.689-1.414 1.48 0 .793.623 1.445 1.414 1.482.299.038.601-.044.84-.23.238-.185.392-.458.429-.758h-1.128v-.742h2.045v.247c.038.603-.175 1.196-.589 1.636-.414.441-.992.691-1.597.69-1.04-.041-1.925-.767-2.17-1.778-.244-1.011.211-2.062 1.117-2.574.905-.513 2.04-.362 2.781.368M67.351 20.171L67.351 15.692 70.665 15.692 70.665 16.503 68.232 16.503 68.232 17.491 70.559 17.491 70.559 18.337 68.232 18.337 68.232 19.359 70.701 19.359 70.701 20.171zM76.06 17.948c.015.96-.551 1.832-1.433 2.209s-1.904.183-2.587-.49c-.683-.673-.892-1.692-.528-2.58.364-.887 1.228-1.466 2.187-1.466.627-.026 1.238.21 1.686.65.448.442.692 1.049.676 1.677m-3.774 0c-.024.384.116.76.385 1.036.268.276.641.425 1.026.41.383.009.752-.142 1.02-.416.267-.274.408-.647.39-1.03.02-.386-.12-.763-.387-1.043-.267-.28-.637-.438-1.023-.437-.389-.007-.762.15-1.03.43-.268.282-.406.663-.38 1.05M80.398 17.067c0 .352-.143.689-.396.934-.252.246-.592.38-.944.37h-.035l1.375 1.799h-1.093l-1.304-1.798h-.247v1.798h-.882v-4.478h1.904c1.058 0 1.622.494 1.622 1.375m-2.644.53h.987c.494 0 .74-.177.74-.565 0-.388-.282-.529-.74-.529h-.987v1.093zM85.017 16.291l-.635.635c-.281-.302-.68-.468-1.093-.455-.79.037-1.413.689-1.413 1.48 0 .793.622 1.445 1.413 1.482.3.038.602-.044.84-.23.239-.185.393-.458.43-.758H83.43v-.742h2.045v.247c.038.603-.175 1.196-.59 1.636-.413.441-.991.691-1.596.69-1.285-.009-2.32-1.059-2.31-2.344.01-1.286 1.06-2.32 2.345-2.31.634-.031 1.251.213 1.692.67M86.322 15.692L87.204 15.692 87.204 20.171 86.322 20.171zM91.4 20.17l-.39-1.057h-1.904l-.39 1.058h-.913l1.728-4.479h1.093l1.763 4.479H91.4zm-.705-1.868l-.635-1.728-.635 1.728h1.27zM31.172 9.556V5.994h1.199v3.527c0 1.022.455 1.445 1.199 1.445s1.199-.39 1.199-1.058c0-.775-.846-.916-.846-1.869h1.2c.034.53.88.74.88 2.01 0 1.199-1.022 2.045-2.467 2.045-1.41-.035-2.363-.881-2.363-2.537M36.744 9.556v-.39h1.199v.352c0 1.023.493 1.446 1.199 1.446.32.034.64-.076.873-.3.231-.226.35-.542.326-.864 0-1.376-1.87-1.798-1.87-3.456v-.35h1.2v.283c0 1.304 1.94 1.41 1.94 3.49.022.64-.232 1.26-.698 1.698-.466.439-1.098.656-1.736.595-.673.055-1.336-.194-1.806-.678-.471-.485-.7-1.154-.627-1.826M42.385 9.838v-.39h1.2v.32c-.03.32.083.636.306.866.224.23.537.352.857.333.706 0 1.164-.423 1.164-1.446v-.917c.032-.292-.068-.584-.272-.795-.205-.211-.492-.32-.786-.298-.251-.03-.504.049-.693.217-.189.17-.296.411-.294.664V8.5h-1.2v-.107c-.013-.518.187-1.02.554-1.386.367-.366.868-.566 1.386-.553.51-.007.988.245 1.27.67V5.994h1.198v3.598c0 1.657-.951 2.503-2.362 2.503-.615.035-1.216-.19-1.658-.618-.442-.43-.685-1.023-.669-1.639M47.957 9.556v-.39h1.199v.352c0 1.023.494 1.446 1.199 1.446.321.034.641-.076.873-.3.232-.226.351-.542.326-.864 0-1.376-1.87-1.798-1.87-3.456v-.35h1.2v.283c0 1.304 1.94 1.41 1.94 3.49.023.64-.231 1.26-.697 1.698-.466.439-1.099.656-1.736.595-1.48 0-2.433-.846-2.433-2.504M60.756 10.014v1.94H59.52v-1.87c0-.67-.282-1.022-.81-1.022-.248-.004-.486.098-.654.28-.168.18-.251.425-.228.672v1.269H56.59v-1.236c0-.6-.282-.952-.81-.952-.495 0-.882.353-.882 1.058v1.836h-1.236v-2.68c0-2.68 1.939-3.28 3.49-3.28h1.764v1.094h-1.622c-1.305 0-2.327.422-2.504 1.375.277-.314.675-.494 1.093-.494.594.012 1.117.393 1.311.953.314-.602.944-.972 1.622-.952.535-.027 1.055.179 1.427.564.372.385.559.913.512 1.446M61.604 9.556v-1.2c0-1.656.987-2.503 2.256-2.503.756-.071 1.471.357 1.763 1.058.29-.67.963-1.09 1.692-1.058.572.017 1.111.268 1.492.695.38.427.568.992.518 1.562v3.844h-1.2V8.145c0-.74-.39-1.164-.951-1.164-.562 0-.952.423-.952 1.164v1.41c0 1.658-.988 2.504-2.327 2.504-1.34 0-2.292-.846-2.292-2.503m3.456-.035V8.428c0-.988-.494-1.41-1.128-1.41-.635 0-1.128.422-1.128 1.41V9.52c0 1.022.455 1.445 1.128 1.445.635 0 1.128-.455 1.128-1.445M70.419 9.908v-.281h1.2v.246c.007.323.147.628.388.843.241.214.561.318.882.285.776 0 1.236-.317 1.236-.775 0-.53-.455-.705-.987-.705h-.635V8.428h.635c.493 0 .881-.142.881-.635 0-.456-.423-.812-1.164-.812-.304-.035-.61.053-.849.246-.238.192-.39.472-.42.777v.141h-1.202v-.21c0-1.128.987-2.082 2.468-2.082 1.375 0 2.363.846 2.363 1.87.007.574-.39 1.075-.952 1.198.632.097 1.08.668 1.023 1.305 0 1.058-1.023 1.833-2.468 1.833-1.41 0-2.398-.846-2.398-2.15M76.237 9.838v-.39h1.2V9.8c-.023.315.093.624.316.847.223.223.532.339.847.317.705 0 1.164-.423 1.164-1.41V8.428c0-.988-.456-1.41-1.164-1.41-.316-.028-.629.085-.853.31-.225.224-.338.537-.31.853v.106h-1.2v-.176c-.026-.625.219-1.23.67-1.663.453-.432 1.07-.648 1.692-.594 1.376 0 2.363.846 2.363 2.503v1.2c0 1.656-.952 2.503-2.363 2.503-.617.056-1.229-.155-1.68-.58-.452-.425-.7-1.022-.682-1.642M81.844 8.674V7.9c-.031-.527.155-1.044.514-1.43.36-.387.862-.61 1.39-.616.648-.007 1.241.365 1.517.952.26-.567.82-.937 1.445-.952.606.02 1.144.392 1.375.952.292-.605.916-.98 1.587-.952.523.005 1.02.23 1.368.618.35.39.518.908.466 1.428v1.586h-1.2v-1.55c0-.67-.317-1.023-.775-1.023-.24.01-.465.118-.624.297-.16.18-.24.416-.222.655V9.31h-1.199V7.863c.032-.237-.038-.475-.193-.657-.155-.181-.38-.289-.618-.295-.236.012-.457.121-.61.301-.154.18-.227.416-.201.65V9.31h-1.2V7.863c0-.6-.317-.952-.775-.952-.423 0-.846.353-.846 1.058v.6c0 1.55.67 2.291 2.786 2.291h3.914v1.093h-4.055c-1.763 0-3.844-.6-3.844-3.28M99.616 7.899v4.055H98.38v-3.95c0-.67-.283-1.023-.812-1.023-.247-.002-.483.1-.65.282-.167.182-.25.426-.226.672v2.468h-1.236V7.935c0-.599-.282-.952-.811-.952-.494 0-.882.353-.882 1.058v3.914h-1.236V7.9c-.022-.537.177-1.059.55-1.445.373-.386.888-.603 1.424-.6.66-.018 1.269.355 1.552.951.3-.614.94-.99 1.622-.952.535-.007 1.05.21 1.418.598.368.389.557.914.521 1.448M100.815 9.556V5.994h1.199v3.527c0 1.022.455 1.445 1.199 1.445.743 0 1.199-.39 1.199-1.058 0-.775-.846-.916-.846-1.869h1.2c.034.53.88.74.88 2.01 0 1.199-1.022 2.045-2.468 2.045-1.375-.035-2.363-.881-2.363-2.537M113.404 10.014c0 1.2-.952 2.082-2.433 2.082-1.446 0-2.398-.845-2.398-2.082-.003-1.09.85-1.99 1.94-2.045v-.423c0-.635-.741-.635-.741-1.552h1.199c0 .565.74.635.74 1.376v.67c.975.15 1.694.989 1.692 1.974m-1.236-.035c.047-.482-.208-.943-.64-1.16-.433-.217-.955-.145-1.313.18-.359.326-.48.839-.305 1.29.175.452.61.749 1.094.748.296.02.588-.08.808-.28.22-.2.348-.48.356-.778M114.144 9.556v-.39h1.199v.352c0 1.023.494 1.446 1.199 1.446.321.034.641-.076.873-.3.232-.226.351-.542.326-.864 0-1.376-1.87-1.798-1.87-3.456v-.35h1.2v.283c0 1.304 1.94 1.41 1.94 3.49.023.64-.232 1.26-.698 1.698-.465.439-1.098.656-1.735.595-1.481 0-2.433-.846-2.433-2.504M119.857 9.98V7.686c0-1.128 1.022-1.728 2.045-1.728h2.327v1.023h-2.15c-.53 0-1.023.247-1.023.811v.776c.321-.473.877-.73 1.445-.67.555-.02 1.095.186 1.494.572.399.386.624.918.622 1.473 0 1.2-.988 2.082-2.398 2.082-1.41.035-2.363-.811-2.363-2.045m3.526 0c-.002-.3-.128-.584-.35-.785-.22-.2-.516-.3-.814-.273-.401-.038-.789.156-1.001.498-.213.343-.213.776 0 1.119.212.343.6.536 1.001.498.298.027.593-.072.814-.273.222-.201.348-.486.35-.784M125.357 9.873v-.246h1.2v.176c-.01.33.126.648.369.87.243.224.571.33.9.294.775 0 1.236-.318 1.236-.988 0-.635-.456-.916-1.27-.916h-.493V7.97h.635c.705 0 1.022-.283 1.022-.917V5.994h1.2v1.27c-.002.618-.423 1.156-1.023 1.304.761.146 1.283.852 1.199 1.622 0 1.093-1.023 1.94-2.469 1.94-1.516-.07-2.503-.917-2.503-2.257M131.317 8.322c0-1.622.951-2.469 2.327-2.469 1.34 0 2.327.846 2.327 2.469v3.632h-1.2V8.357c0-.952-.493-1.376-1.127-1.376-.635 0-1.128.423-1.128 1.376v3.597h-1.2V8.322z"/>
    </g>
</svg>
