<svg xmlns="http://www.w3.org/2000/svg" width="108" height="21" viewBox="0 0 108 21">
    <g fill="#00A2E0">
        <path d="M31.201 11.94c0-.427-.044-.766-.11-.996-.076-.24-.185-.416-.35-.514-.164-.099-.394-.154-.689-.154-.274 0-.492.055-.646.154-.153.098-.262.273-.339.514-.066.23-.098.569-.098.996v2.167c0 .437.032.766.098 1.007.077.23.186.404.34.503.153.11.371.153.645.153.295 0 .525-.044.69-.153.164-.099.273-.274.35-.503.065-.241.11-.57.11-1.007V11.94zm4.75-2.342c.416.503.635 1.247.635 2.221V13.8c0 1.237-.208 2.331-.602 3.283H34.33c.361-1.028.547-2.123.547-3.283v-1.97c0-.569-.076-.974-.23-1.203-.142-.23-.394-.35-.744-.35-.36 0-.624.12-.777.36-.142.23-.219.635-.219 1.193v2.288c0 1.028-.24 1.805-.722 2.32-.481.514-1.193.777-2.134.777-.92 0-1.62-.263-2.101-.788-.47-.515-.712-1.292-.712-2.31V11.93c0-1.007.23-1.773.69-2.298.46-.526 1.127-.788 2.014-.788.536 0 .985.098 1.335.306.35.197.602.504.744.887.208-.405.47-.712.81-.909.339-.186.755-.284 1.27-.284.81 0 1.422.251 1.849.755zM43.086 9.62c.482.525.723 1.291.723 2.309V13.8c0 1.237-.197 2.331-.602 3.283h-1.675c.361-1.028.547-2.123.547-3.283v-1.86c0-.427-.032-.766-.11-.996-.065-.24-.174-.416-.327-.514-.154-.099-.372-.154-.646-.154-.285 0-.503.055-.657.154-.153.098-.262.273-.328.514-.077.23-.11.569-.11.996v1.85c0 1.148.187 2.243.548 3.293h-1.675c-.394-.974-.602-2.068-.602-3.272V11.93c0-1.018.241-1.784.712-2.31.481-.514 1.182-.776 2.112-.776.92 0 1.62.262 2.09.777zM48.854 15.508c.175-.197.273-.526.273-.964 0-.448-.098-.777-.273-.974-.175-.207-.46-.306-.854-.306-.372 0-.646.099-.82.306-.176.197-.263.526-.263.974 0 .438.087.767.262.964.186.207.46.306.832.306.383 0 .668-.099.843-.306zm2.002-.953c0 1.773-.952 2.66-2.845 2.66-1.882 0-2.824-.887-2.824-2.66 0-1.554.712-2.44 2.145-2.637v-.449c0-.175-.043-.328-.142-.438-.087-.12-.252-.273-.492-.47-.143-.131-.252-.23-.329-.317-.076-.088-.13-.197-.186-.34-.043-.131-.065-.317-.065-.558v-.383h1.75v.186c0 .153.034.285.121.383.077.11.208.24.405.394.24.186.405.361.514.547.11.186.154.427.154.734v.777c1.192.295 1.794 1.149 1.794 2.571zM57.204 9.62c.481.525.711 1.291.711 2.309V13.8c0 1.237-.197 2.331-.59 3.283H55.65c.361-1.028.536-2.123.536-3.283v-1.86c0-.427-.033-.766-.098-.996-.066-.24-.176-.416-.329-.514-.164-.099-.372-.154-.656-.154-.274 0-.493.055-.646.154-.153.098-.274.273-.34.514-.065.23-.098.569-.098.996v1.85c0 1.148.175 2.243.547 3.293h-1.674c-.405-.974-.602-2.068-.602-3.272V11.93c0-1.018.24-1.784.711-2.31.471-.514 1.171-.776 2.102-.776.919 0 1.62.262 2.1.777zM59.513 8.963h1.73v5.57c0 .45.098.778.284.975.186.207.492.306.919.306.416 0 .722-.099.92-.296.185-.197.273-.525.273-.974 0-.197-.022-.36-.077-.525-.065-.153-.142-.35-.262-.58-.132-.263-.23-.503-.296-.7-.066-.197-.098-.438-.098-.7v-.165h1.729c.01.219.044.416.098.591.055.164.143.383.263.646.131.306.23.558.284.744.066.197.088.427.088.7 0 1.773-.974 2.66-2.922 2.66-1.959 0-2.933-.898-2.933-2.67V8.962zM71.65 9.62c.481.525.722 1.291.722 2.309V13.8c0 1.237-.197 2.331-.602 3.283h-1.674c.372-1.028.547-2.123.547-3.283v-1.86c0-.427-.033-.766-.098-.996-.066-.24-.187-.416-.34-.514-.153-.099-.372-.154-.645-.154-.285 0-.493.055-.657.154-.153.098-.263.273-.328.514-.066.23-.099.569-.099.996v1.85c0 1.148.175 2.243.536 3.293h-1.674c-.394-.974-.591-2.068-.591-3.272V11.93c0-1.018.23-1.784.711-2.31.47-.514 1.171-.776 2.102-.776.919 0 1.62.262 2.09.777zM80.142 16.066c.263-.296.394-.777.394-1.467 0-.7-.131-1.204-.394-1.5-.262-.284-.69-.437-1.27-.437-.568 0-.984.153-1.247.438-.262.295-.394.799-.394 1.5 0 .689.143 1.17.405 1.466.263.295.679.437 1.248.437.58 0 .996-.142 1.258-.437zm.777-3.229c.34.46.515 1.05.515 1.773 0 .843-.22 1.5-.668 1.97-.438.46-1.061.7-1.882.7-.47 0-.898-.109-1.292-.328-.383-.208-.69-.525-.919-.92-.219-.404-.328-.886-.328-1.422 0-.525.098-.985.295-1.379.197-.394.47-.7.821-.93.35-.23.744-.361 1.182-.394v-.7c0-.23-.055-.416-.153-.548-.099-.142-.252-.273-.449-.383-.208-.12-.361-.262-.46-.437-.098-.176-.153-.362-.153-.57v-.372h.898v.241c0 .153.032.285.11.383.076.11.207.208.393.329.23.142.416.306.525.503.12.186.175.449.175.755v.854c.591.12 1.051.416 1.39.875zM85.669 8.897v.329c0 .328.033.602.088.81.043.218.13.415.251.612.12.186.318.45.58.777.307.394.537.712.7.953.154.24.274.547.373.908.098.361.153.81.153 1.357 0 .547-.11 1.018-.328 1.423-.208.394-.515.69-.887.897-.383.208-.82.317-1.313.317-.755 0-1.368-.23-1.828-.689-.448-.46-.678-1.094-.678-1.904 0-.755.186-1.401.558-1.948l.722.262c-.12.23-.208.471-.284.723-.066.262-.11.58-.11.952 0 .667.132 1.138.383 1.412.252.284.668.415 1.237.415.58 0 .996-.142 1.248-.426.251-.285.383-.777.383-1.478 0-.449-.033-.81-.11-1.094-.065-.296-.175-.536-.295-.744-.132-.208-.34-.493-.613-.843-.296-.372-.515-.679-.657-.92-.153-.251-.262-.503-.328-.776-.077-.274-.11-.591-.11-.974v-.35h.865zM93.187 16.066c.274-.296.405-.777.405-1.467 0-.678-.142-1.17-.437-1.466-.285-.285-.7-.438-1.259-.438-.317 0-.602.055-.875.153-.285.099-.526.252-.734.438v1.313c0 .69.132 1.171.394 1.467.263.295.679.437 1.259.437.569 0 .985-.142 1.247-.437zm.088-3.853c.372.208.657.504.876.909.218.416.328.908.328 1.488 0 .876-.23 1.532-.679 1.992-.46.449-1.083.678-1.86.678-.766 0-1.38-.23-1.839-.667-.46-.449-.69-1.084-.69-1.915v-3.7c0-.634.209-1.148.625-1.532.405-.383.952-.569 1.63-.569h2.298v.8h-2.188c-.537 0-.92.109-1.15.317-.23.219-.339.569-.339 1.05v1.554c.208-.23.47-.405.777-.525.307-.12.646-.186.996-.186.449.01.854.11 1.215.306zM96.164 13.778l.8.186c-.143.35-.209.7-.209 1.051 0 .996.536 1.488 1.62 1.488.602 0 1.018-.13 1.258-.404.252-.274.373-.756.373-1.423 0-.668-.132-1.15-.394-1.467-.252-.317-.679-.481-1.259-.481h-.482v-.766h.624c.493 0 .832-.132 1.029-.383.186-.263.285-.602.285-1.03 0-.273-.044-.535-.132-.787-.098-.252-.23-.536-.427-.865h.854c.383.548.58 1.128.58 1.719 0 .437-.131.82-.372 1.149-.24.328-.635.525-1.171.602.624.065 1.062.317 1.346.755.274.448.405.985.405 1.598 0 .831-.219 1.466-.668 1.904-.437.438-1.061.656-1.85.656-.48 0-.918-.098-1.301-.284-.373-.175-.679-.438-.887-.777-.219-.34-.328-.744-.328-1.193 0-.482.11-.897.306-1.248zM106.813 9.51c.426.482.645 1.204.645 2.178v1.478c0 .842-.076 1.608-.208 2.287-.13.678-.317 1.247-.58 1.696h-.864c.525-.897.788-2.232.788-3.994v-1.412c0-.558-.055-.996-.153-1.303-.099-.317-.263-.536-.493-.667-.23-.131-.558-.197-.963-.197-.405 0-.722.066-.952.197-.23.131-.394.35-.504.667-.098.307-.153.745-.153 1.303v1.412c0 .82.088 1.586.241 2.298.153.7.34 1.27.558 1.696h-.897c-.208-.416-.394-.985-.547-1.707-.154-.733-.23-1.489-.23-2.276v-1.489c0-.974.219-1.696.645-2.178.427-.47 1.04-.711 1.839-.711.799 0 1.4.24 1.828.722zM10.353 11.557c.098.985.153 1.488-.646 2.33-.831.876-2.91 2.485-5.034 3.71-.897.526-2.112 1.15-3.031 1.478-.679.252-1.248.35-1.533-.142-.186-.317-.098-.613 0-.865.745-2.002 2.868-5.756 4.258-8.186.142-.251.295-.503.437-.766C6.95 5.428 9.784.908 10.342.186c.077-.11.23-.23.361-.153.11.065.11.197.099.295 0 .011-.033.143-.055.197-.908 3.732-.81 7.387-.394 11.032zM13.483 12.706c-.897-.416-1.368-.624-1.696-1.74-.34-1.15-.7-3.754-.7-6.216 0-1.03.065-2.386.229-3.35.131-.721.328-1.269.897-1.269.373 0 .58.23.756.438 1.368 1.642 3.534 5.363 4.957 7.792.142.24.285.493.438.755 2.123 3.7 4.618 8.416 4.968 9.259.055.12.088.306-.054.394-.11.055-.22-.011-.296-.066l-.142-.142c-2.78-2.66-5.986-4.4-9.357-5.855zM10.922 14.829c.81-.57 1.226-.865 2.353-.602 1.16.285 3.6 1.28 5.735 2.506.886.515 2.035 1.259 2.79 1.883.547.47.93.908.646 1.4-.186.318-.482.394-.755.438-2.112.361-6.424.383-9.226.405h-.875c-4.269-.01-9.598-.208-10.507-.328-.13-.011-.306-.077-.306-.241 0-.12.11-.197.197-.23.022 0 .153-.044.197-.055 3.688-1.072 6.807-2.976 9.751-5.176z"/>
    </g>
</svg>
