<svg xmlns="http://www.w3.org/2000/svg" width="24" height="24" viewBox="0 0 24 24">
    <g fill="none" fill-rule="evenodd">
        <g>
            <g>
                <g>
                    <g>
                        <path d="M0 0H24V24H0z" transform="translate(-454 -131) translate(0 103) translate(442 16) translate(12 12)"/>
                        <g fill="#3A3E56" fill-rule="nonzero">
                            <path d="M13.172 10.9c.457 0 .828.358.828.8 0 .405-.311.74-.715.793l-.113.007H4.828c-.457 0-.828-.358-.828-.8 0-.405.311-.74.715-.793l.113-.007h8.344zM15.172 5.9c.457 0 .828.358.828.8 0 .405-.311.74-.715.793l-.113.007H2.828C2.37 7.5 2 7.142 2 6.7c0-.405.311-.74.715-.793l.113-.007h12.344zM17.172.9c.457 0 .828.358.828.8 0 .405-.311.74-.715.793l-.113.007H.828C.37 2.5 0 2.142 0 1.7 0 1.295.311.96.715.907L.828.9h16.344z" transform="translate(-454 -131) translate(0 103) translate(442 16) translate(12 12) translate(3 5.5)"/>
                        </g>
                    </g>
                </g>
            </g>
        </g>
    </g>
</svg>
