<svg xmlns="http://www.w3.org/2000/svg" width="24" height="24" viewBox="0 0 24 24">
    <g fill="#3A3E56" fill-rule="evenodd">
        <path d="M5 2c.552 0 1 .448 1 1v8.618l1.586-1.532c.36-.36.928-.388 1.32-.083l.094.083c.36.36.388.928.083 1.32L9 11.5l-3.293 3.207c-.36.36-.928.388-1.32.083l-.094-.083-3.207-3.293c-.39-.39-.39-1.023 0-1.414.36-.36.928-.388 1.32-.083L2.5 10 4 11.551V3c0-.552.448-1 1-1zM13.207 13c.552 0 1-.448 1-1V3.382l1.586 1.532c.36.36.928.388 1.32.083l.094-.083c.36-.36.388-.928.083-1.32l-.083-.094L13.914.293c-.36-.36-.928-.388-1.32-.083L12.5.293 9.293 3.586c-.39.39-.39 1.023 0 1.414.36.36.928.388 1.32.083L10.707 5l1.5-1.551V12c0 .552.448 1 1 1z" transform="translate(3 5)"/>
    </g>
</svg>
