<svg xmlns="http://www.w3.org/2000/svg" width="36" height="36" viewBox="0 0 36 36">
    <g fill="none" fill-rule="evenodd">
        <path fill="#B6B9C7" d="M21.593 4.481C18.823 1.671 15.074.122 11.08.122 7.007.122 3.178 1.752.367 4.726c-.408.407-.367 1.06.04 1.426.204.204.449.285.693.285.285 0 .53-.122.733-.326C4.278 3.544 7.537 2.16 11.081 2.16c3.463 0 6.641 1.345 9.045 3.79.407.407 1.06.407 1.426 0 .448-.449.448-1.1.04-1.468z" transform="translate(7 10.5)"/>
        <path fill="#3A3E56" d="M11 12.874c.923 0 1.67.748 1.67 1.67 0 .923-.747 1.67-1.67 1.67-.923 0-1.67-.747-1.67-1.67 0-.922.747-1.67 1.67-1.67zm.081-4.237c1.834 0 3.504.693 4.726 1.996.408.367.367 1.019 0 1.426-.366.408-1.018.408-1.426 0-.855-.896-2.037-1.385-3.3-1.385-1.303 0-2.607.57-3.503 1.548-.204.204-.448.326-.734.326-.244 0-.488-.122-.692-.285-.408-.367-.408-1.019-.04-1.426 1.303-1.385 3.095-2.2 4.97-2.2zm0-4.481c2.893 0 5.582 1.1 7.66 3.177.366.367.407 1.019 0 1.426-.367.367-1.019.408-1.426 0-1.711-1.67-3.911-2.566-6.234-2.566-2.444 0-4.725.977-6.396 2.77-.204.204-.448.326-.733.326-.245 0-.489-.082-.693-.285-.407-.367-.407-1.019-.04-1.426 2.037-2.2 4.848-3.422 7.862-3.422z" transform="translate(7 10.5)"/>
    </g>
</svg>
