<svg xmlns="http://www.w3.org/2000/svg" width="48" height="48" viewBox="0 0 48 48">
    <g fill="#4563FF" fill-rule="evenodd">
        <path d="M5.4 1.267C2.508 1.267.147 3.54.007 6.397L0 6.667v10.666c0 2.892 2.273 5.253 5.13 5.394l.27.006h2.667c.773 0 1.4-.626 1.4-1.4 0-.721-.546-1.315-1.248-1.391l-.152-.009H5.4c-1.37 0-2.494-1.06-2.593-2.406l-.007-.194V6.667c0-1.371 1.06-2.494 2.406-2.593l.194-.007h2.667c.773 0 1.4-.627 1.4-1.4 0-.722-.546-1.316-1.248-1.392l-.152-.008H5.4z" transform="translate(13.333 12)"/>
        <path d="M25.333 12.333c0 .553-.447 1-1 1H13.887l3.056 3.058c.48.48.517 1.236.11 1.76l-.11.125c-.48.48-1.237.518-1.76.111l-.126-.11-5.333-5.334c-.48-.48-.518-1.237-.111-1.76l.11-.126 5.334-5.333c.52-.52 1.365-.52 1.886 0 .48.48.517 1.237.11 1.76l-.11.125-3.056 3.057h10.446c.553 0 1 .448 1 1v.667z" transform="translate(13.333 12)"/>
    </g>
</svg>
