<svg xmlns="http://www.w3.org/2000/svg" width="48" height="48" viewBox="0 0 48 48">
    <path fill="#3A3E56" fill-rule="evenodd" d="M39.432 8.75c2.035 0 3.71 1.612 3.813 3.622l.005.196v17.216c0 2.035-1.612 3.71-3.622 3.813l-.196.005h-2.248v2.248c0 1.969-1.51 3.602-3.429 3.798l-.193.015-.196.005H8.568c-2.035 0-3.71-1.612-3.813-3.622l-.005-.196V18.634c0-2.035 1.612-3.71 3.622-3.813l.196-.005 2.247-.001v-2.247c0-1.97 1.51-3.602 3.43-3.798l.193-.015.196-.005h24.798zm-4.443 16.645H6.944V35.85c0 .796.697 1.536 1.484 1.616l.14.007h24.798c.797 0 1.537-.696 1.616-1.483l.007-.14V25.395zM18.38 31.817c.446 0 .892.45.892.9s-.446.9-.892.9h-7.582c-.446 0-.803-.45-.803-.9s.357-.9.803-.9h7.582zm21.052-20.872H14.634c-.85 0-1.543.666-1.617 1.478l-.006.145-.001 2.247h20.356c2.035 0 3.71 1.613 3.813 3.623l.005.196v12.773h2.248c.807 0 1.458-.627 1.528-1.472l.006-.151V12.568c0-.864-.71-1.623-1.534-1.623zM18.38 28.338c.446 0 .892.379.892.853 0 .568-.446.947-.892.947h-7.582c-.446 0-.803-.379-.803-.947 0-.474.357-.853.803-.853h7.582zm14.986-11.327H8.568c-.827 0-1.54.644-1.616 1.474l-.007.149-.001 2.247h28.045v-2.247c0-.85-.666-1.543-1.478-1.617l-.145-.006z"/>
</svg>
