<svg xmlns="http://www.w3.org/2000/svg" width="36" height="36" viewBox="0 0 36 36">
    <g fill="none" fill-rule="evenodd">
        <path fill="#3A3E56" d="M15 11.9c1.16 0 2.1.94 2.1 2.1 0 1.16-.94 2.1-2.1 2.1-1.16 0-2.1-.94-2.1-2.1 0-1.16.94-2.1 2.1-2.1m0 9c2.97 0 6.1 1.46 6.1 2.1v1.1H8.9V23c0-.64 3.13-2.1 6.1-2.1M15 10c-2.21 0-4 1.79-4 4s1.79 4 4 4 4-1.79 4-4-1.79-4-4-4zm0 9c-2.67 0-8 1.34-8 4v3h16v-3c0-2.66-5.33-4-8-4z"/>
        <path stroke="#3A3E56" stroke-width="1.5" d="M19.75 20.81c.87.342 1.736.728 2.21 1.098.33.257.675.696 1.01 1.342h4.28l-.18-2.535c-.194-.23-.485-.42-.816-.585-1.006-.503-2.381-.755-3.254-.755-.851 0-1.904.08-2.64.448-.199.1-.373.218-.61.802v.185zM23 12.75c-.622 0-1.184.252-1.591.659-.407.407-.659.97-.659 1.591 0 .622.252 1.184.659 1.591.407.407.97.659 1.591.659.622 0 1.184-.252 1.591-.659.407-.407.659-.97.659-1.591 0-.622-.252-1.184-.659-1.591-.407-.407-.97-.659-1.591-.659z"/>
    </g>
</svg>
