<svg xmlns="http://www.w3.org/2000/svg" width="48" height="48" viewBox="0 0 48 48">
    <path fill="#4563FF" fill-rule="evenodd" d="M31 33.333c.552 0 1 .448 1 1V35c0 .552-.448 1-1 1H17c-.552 0-1-.448-1-1v-.667c0-.552.448-1 1-1h14zM24.333 12c.553 0 1 .448 1 1v11.78l3.058-3.056c.48-.48 1.236-.518 1.76-.111l.125.11c.48.482.518 1.238.111 1.76l-.11.126-5.334 5.334c-.48.48-1.237.517-1.76.11l-.126-.11-5.333-5.334c-.52-.52-.52-1.364 0-1.885.48-.48 1.237-.518 1.76-.111l.125.11 3.057 3.056V13c0-.552.448-1 1-1h.667z"/>
</svg>
