<svg xmlns="http://www.w3.org/2000/svg" width="49" height="48" viewBox="0 0 49 48">
    <path fill="#4563FF" fill-rule="evenodd" d="M18.704 12c-2.945 0-5.333 2.388-5.333 5.333v13.334c0 2.945 2.388 5.333 5.333 5.333h6.667c2.485 0 4.573-1.7 5.165-3.999L27.797 32v-.225c-.395.862-1.235 1.478-2.227 1.551l-.199.007h-6.667c-1.405 0-2.557-1.088-2.659-2.467l-.007-.2V17.334c0-1.472 1.194-2.666 2.666-2.666h6.667c1.077 0 2.005.638 2.426 1.558V16h2.74c-.593-2.3-2.68-4-5.166-4h-6.667zm1.334 16c-.737 0-1.334.597-1.334 1.333 0 .737.597 1.334 1.334 1.334h4c.736 0 1.333-.597 1.333-1.334 0-.736-.597-1.333-1.333-1.333h-4zm8.77-8.973c-.443.444-.477 1.142-.102 1.625l.103.116 1.963 1.899H20.193c-.68 0-1.23.55-1.23 1.23 0 .68.55 1.231 1.23 1.231h10.468l-1.852 1.794c-.444.443-.478 1.141-.103 1.624l.103.116c.444.444 1.142.478 1.624.103l.116-.103 4.053-3.947c.444-.444.478-1.142.103-1.625l-.103-.116-4.053-3.947c-.48-.48-1.26-.48-1.74 0zm-8.849-1.694c-.693 0-1.255.562-1.255 1.255 0 .693.562 1.255 1.255 1.255h5.49c.693 0 1.255-.562 1.255-1.255 0-.693-.562-1.255-1.255-1.255h-5.49z"/>
</svg>
