<svg xmlns="http://www.w3.org/2000/svg" width="49" height="48" viewBox="0 0 49 48">
    <path fill="#4563FF" fill-rule="evenodd" d="M34.704 21.267c-4.447 0-8.066 3.62-8.066 8.066 0 4.447 3.62 8.067 8.066 8.067 4.447 0 8.067-3.62 8.067-8.067s-3.62-8.066-8.067-8.066zM20.77 10.888c-.125-.237-.464-.304-.673-.1l-1.551 1.518-.18.16-.13.273-.002 1.922-.095-.023-.166.05-.327.129-.167.061-.19.087-.143.06-.276.126-.172.09-.247.137-.264.14-.185.109-.56.36-.315.234-.549.424-.467.431-.285.274-.264.276-.105.132-.07.073-.286.361-.076.091-.091.119-.07.084-.085.12-.155.244-.042.052-.181.274-.065.126-.164.26-.072.165-.038.052-.078.136-.083.166-.13.314-.108.222-.058.156-.06.129-.151.433-.098.317-.045.154-.042.164-.098.419-.028.143-.034.119-.056.348-.057.41-.052.582-.01.196-.004.23.003.534.006.185.036.469.048.443.074.453.16.714.06.19.034.136.123.4.099.274.106.263.164.388.077.155.046.108.07.136.063.111.05.108.13.238.267.445.057.087.075.101.022.043.166.243.085.112.037.057.216.275.207.244.079.1.13.141.061.076.206.21.083.089.179.172.09.082.076.074.4.357.111.079h-.734l-1.012-.077-.281.112-1.92 1.981-.062.084-.03.07c-.087.262.105.542.398.542h13.94c-.603-.847-1.085-1.785-1.424-2.79l-2.324-.001-.19-.003-.2-.022-.352-.029-.267-.054-.25-.044-.457-.1-.227-.055-.141-.041-.628-.22-.15-.062-.15-.075-.384-.177-.181-.097-.346-.201-.122-.078-.19-.109-.12-.09-.163-.103-.108-.08-.297-.237-.3-.255-.395-.377-.091-.11-.21-.22-.229-.273-.043-.011v-.001l.01-.009-.016-.006-.02-.063c-.022-.053-.052-.098-.084-.134l-.097-.107-.306-.456-.174-.293-.058-.115-.113-.203-.142-.325-.092-.193-.099-.237-.19-.58-.07-.247-.09-.433-.048-.214-.049-.432-.048-.573.004-.275.01-.142.006-.266.011-.172.01-.204.038-.292.026-.16.024-.191.097-.454.064-.244.036-.107.056-.203.167-.45.056-.131.076-.208.07-.143.05-.085.085-.173.136-.258.085-.145.09-.134.084-.146.37-.52.166-.221.136-.144.09-.109.048-.05.071-.068.1-.116.062-.049.37-.36.316-.273.3-.224.063-.035.276-.197.113-.07.116-.082.082-.043.221-.136.037-.01.138-.076.202-.1.106-.048.113-.063.04-.008.053-.023v2.133l-.075 5.192.014.104.031.078c.126.245.464.314.673.11l1.735-1.683.119-.263.008-6.41.427.046.176-.005.57-.003.362.022.278.028-.065 7.979.013.104.031.079c.126.244.464.313.673.11l1.406-1.362c.142-.23.294-.456.453-.674l.005-5.547.34.163.31.16.032.024.196.109.135.09.11.065.308.213.467.36.082.075.102.086.067.064.106.09.064.068.104.087.02.026.198.204.21.234.175.207.015.028.071.102.092.114.026.037c.75-.442 1.556-.797 2.408-1.05l-.092-.135-.064-.084-.04-.063-.178-.244-.193-.246-.019-.028-.394-.46-.084-.094-.35-.352-.375-.354-.1-.082-.083-.078-.11-.088-.053-.049-.288-.225-.3-.212-.086-.066-.185-.13-.476-.3-.284-.16-.403-.212-.543-.255-.253-.108-.579-.214-.155-.05.05-3.499-.013-.104-.031-.079c-.126-.244-.464-.312-.674-.11l-1.742 1.689-.119.263-.006 1.416-.007-.077-.261-.02-.387-.012-.57.005-.447.02-.077.012-.07.006v-.22l.075-2.794-.016-.115zm13.935 12.558c3.26 0 5.888 2.628 5.888 5.887 0 3.26-2.628 5.888-5.888 5.888s-5.887-2.628-5.887-5.888 2.628-5.887 5.887-5.887zm.765 1.445c-.497 0-.923.334-1.051.802l-.03.144-.009.143.068 3.186h-2.804c-.44 0-.828.263-1 .656l-.048.136-.032.155-.01.143c0 .498.335.923.802 1.051l.144.03.144.01h3.826c.497 0 .922-.336 1.05-.803l.03-.144.01-.144V25.98c0-.497-.335-.922-.803-1.05l-.144-.03-.143-.01z"/>
</svg>
