<svg xmlns="http://www.w3.org/2000/svg" width="36" height="36" viewBox="0 0 36 36">
    <g fill="#3A3E56" fill-rule="evenodd">
        <path d="M4.05.95C1.881.95.11 2.655.005 4.798L0 5v8c0 2.169 1.705 3.94 3.848 4.045l.202.005h2c.58 0 1.05-.47 1.05-1.05 0-.541-.41-.987-.936-1.044l-.114-.006h-2c-1.028 0-1.87-.795-1.945-1.804L2.1 13V5c0-1.028.795-1.87 1.804-1.945l.146-.005h2c.58 0 1.05-.47 1.05-1.05 0-.541-.41-.987-.936-1.044L6.05.95h-2z" transform="translate(10 9)"/>
        <path d="M19 9c0 .552-.448 1-1 1h-7.584l2.291 2.293c.36.36.388.928.083 1.32l-.083.094c-.36.36-.928.388-1.32.083l-.094-.083-4-4c-.36-.36-.388-.928-.083-1.32l.083-.094 4-4c.39-.39 1.024-.39 1.414 0 .36.36.388.928.083 1.32l-.083.094L10.416 8H18c.552 0 1 .448 1 1z" transform="translate(10 9)"/>
    </g>
</svg>
