<svg xmlns="http://www.w3.org/2000/svg" width="48" height="48" viewBox="0 0 48 48">
    <g>
        <path d="M43.665 5.26l-.143-.143c-.192-.19-.526-.478-1.052-.478h-33l-.144-.813C8.991 1.626 7.078 0 4.83 0H1.483C.67 0 .096.622.096 1.387s.621 1.387 1.387 1.387h3.395c.861 0 1.579.622 1.722 1.435l2.87 17.265c0 .143.047.287.095.383l.478 2.965c.43 2.63 2.774 4.591 5.405 4.591h22.191c.813 0 1.387-.622 1.387-1.387s-.622-1.387-1.387-1.387H15.4c-1.34 0-2.44-.956-2.63-2.2l-.287-1.578h25.826c.287.048.526.048.765-.096.335-.191.622-.526.717-.908L43.81 6.504c.191-.43.095-.86-.144-1.243zM40.748 7.51L37.4 20.135H12.052L9.996 7.509h30.752zM15.83 30.752c-2.582 0-4.687 2.105-4.687 4.687 0 2.583 2.105 4.687 4.687 4.687 2.583 0 4.687-2.104 4.687-4.687 0-2.582-2.104-4.687-4.687-4.687zm0 2.822c1.053 0 1.818.813 1.818 1.865 0 1.004-.861 1.865-1.865 1.865-1.005 0-1.818-.86-1.818-1.865 0-1.004.813-1.865 1.865-1.865zM31.326 30.752c-2.583 0-4.687 2.105-4.687 4.687 0 2.583 2.057 4.735 4.687 4.735 2.63 0 4.687-2.104 4.687-4.687s-2.104-4.735-4.687-4.735zm-.048 2.822c1.052 0 1.865.813 1.865 1.865 0 1.004-.86 1.865-1.865 1.865-1.004 0-1.865-.86-1.865-1.865-.048-1.004.813-1.865 1.865-1.865z" transform="translate(2 4)"/>
    </g>
</svg>
