<svg xmlns="http://www.w3.org/2000/svg" width="24" height="24" viewBox="0 0 24 24">
    <g fill="none" fill-rule="evenodd">
        <path d="M0 0H24V24H0z"/>
        <path fill="#3A3E56" d="M16.985 19.436V17.87h-4.558c-1.017 0-1.903-.244-2.66-.733-.756-.488-1.331-1.15-1.726-1.987-.395-.837-.592-1.77-.592-2.8 0-1.392.204-2.543.612-3.454.408-.91 1.094-1.552 2.058-1.927v5.38h1.104V6.71c.24-.04.502-.061.783-.061.294 0 .569.027.823.08v5.621h1.104v-5.4c.964.375 1.65 1.02 2.058 1.937.408.917.612 2.072.612 3.463h1.907c0-1.097-.184-2.114-.552-3.051-.368-.937-.896-1.737-1.586-2.399-.689-.662-1.502-1.134-2.439-1.415V3.436H12.83v1.827c-.348-.027-.622-.04-.823-.04-.2 0-.462.013-.783.04V3.436h-1.104v2.048c-.924.267-1.73.74-2.42 1.415-.689.676-1.217 1.465-1.585 2.369-.368.903-.552 1.83-.552 2.78 0 .777.12 1.55.361 2.319.241.77.602 1.462 1.084 2.078.482.615 1.07 1.084 1.767 1.405v.08H6.586v1.506h10.399z"/>
    </g>
</svg>
