<svg xmlns="http://www.w3.org/2000/svg" width="48" height="48" viewBox="0 0 48 48">
    <path fill="#26D4A3" class="fill-change" fill-rule="evenodd" d="M34.13 39.792c.602 0 1.09.488 1.09 1.09 0 .562-.425 1.024-.97 1.084l-.12.006H13.486c-.602 0-1.09-.488-1.09-1.09 0-.562.425-1.024.97-1.083l.12-.007H34.13zm4.497-4.043c.601 0 1.09.488 1.09 1.09 0 .561-.426 1.024-.972 1.083l-.118.006H9.047c-.601 0-1.09-.488-1.09-1.09 0-.561.426-1.024.972-1.083l.119-.006h29.579zM40.637 11c1.07 0 1.95.828 2.031 1.877l.006.16v18.811c0 1.07-.828 1.95-1.877 2.03l-.16.007h-33.6c-1.07 0-1.95-.828-2.03-1.878L5 31.848V13.036c0-1.07.828-1.949 1.877-2.03l.16-.006h33.6zm-.143 2.179H7.18v18.526h33.315V13.179zm-2.033 15.192c.602 0 1.09.489 1.09 1.09 0 .562-.425 1.025-.97 1.084l-.12.006h-4.143c-.602 0-1.09-.488-1.09-1.09 0-.561.426-1.024.972-1.083l.118-.007h4.143zm-15.72-11.865l.008.075.001 1.189.068-.003.266-.002.131.003.012-.496.09-.174.792-.766c.205-.2.543-.086.598.176l.008.075v1.479l.21.078.12.051.251.118.189.1.136.076.223.141.09.063.033.026.143.101.14.11.017.016.058.048.03.029.054.044.174.165.165.165.04.046.193.227.09.117.176.245.042.07.03.046.1.168.073.13.058.116.033.062.124.282.012.036.04.1.107.325.037.136.043.171.018.079.03.18.005.1-.02.08-.086.15-.726.708c-.201.196-.534.09-.596-.166l-.01-.074-.003-.094-.015-.224-.028-.233-.014-.083-.048-.216-.02-.077-.077-.243-.029-.063-.03-.082-.09-.196-.03-.052-.014-.034-.032-.052-.049-.093-.108-.165-.1-.138-.047-.06-.04-.06-.066-.078-.092-.102-.098-.101-.048-.042-.019-.02-.053-.047-.024-.023-.051-.044-.029-.027-.202-.156-.13-.09-.057-.034-.05-.034-.106-.06.006.002-.056-.03-.014 2.36-.09.172-.79.765c-.206.199-.543.086-.598-.176l-.008-.076-.002-3.474-.093-.005-.37.005-.015 2.787-.09.173-.788.764c-.206.2-.544.086-.599-.176l-.007-.075-.001-3.048-.136.08-.019.008-.061.043-.043.026-.14.098-.01.004-.128.095-.134.115-.18.175-.008.002-.056.064-.041.04-.048.057-.05.052-.073.096-.16.223-.043.076-.036.053-.035.06-.06.111-.043.09-.043.077-.131.346-.029.1-.013.037-.027.104-.042.192-.039.28-.009.166-.01.295.022.253.019.178.023.1.037.185.03.106.082.251.041.1.044.092.058.135.075.14.075.125.123.188.046.05.04.052.028.056.1.113.104.108.028.036.173.165.132.113.169.133.084.054.039.03.092.053.05.032.225.129.18.082.056.03.06.024.276.097.156.04.202.045.22.043.164.013.075.01 4.186.002c.286 0 .447.31.305.536l-.046.06-.924.936-.192.064h-7.872c-.285 0-.447-.31-.304-.537l.046-.059.927-.936.191-.064.318-.001-.172-.177-.022-.027-.068-.075-.031-.04-.098-.116-.106-.136-.01-.016-.044-.058-.085-.126-.065-.097-.126-.208-.064-.118-.015-.036-.033-.057-.036-.073-.017-.04-.04-.08-.125-.303-.048-.132-.058-.19-.013-.053-.03-.098-.075-.334-.034-.213-.023-.209-.016-.22-.003-.088-.002-.246.002-.11.005-.095.025-.273.026-.19.03-.176.012-.041.014-.07.066-.274.067-.222.075-.211.022-.047.031-.082.029-.063.017-.032.065-.154.041-.082.044-.076.045-.09.068-.107.037-.07.093-.14.008-.008.075-.117.047-.066.245-.306.021-.02.058-.072.125-.13.132-.128.223-.204.251-.195.153-.112.26-.167.09-.052.117-.063.115-.064.086-.045.13-.06.06-.024.099-.044.072-.027.164-.065.013-.792.1-.18.076-.067.704-.69c.205-.2.544-.087.6.176zm-9.251-2.249c.602 0 1.09.488 1.09 1.09 0 .562-.425 1.024-.971 1.084l-.119.006H9.347c-.602 0-1.09-.488-1.09-1.09 0-.562.425-1.024.971-1.083l.119-.007h4.143z"/>
</svg>
