<svg xmlns="http://www.w3.org/2000/svg" width="24" height="24" viewBox="0 0 24 24">
    <g fill="none" fill-rule="evenodd">
        <path d="M0 0H24V24H0z"/>
        <path fill="#3A3E56" d="M6.929 6.929c-2.343 2.343-2.343 6.142 0 8.485 2.103 2.103 5.38 2.319 7.723.646.016.02.035.041.055.061l2.829 2.829c.39.39 1.023.39 1.414 0 .39-.39.39-1.024 0-1.414l-2.829-2.829-.06-.055c1.672-2.344 1.456-5.62-.647-7.723-2.343-2.343-6.142-2.343-8.485 0zM8.13 8.13c1.68-1.68 4.402-1.68 6.081 0 1.68 1.68 1.68 4.402 0 6.081-1.68 1.68-4.402 1.68-6.081 0-1.68-1.68-1.68-4.402 0-6.081z"/>
    </g>
</svg>
