<svg xmlns="http://www.w3.org/2000/svg" width="49" height="48" viewBox="0 0 49 48">
    <path fill="#4563FF" fill-rule="evenodd" d="M20.769 10.888l.03.076.016.115-.076 2.794v.22l.071-.006.077-.013.447-.019.57-.005.387.012.261.02.006.077h.001l.006-1.416.119-.263 1.742-1.689c.21-.202.548-.134.674.11l.03.079.014.104-.05 3.499.155.05.579.214.253.108.543.255.403.212.284.16.476.3.185.13.085.066.3.212.29.225.052.049.11.088.083.078.1.082.375.354.35.352.084.094.394.46.019.028.193.246.177.244.041.063.064.084.15.224.036.064.06.09.104.174.045.082.065.106.152.27.137.274.024.093c.012.04.032.087.06.139.216.394-1.393 2.212-1.86 2.092l-.049-.023-.044-.07-.116-.369-.052-.109-.077-.202-.139-.31-.074-.153-.051-.091-.052-.11-.058-.093-.123-.231-.09-.14-.112-.162-.048-.077-.23-.32-.092-.114-.071-.102-.015-.028-.174-.207-.211-.234-.198-.204-.02-.026-.104-.087-.064-.067-.106-.091-.067-.064-.102-.086-.082-.076-.467-.359-.308-.213-.11-.065-.135-.09-.196-.109-.032-.024-.31-.16-.34-.163-.005 5.635-.119.264-1.74 1.684c-.209.203-.547.134-.673-.11l-.03-.079-.014-.104.065-7.979-.278-.028-.362-.022-.57.003-.176.005-.427-.047-.008 6.41-.119.264-1.735 1.684c-.209.203-.547.134-.673-.11l-.031-.08-.014-.103.075-5.192v-2.133l-.054.023-.04.008-.112.063-.106.048-.202.1-.138.076-.037.01-.22.136-.083.043-.116.082-.113.07-.276.197-.064.035-.299.224-.316.274-.37.359-.062.049-.1.116-.071.069-.049.05-.09.108-.135.144-.167.22-.369.521-.084.146-.09.134-.085.145-.136.258-.085.173-.05.085-.07.143-.076.208-.056.13-.167.451-.056.203-.036.107-.064.244-.097.454-.024.19-.026.161-.038.292-.01.204-.011.172-.007.266-.009.142-.004.275.048.573.049.432.048.214.09.433.07.247.19.58.099.237.092.193.142.325.113.203.058.115.174.293.306.456.097.107c.032.036.062.081.084.134l.02.063.016.006-.01.009.043.012.228.273.211.22.09.11.396.377.3.255.297.237.108.08.163.103.12.09.19.11.122.077.346.201.181.097.384.177.15.075.15.062.628.22.141.04.227.056.458.1.25.044.266.054.352.029.2.022.19.003 9.038.002c.293 0 .485.28.4.542l-.031.07-.062.084-1.914 1.98-.281.113H11.124c-.293 0-.485-.28-.399-.542l.03-.07.063-.084 1.92-1.98.28-.113 1.013.077h.734l-.11-.08-.401-.356-.075-.074-.091-.082-.18-.172-.082-.09-.206-.21-.062-.075-.13-.14-.078-.101-.207-.244-.216-.275-.037-.057-.085-.112-.166-.243-.022-.043-.075-.101-.057-.087-.268-.445-.13-.238-.049-.108-.064-.111-.07-.136-.045-.108-.077-.155-.164-.388-.106-.263-.1-.274-.122-.4-.035-.136-.059-.19-.16-.714-.074-.453-.048-.443-.036-.47-.006-.184-.003-.534.003-.23.011-.196.052-.583.057-.409.056-.348.034-.12.028-.142.098-.419.042-.164.045-.154.098-.317.15-.433.06-.13.06-.155.106-.222.13-.314.084-.166.078-.136.038-.052.072-.164.164-.26.065-.127.18-.274.043-.052.155-.244.085-.12.07-.084.09-.119.077-.09.285-.362.07-.073.106-.132.264-.276.285-.274.467-.43.549-.425.316-.234.559-.36.185-.108.264-.14.247-.138.172-.09.276-.126.143-.06.19-.087.167-.061.327-.13.166-.049.095.023.002-1.922.13-.274.18-.16 1.55-1.517c.21-.204.55-.137.674.1zm11.66 10.836c.52-.52 1.364-.52 1.885 0l5.333 5.333.111.126c.407.523.37 1.28-.11 1.76l-5.334 5.333-.126.111c-.523.407-1.28.37-1.76-.11l-.11-.126c-.407-.524-.37-1.28.11-1.76l3.055-3.058h-7.779c-.552 0-1-.447-1-1v-.666c0-.553.448-1 1-1h7.78l-3.056-3.058-.11-.125c-.407-.523-.37-1.28.11-1.76z"/>
</svg>
