<svg xmlns="http://www.w3.org/2000/svg" width="48" height="48" viewBox="0 0 48 48">
    <g fill="#3A3E56">
        <path d="M12.205 22.183c0 .99.748 1.758 2.243 2.302v14.673c0 .829.663 1.5 1.478 1.5.817 0 1.479-.671 1.479-1.5C18.31 13.053 17.817 0 15.926 0c-2.836 0-3.721 20.696-3.721 22.183zM8.41.149c-.388 0-.703.32-.702.714v12.323H6.652V.862c0-.394-.316-.714-.704-.714-.388 0-.704.32-.704.714v12.323H4.19V.863C4.188.469 3.873.149 3.485.15c-.39 0-.703.32-.704.713v12.323H1.725V.863c0-.394-.315-.714-.703-.714-.39 0-.704.32-.704.714v13.59c0 .398.058.78.157 1.145.378 1.386 1.422 2.489 2.764 2.93v20.63c0 .83.662 1.5 1.478 1.5s1.478-.67 1.477-1.5l.001-20.63c1.341-.44 2.385-1.544 2.764-2.93.1-.365.156-.748.157-1.144V.863C9.114.469 8.799.149 8.41.149z" transform="translate(15 4)"/>
    </g>
</svg>
