<svg xmlns="http://www.w3.org/2000/svg" width="48" height="48" viewBox="0 0 48 48">
    <g fill="#4563FF" fill-rule="evenodd">
        <path d="M5.943 2.667c.552 0 1 .447 1 1l-.001 11.825 2.115-2.044c.48-.48 1.237-.518 1.76-.111l.126.11c.48.481.517 1.238.11 1.76l-.11.126-4.39 4.276c-.481.481-1.238.518-1.76.111l-.126-.11L.39 15.218c-.521-.52-.521-1.365 0-1.886.48-.48 1.236-.517 1.76-.11l.125.11 2 2.068V3.667c0-.553.448-1 1-1h.667zM16.61 17.333c.552 0 1-.447 1-1l-.001-11.825 2.115 2.044c.48.48 1.237.518 1.76.111l.125-.11c.481-.481.518-1.238.111-1.76l-.11-.126L17.218.39c-.48-.481-1.237-.518-1.76-.111l-.126.11-4.276 4.391c-.52.52-.52 1.365 0 1.886.48.48 1.237.517 1.76.11l.126-.11 2-2.068v11.734c0 .553.448 1 1 1h.666z" transform="translate(12 14.667)"/>
    </g>
</svg>
