<svg xmlns="http://www.w3.org/2000/svg" width="48" height="48" viewBox="0 0 48 48">
    <g fill="none" fill-rule="evenodd">
        <path d="M0 0H48V48H0z"/>
        <path fill="#3A3E56" fill-rule="nonzero" d="M35.625 14c1.657 0 3 1.343 3 3v14c0 1.657-1.343 3-3 3H17.418c-.846 0-1.654-.358-2.222-.985l-6.345-7c-1.036-1.144-1.036-2.886 0-4.03l6.345-7c.568-.627 1.376-.985 2.222-.985zm0 2H17.418c-.282 0-.55.12-.74.328l-6.345 7c-.345.382-.345.962 0 1.344l6.344 7c.19.209.46.328.741.328h18.207c.552 0 1-.448 1-1V17c0-.552-.448-1-1-1zm-14.114 3.14l.102.07.094.083L25 22.585l3.293-3.292c.39-.39 1.024-.39 1.414 0 .36.36.388.928.083 1.32l-.083.094L26.415 24l3.292 3.293c.39.39.39 1.024 0 1.414-.36.36-.928.388-1.32.083l-.094-.083L25 25.415l-3.293 3.292c-.39.39-1.024.39-1.414 0-.36-.36-.388-.928-.083-1.32l.083-.094L23.585 24l-3.292-3.293c-.39-.39-.39-1.024 0-1.414.33-.33.835-.381 1.218-.153z"/>
    </g>
</svg>
