<svg xmlns="http://www.w3.org/2000/svg" width="48" height="48" viewBox="0 0 48 48">
    <path fill="#E21331" fill-rule="evenodd" d="M18.282 15.324c.55.634.484 1.594-.15 2.145-.317.276-.615.574-.893.894-3.246 3.734-2.85 9.393.884 12.639 3.734 3.246 9.392 2.85 12.638-.884 3.246-3.734 2.85-9.393-.884-12.639-.633-.55-.7-1.511-.15-2.145.551-.634 1.512-.7 2.146-.15 5.001 4.348 5.531 11.927 1.183 16.93-4.348 5-11.927 5.53-16.929 1.183-5.001-4.348-5.531-11.927-1.183-16.93.37-.426.77-.825 1.193-1.193.634-.55 1.594-.484 2.145.15zm5.882-4.657c.763 0 1.39.577 1.471 1.318l.009.161v9.205c0 .763-.577 1.39-1.318 1.471l-.162.009h-.328c-.763 0-1.39-.577-1.471-1.318l-.009-.162v-9.205c0-.762.577-1.39 1.318-1.47l.162-.01h.328z"/>
</svg>
