<svg xmlns="http://www.w3.org/2000/svg" width="48" height="48" viewBox="0 0 48 48">
    <g fill="none" fill-rule="evenodd">
        <path d="M0 0H48V48H0z"/>
        <path fill="#FFF" d="M24 4c11.046 0 20 8.954 20 20s-8.954 20-20 20S4 35.046 4 24 12.954 4 24 4zm0 2.5C14.335 6.5 6.5 14.335 6.5 24S14.335 41.5 24 41.5 41.5 33.665 41.5 24 33.665 6.5 24 6.5zm0 9c.828 0 1.5.672 1.5 1.5v5.5H31c.828 0 1.5.672 1.5 1.5s-.672 1.5-1.5 1.5h-5.5V31c0 .828-.672 1.5-1.5 1.5s-1.5-.672-1.5-1.5v-5.5H17c-.828 0-1.5-.672-1.5-1.5s.672-1.5 1.5-1.5h5.5V17c0-.828.672-1.5 1.5-1.5z"/>
    </g>
</svg>
