<svg xmlns="http://www.w3.org/2000/svg" width="24" height="24" viewBox="0 0 24 24">
    <defs>
        <filter id="deau397hta">
            <feColorMatrix in="SourceGraphic" values="0 0 0 0 0.227451 0 0 0 0 0.243137 0 0 0 0 0.337255 0 0 0 1.000000 0"/>
        </filter>
    </defs>
    <g fill="none" fill-rule="evenodd">
        <g>
            <g>
                <g>
                    <g>
                        <g   transform="translate(-669 -850) translate(556 134) translate(0 54) translate(1 653) translate(112 9)">
                            <g fill="#3a3e56">
                                <path d="M6 12c-.497 0-.9-.403-.9-.9V.9c0-.497.403-.9.9-.9s.9.403.9.9v10.2c0 .497-.403.9-.9.9z" transform="translate(6 6) rotate(180 6 6)"/>
                                <path d="M6 12c-.497 0-.9-.403-.9-.9V.9c0-.497.403-.9.9-.9s.9.403.9.9v10.2c0 .497-.403.9-.9.9z" transform="translate(6 6) rotate(90 6 6)"/>
                            </g>
                        </g>
                    </g>
                </g>
            </g>
        </g>
    </g>
</svg>
