<svg xmlns="http://www.w3.org/2000/svg" width="27" height="24" viewBox="0 0 27 24">
    <g fill="#FC3C2D" fill-rule="nonzero" stroke="#FC3C2D">
        <path stroke-width=".56" d="M13.612 16.797c.638 0 1.155.518 1.155 1.158a1.157 1.157 0 1 1-1.155-1.158"/>
        <path stroke-width="1.16" d="M13.566 14.95a.637.637 0 0 0 .637-.638V8.254a.637.637 0 1 0-1.273 0v6.058c0 .352.285.638.636.638"/>
        <path stroke-width="1.16" d="M23.78 21.524H3.21c-.608-.008-.958-.707-.649-1.231l9.71-16.45c.494-.793.818-1.264 1.23-1.264.402 0 .782.596 1.224 1.277l9.717 16.434c.31.525-.04 1.226-.649 1.234h-.014zm-7.958-18.31l-.03-.044c-.589-.91-1.198-1.851-2.29-1.851-1.14 0-1.735.954-2.311 1.878l-.024.038L1.09 20.345c-.059.098-.089.15-.089.263 0 1.242.998 2.191 2.224 2.191H23.78c1.227 0 2.224-.95 2.224-2.191a.536.536 0 0 0-.088-.294l-10.093-17.1z"/>
    </g>
</svg>
