<svg xmlns="http://www.w3.org/2000/svg" width="17" height="17" viewBox="0 0 17 17">
    <g fill="none" fill-rule="evenodd" transform="translate(.5 .6)">
        <circle cx="8" cy="8" r="8" fill="#07F"/>
        <path fill="#FFF" fill-rule="nonzero" stroke="#FFF" stroke-width=".5" d="M7.919 8.3a.384.384 0 0 1 .533 0l2.275 2.215a.48.48 0 0 1 0 .69L8.452 13.42a.384.384 0 0 1-.533 0 .36.36 0 0 1 0-.519l1.72-1.674H.926l-.272-.733H9.64L7.919 8.819a.36.36 0 0 1 0-.519zm-.72-5.793c.15.144.15.376 0 .519L5.45 4.7h9.79l.298.734H5.448l1.766 1.689a.356.356 0 0 1-.47.532l-.013-.011L4.35 5.413a.474.474 0 0 1-.007-.692l2.315-2.214a.396.396 0 0 1 .542 0z"/>
    </g>
</svg>
