<svg height="512pt" viewBox="0 -85 512.016 512" width="512pt" xmlns="http://www.w3.org/2000/svg">
<style>*{fill:#969ab2}"</style>
<path d="m453.347656 341.339844h-293.332031c-4.4375 0-8.683594-1.832032-11.710937-5.097656l-144-154.667969c-5.738282-6.140625-5.738282-15.65625 0-21.800781l144-154.667969c3.027343-3.261719 7.273437-5.0976565 11.710937-5.0976565h293.332031c32.363282 0 58.667969 26.3046875 58.667969 58.6679685v224c0 32.363281-26.304687 58.664063-58.667969 58.664063zm-286.378906-32h286.378906c14.699219 0 26.667969-11.964844 26.667969-26.664063v-224c0-14.699219-11.96875-26.667969-26.667969-26.667969h-286.378906l-129.105469 138.667969zm0 0"/><path d="m400.015625 261.339844c-4.289063 0-8.554687-1.726563-11.734375-5.117188l-138.664062-149.335937c-5.996094-6.460938-5.632813-16.597657.832031-22.613281 6.484375-5.992188 16.574219-5.652344 22.632812.855468l138.667969 149.332032c5.992188 6.464843 5.632812 16.597656-.832031 22.613281-3.09375 2.859375-6.996094 4.265625-10.902344 4.265625zm0 0"/><path d="m261.347656 261.339844c-3.902344 0-7.804687-1.40625-10.898437-4.265625-6.464844-6.015625-6.828125-16.148438-.832031-22.613281l138.664062-149.332032c6.039062-6.484375 16.152344-6.847656 22.636719-.855468 6.464843 6.015624 6.824219 16.152343.832031 22.613281l-138.667969 149.335937c-3.179687 3.390625-7.445312 5.117188-11.734375 5.117188zm0 0"/></svg>