<svg xmlns="http://www.w3.org/2000/svg" width="24" height="24" viewBox="0 0 24 24">
    <path fill="#2B2B2B" fill-rule="nonzero" d="M15.82 20.263V8.003c0-.592-.48-1.072-1.073-1.072H5.59c-.592 0-1.072.48-1.072 1.072v12.26l5.21-3.721a.759.759 0 0 1 .882 0l5.21 3.721zm-5.651-2.17L4.2 22.355a.759.759 0 0 1-1.2-.618V8.003a2.59 2.59 0 0 1 2.59-2.59h9.157a2.59 2.59 0 0 1 2.59 2.59v13.735a.759.759 0 0 1-1.2.618l-5.968-4.264zM8.337 3.267a.759.759 0 0 1 0-1.518H18.41A2.59 2.59 0 0 1 21 4.34v14.651a.759.759 0 0 1-1.518 0V4.341c0-.593-.48-1.073-1.072-1.073H8.337z"/>
</svg>
