<svg xmlns="http://www.w3.org/2000/svg" width="24" height="25" viewBox="0 0 24 25">
    <g fill="none" fill-rule="evenodd">
        <path d="M0.01 0L24.01 0 24.01 24 0.01 24z"/>
        <path fill="#495057" stroke="#495057" stroke-width=".56" d="M8.373 4.149L9.629 3v2.484c.319-.04.644-.059.977-.059.312 0 .621.02.927.059V4.149L12.789 3v2.74c.166.052.332.11.498.176.844.32 1.6.764 2.268 1.33a7.558 7.558 0 011.67 2.008c.445.772-.916.975-1.192.51a6.241 6.241 0 00-2.277-2.238 6.804 6.804 0 00-.967-.452v4.634l-1.256 1.287V6.74a6.115 6.115 0 00-1.904-.01v4.977l-1.256 1.287v-5.94A6.2 6.2 0 006.08 8.503a6.362 6.362 0 00-.992 1.271 6.177 6.177 0 00-.862 3.171 6.266 6.266 0 001.854 4.452 6.349 6.349 0 004.087 1.84l6.758.002-1.216 1.197H3l1.216-1.197H6.47a7.716 7.716 0 01-1.246-.982 7.467 7.467 0 01-1.949-3.28A7.17 7.17 0 013 12.986c0-.694.091-1.363.274-2.008a7.603 7.603 0 013.494-4.521 7.803 7.803 0 011.605-.697v-1.61z"/>
        <path fill="#495057" d="M18.695 17.572L19.855 18.733 23.972 14.617 19.855 10.5 18.695 11.661 20.819 13.793 14 13.793 14 15.44 20.819 15.44z"/>
    </g>
</svg>
