<svg xmlns="http://www.w3.org/2000/svg" width="48" height="48" viewBox="0 0 48 48">
    <g fill="none" fill-rule="evenodd">
        <rect width="47" height="47" x=".5" y=".5" stroke="#DAE1ED" rx="2"/>
        <path fill="#495057" fill-rule="nonzero" d="M31.532 16.468a1.598 1.598 0 0 0-2.26 0L24.01 21.73l-5.262-5.262a1.598 1.598 0 0 0-2.26 2.26l5.262 5.262-5.262 5.262a1.598 1.598 0 1 0 2.26 2.26l5.262-5.262 5.262 5.262a1.598 1.598 0 0 0 2.26-2.26L26.27 23.99l5.262-5.262a1.598 1.598 0 0 0 0-2.26z"/>
    </g>
</svg>
