<svg xmlns="http://www.w3.org/2000/svg" xmlns:xlink="http://www.w3.org/1999/xlink" width="12" height="12" viewBox="0 0 12 12">
    <defs>
        <path id="a" d="M15 6.705a.996.996 0 0 0-1.41 0L9 11.295a.996.996 0 0 0 0 1.41l4.59 4.59a.996.996 0 1 0 1.41-1.41l-3.88-3.89L15 8.115c.39-.39.38-1.03 0-1.41z"/>
        <path id="c" d="M15 6.705a.996.996 0 0 0-1.41 0L9 11.295a.996.996 0 0 0 0 1.41l4.59 4.59a.996.996 0 1 0 1.41-1.41l-3.88-3.89L15 8.115c.39-.39.38-1.03 0-1.41z"/>
    </defs>
    <g fill="none" fill-rule="evenodd">
        <g transform="matrix(-1 0 0 1 16 -6)">
            <mask id="b" fill="#fff">
                <use xlink:href="#a"/>
            </mask>
            <g fill="#FFF" mask="url(#b)">
                <path d="M0 0h24v24H0z"/>
            </g>
        </g>
        <g transform="matrix(-1 0 0 1 20 -6)">
            <mask id="d" fill="#fff">
                <use xlink:href="#c"/>
            </mask>
            <g fill="#FFF" mask="url(#d)">
                <path d="M0 0h24v24H0z"/>
            </g>
        </g>
    </g>
</svg>
