<?xml version="1.0" encoding="UTF-8"?>
<svg width="72px" height="72px" viewBox="0 0 72 72" version="1.1" xmlns="http://www.w3.org/2000/svg" xmlns:xlink="http://www.w3.org/1999/xlink">
    <!-- Generator: Sketch 57.1 (83088) - https://sketch.com -->
    <title>Group 3</title>
    <desc>Created with Sketch.</desc>
    <defs>
        <circle id="path-1" cx="36" cy="36" r="36"></circle>
        <path d="M19.3841996,3.08871698 C19.9544154,2.51850121 19.9603181,1.59990148 19.3885417,1.028125 L19.3885417,1.028125 C18.820724,0.460307241 17.898768,0.461648717 17.3279496,1.03246699 L10.2083333,8.15208333 L3.08871698,1.03246699 C2.51850121,0.462251215 1.59990148,0.456348521 1.028125,1.028125 L1.028125,1.028125 C0.460307241,1.59594276 0.461648717,2.51789872 1.03246699,3.08871698 L8.15208333,10.2083333 L1.03246699,17.3279496 C0.462251215,17.8981654 0.456348521,18.8167652 1.028125,19.3885417 L1.028125,19.3885417 C1.59594276,19.9563594 2.51789872,19.955018 3.08871698,19.3841996 L10.2083333,12.2645833 L17.3279496,19.3841996 C17.8981654,19.9544154 18.8167652,19.9603181 19.3885417,19.3885417 L19.3885417,19.3885417 C19.9563594,18.820724 19.955018,17.898768 19.3841996,17.3279496 L12.2645833,10.2083333 L19.3841996,3.08871698 Z" id="path-3"></path>
    </defs>
    <g id="POS---Style-V6---Header&amp;Collapse" stroke="none" stroke-width="1" fill="none" fill-rule="evenodd">
        <g id="POS---სინქრონიზაცია-03-Copy" transform="translate(-765.000000, -487.000000)">
            <g id="Group-5-Copy-2" transform="translate(541.000000, 431.000000)">
                <g id="Group-4">
                    <g id="Group" transform="translate(70.000000, 56.000000)">
                        <g id="Group-3" transform="translate(154.000000, 0.000000)">
                            <g id="Rectangle-3">
                                <mask id="mask-2" fill="white">
                                    <use xlink:href="#path-1"></use>
                                </mask>
                                <circle stroke="#FC3C2D" stroke-width="2.16" cx="36" cy="36" r="34.92"></circle>
                            </g>
                            <g id="Icon/Close" transform="translate(19.000000, 19.000000)">
                                <g id="ic_close">
                                    <g id="Icon-24px">
                                        <polygon id="Shape" points="0 0 35 0 35 35 0 35"></polygon>
                                    </g>
                                </g>
                                <g id="Icons" transform="translate(7.291667, 7.291667)">
                                    <g id="Mask" fill="#000000" fill-rule="nonzero">
                                        <path d="M19.3841996,3.08871698 C19.9544154,2.51850121 19.9603181,1.59990148 19.3885417,1.028125 C18.820724,0.460307241 17.898768,0.461648717 17.3279496,1.03246699 L10.2083333,8.15208333 L3.08871698,1.03246699 C2.51850121,0.462251215 1.59990148,0.456348521 1.028125,1.028125 C0.460307241,1.59594276 0.461648717,2.51789872 1.03246699,3.08871698 L8.15208333,10.2083333 L1.03246699,17.3279496 C0.462251215,17.8981654 0.456348521,18.8167652 1.028125,19.3885417 C1.59594276,19.9563594 2.51789872,19.955018 3.08871698,19.3841996 L10.2083333,12.2645833 L17.3279496,19.3841996 C17.8981654,19.9544154 18.8167652,19.9603181 19.3885417,19.3885417 C19.9563594,18.820724 19.955018,17.898768 19.3841996,17.3279496 L12.2645833,10.2083333 L19.3841996,3.08871698 Z" id="path-1"></path>
                                    </g>
                                    <g id="Color/White-Clipped">
                                        <mask id="mask-4" fill="white">
                                            <use xlink:href="#path-3"></use>
                                        </mask>
                                        <use id="path-1" fill="#FC3C2D" xlink:href="#path-3"></use>
                                    </g>
                                </g>
                            </g>
                        </g>
                    </g>
                </g>
            </g>
        </g>
    </g>
</svg>