<svg xmlns="http://www.w3.org/2000/svg" xmlns:xlink="http://www.w3.org/1999/xlink" width="72" height="72" viewBox="0 0 72 72">
    <defs>
        <path id="a" d="M38 12.8L35.2 10 24 21.2 12.8 10 10 12.8 21.2 24 10 35.2l2.8 2.8L24 26.8 35.2 38l2.8-2.8L26.8 24z"/>
    </defs>
    <g fill="none" fill-rule="evenodd">
        <g transform="translate(12 12)">
            <mask id="b" fill="#fff">
                <use xlink:href="#a"/>
            </mask>
            <g fill="#000" fill-opacity=".54" mask="url(#b)">
                <path d="M0 0h48v48H0z"/>
            </g>
        </g>
        <path fill="#000" fill-rule="nonzero" d="M36 0C16.15 0 0 16.149 0 36s16.15 36 36 36 36-16.149 36-36S55.85 0 36 0zm0 69.23C17.677 69.23 2.77 54.324 2.77 36 2.77 17.677 17.676 2.77 36 2.77c18.323 0 33.23 14.907 33.23 33.23 0 18.323-14.907 33.23-33.23 33.23z" opacity=".2"/>
    </g>
</svg>
