<?xml version="1.0" encoding="utf-8"?>
<!-- Generator: Adobe Illustrator 23.0.0, SVG Export Plug-In . SVG Version: 6.00 Build 0)  -->
<svg version="1.1" id="Layer_1" xmlns="http://www.w3.org/2000/svg" xmlns:xlink="http://www.w3.org/1999/xlink" x="0px" y="0px"
	 viewBox="0 0 290 233" style="enable-background:new 0 0 290 233;" xml:space="preserve">
<style type="text/css">
	.st0{fill:#D2D4DD;}
</style>
<title>Combined Shape</title>
<desc>Created with Sketch.</desc>
<g id="შეკვეთები-h">
	<g id="POS-order-minimized" transform="translate(-1391.000000, -360.000000)">
		<g id="Group-2" transform="translate(1008.000000, 286.000000)">
			<g id="Group-18" transform="translate(296.000000, 0.000000)">
				<g id="noun_Image_810291" transform="translate(86.000000, 74.158088)">
					<g id="Group" transform="translate(0.891158, 0.506329)">
						<path id="Combined-Shape" class="st0" d="M176.2,115.5l15.9,24.4c2.4,3.7,2.8,7.6,1.2,10.6c-1.7,3.1-5.2,4.8-9.6,4.8h-77.3
							c-4.5,0-8-1.7-9.5-4.8c-1.5-3-0.9-6.8,1.8-10.4l13.8-18.2c5-6.6,14.8-6.7,19.8,0l5.9,7.7c2.1,2.7,5.1,2.7,7.2,0l11.5-14.9
							C162,108,171.5,108.4,176.2,115.5z M163.2,119.6l-11.5,14.9c-5.1,6.6-14.8,6.6-19.9,0l-5.9-7.7c-2-2.7-5.1-2.7-7.1,0
							L105,144.9c-0.9,1.2-1.1,2-1.1,2.2c0,0,0,0,0,0c0.1,0,0.8,0.3,2.3,0.3h77.3c1.7,0,2.5-0.5,2.6-0.7c0.1-0.2,0.1-1.1-0.8-2.5
							l-15.9-24.4C167.7,117.1,165.1,117,163.2,119.6z M139.8,76.6c9.2,0,16.8,7.4,16.8,16.6c0,9.2-7.5,16.6-16.8,16.6
							c-9.2,0-16.7-7.4-16.7-16.6C123,84,130.5,76.6,139.8,76.6z M139.8,84.5c-4.8,0-8.8,3.9-8.8,8.7c0,4.8,3.9,8.7,8.8,8.7
							c4.8,0,8.8-3.9,8.8-8.7C148.5,88.4,144.6,84.5,139.8,84.5z"/>
					</g>
				</g>
			</g>
		</g>
	</g>
</g>
</svg>
