<svg xmlns="http://www.w3.org/2000/svg" width="24" height="25" viewBox="0 0 24 25">
    <g fill="none" fill-rule="evenodd">
        <path d="M0.01 0L24.01 0 24.01 24 0.01 24z"/>
        <g fill="#495057" fill-rule="nonzero" stroke="#495057" transform="translate(0 1)">
            <path stroke-width=".56" d="M23.31 12.733l-4.253 2.216v-1.525l4.612-2.428a.39.39 0 00.165-.525.39.39 0 00-.524-.163l-4.253 2.24v-1.552l4.533-2.357a.383.383 0 00.208-.35.38.38 0 00-.215-.343L16.52 4.454a.378.378 0 00-.344 0L.971 11.886a.39.39 0 000 .7l7.604 3.694a.376.376 0 00.347-.005l4.906-2.557v1.551l-5.092 2.652-7.43-3.607a.385.385 0 00-.514.18.385.385 0 00.179.518l7.604 3.693a.376.376 0 00.347-.005l4.906-2.557v1.523l-5.092 2.651-7.43-3.604a.383.383 0 00-.514.181.384.384 0 00.179.517l7.604 3.691a.363.363 0 00.347-.005l5.476-2.846 9.271-4.827a.387.387 0 00.165-.522.388.388 0 00-.524-.168zm-9.096-.089L7.724 9.45l3.684-1.801 6.376 3.137-3.57 1.858zm2.131-7.407l6.206 3.066-3.914 2.036-6.345-3.123 4.053-1.98zM8.738 15.494l-6.71-3.26 4.815-2.352 6.512 3.205-4.617 2.407zm6.836-2.685c.002-.003.008-.003.01-.006l2.696-1.401v3.948l-3.672 1.913v-3.948l.966-.506z"/>
            <path stroke-width=".64" d="M7.701 5.997c3.135 0 5.502-1.118 5.502-2.598C13.203 1.919 10.838.8 7.701.8 4.564.8 2.197 1.918 2.197 3.399c0 1.48 2.367 2.598 5.504 2.598zm0-4.42c2.785 0 4.725.96 4.725 1.822 0 .86-1.94 1.822-4.725 1.822-2.785 0-4.725-.961-4.725-1.822 0-.861 1.94-1.822 4.725-1.822zM8.09 8.045a.387.387 0 00-.386-.388c-2.56 0-4.431-.643-4.702-1.242a.394.394 0 00-.517-.192c-.194.09-.283.318-.194.515.528 1.165 3.174 1.698 5.41 1.698a.39.39 0 00.389-.39zM2.966 9.153a.388.388 0 00-.541-.097.39.39 0 00-.1.54c.216.31.712.557 1.517.751a.389.389 0 10.184-.756c-.9-.217-1.055-.427-1.06-.438z"/>
            <ellipse cx="12.754" cy="10.091" stroke-width=".5" rx="1.751" ry="1" transform="rotate(-22.526 12.754 10.09)"/>
        </g>
    </g>
</svg>
