<svg xmlns="http://www.w3.org/2000/svg" xmlns:xlink="http://www.w3.org/1999/xlink" width="24" height="23" viewBox="0 0 24 23">
    <defs>
        <path id="a" d="M0 .025h8.71v5.918H0z"/>
    </defs>
    <g fill="none" fill-rule="evenodd">
        <path fill="#495057" d="M3.773 6.722L2.31 5.259a.55.55 0 1 0-.779.778l2.625 2.625a.236.236 0 0 0 .334 0l2.625-2.625a.55.55 0 1 0-.779-.778L4.873 6.722v-1.14a3.33 3.33 0 0 1 3.33-3.33h1.942a.55.55 0 0 0 0-1.1H8.242c-2.468 0-4.47 2.001-4.47 4.47v1.1zM18.844 15.35l1.463 1.462a.55.55 0 0 0 .779-.778L18.46 13.41a.237.237 0 0 0-.334 0l-2.625 2.624a.55.55 0 1 0 .779.778l1.463-1.463v1.14a3.33 3.33 0 0 1-3.33 3.33h-1.942a.55.55 0 0 0 0 1.1h1.903c2.468 0 4.47-2 4.47-4.47v-1.1z"/>
        <g transform="translate(0 17.087)">
            <mask id="b" fill="#fff">
                <use xlink:href="#a"/>
            </mask>
            <path fill="#495057" d="M7.61 4.843H1.1V2.149c0-.5.362-.918.838-1.006l2.417 2.3 2.418-2.3c.475.088.837.506.837 1.006v2.694zM6.586.025h-.235L4.355 1.924 2.36.025h-.236A2.126 2.126 0 0 0 0 2.15v3.794h8.71V2.15A2.126 2.126 0 0 0 6.586.025z" mask="url(#b)"/>
        </g>
        <path fill="#495057" d="M4.355 12.625c.905 0 1.641.736 1.641 1.641s-.736 1.641-1.64 1.641a1.643 1.643 0 0 1-1.642-1.64c0-.906.736-1.642 1.641-1.642m0 4.383a2.745 2.745 0 0 0 2.742-2.742 2.745 2.745 0 0 0-2.742-2.741 2.745 2.745 0 0 0-2.742 2.741 2.745 2.745 0 0 0 2.742 2.742M21.961 10.405h-6.509V7.71c0-.5.362-.918.837-1.006l2.418 2.3 2.417-2.3c.476.088.837.505.837 1.006v2.694z"/>
        <path fill="#495057" d="M20.938 5.587h-.236l-1.995 1.899-1.996-1.899h-.236a2.126 2.126 0 0 0-2.123 2.124v3.794h8.71V7.711a2.126 2.126 0 0 0-2.124-2.124zM18.707 1.1c.905 0 1.64.737 1.64 1.642 0 .905-.735 1.64-1.64 1.64a1.643 1.643 0 0 1-1.641-1.64c0-.905.736-1.641 1.64-1.641m0 4.383a2.745 2.745 0 0 0 2.743-2.742A2.745 2.745 0 0 0 18.707 0a2.745 2.745 0 0 0-2.742 2.742 2.745 2.745 0 0 0 2.742 2.742"/>
    </g>
</svg>
