<svg xmlns="http://www.w3.org/2000/svg" width="24" height="24" viewBox="0 0 24 24">
    <g fill="none" fill-rule="evenodd">
        <path d="M0 0h24v24H0z"/>
        <path fill="#515366" fill-rule="nonzero" d="M17.25 9h-.875V7.286C16.375 4.92 14.415 3 12 3S7.625 4.92 7.625 7.286V9H6.75C5.787 9 5 9.771 5 10.714v8.572C5 20.229 5.787 21 6.75 21h10.5c.962 0 1.75-.771 1.75-1.714v-8.572C19 9.771 18.212 9 17.25 9zM12 16.714c-.963 0-1.75-.771-1.75-1.714s.787-1.714 1.75-1.714 1.75.771 1.75 1.714-.787 1.714-1.75 1.714zM14.713 9H9.288V7.286c0-1.466 1.216-2.657 2.712-2.657 1.496 0 2.713 1.191 2.713 2.657V9z"/>
    </g>
</svg>
