<svg xmlns="http://www.w3.org/2000/svg" width="25" height="25" viewBox="0 0 25 25">
    <path fill="#495057" fill-rule="evenodd" d="M24.738 23.395a.95.95 0 1 1-1.343 1.343l-4.56-4.56a.95.95 0 1 1 1.343-1.343l4.56 4.56zm-14.351-2.938c-5.562 0-10.07-4.509-10.07-10.07 0-5.562 4.508-10.07 10.07-10.07 5.561 0 10.07 4.508 10.07 10.07 0 5.561-4.509 10.07-10.07 10.07zm0-1.9a8.17 8.17 0 1 0 0-16.34 8.17 8.17 0 0 0 0 16.34zM5.7 9.627a.633.633 0 1 1-1.267 0 5.193 5.193 0 0 1 5.194-5.194.633.633 0 0 1 0 1.267A3.927 3.927 0 0 0 5.7 9.627z"/>
</svg>
