<svg xmlns="http://www.w3.org/2000/svg" width="56" height="56" viewBox="0 0 56 56">
    <g fill="none" fill-rule="evenodd">
        <path fill="#2FCD8A" d="M47.795 8.205C42.505 2.915 35.482 0 28 0 20.518 0 13.495 2.915 8.205 8.205 2.915 13.495 0 20.518 0 28c0 7.482 2.915 14.505 8.205 19.795C13.495 53.085 20.518 56 28 56c7.482 0 14.505-2.915 19.795-8.205C53.085 42.505 56 35.482 56 28c0-7.482-2.915-14.505-8.205-19.795z"/>
        <g fill="#FFF" fill-rule="nonzero" stroke="#FFF" stroke-width=".875">
            <path d="M39.814 27.839l-8.64-8.641a.7.7 0 0 0-.976 0 .7.7 0 0 0 0 .975l8.159 8.16-8.159 8.158c-.253.253-.253.689.011.964a.68.68 0 0 0 .482.207.66.66 0 0 0 .482-.207l8.641-8.64a.7.7 0 0 0 0-.976zM28.814 27.839l-8.64-8.641a.7.7 0 0 0-.976 0 .7.7 0 0 0 0 .975l8.159 8.16-8.159 8.158c-.253.253-.253.689.011.964a.68.68 0 0 0 .482.207.66.66 0 0 0 .482-.207l8.641-8.64a.7.7 0 0 0 0-.976z"/>
        </g>
    </g>
</svg>
