<svg xmlns="http://www.w3.org/2000/svg" width="23" height="23" viewBox="0 0 23 23">
    <g fill="none" fill-rule="evenodd">
        <path fill="#2FCD8A" d="M19.63 3.37A11.419 11.419 0 0 0 11.5 0a11.419 11.419 0 0 0-8.13 3.37A11.419 11.419 0 0 0 0 11.5c0 3.073 1.197 5.957 3.37 8.13A11.419 11.419 0 0 0 11.5 23c3.073 0 5.957-1.197 8.13-3.37A11.419 11.419 0 0 0 23 11.5c0-3.073-1.197-5.957-3.37-8.13z"/>
        <path fill="#FFF" fill-rule="nonzero" stroke="#FFF" stroke-width=".616" d="M15.88 11.153L9.854 5.068a.485.485 0 0 0-.68 0 .496.496 0 0 0 0 .687l5.69 5.746-5.69 5.746a.494.494 0 0 0 .008.679.458.458 0 0 0 .672 0l6.026-6.086a.496.496 0 0 0 0-.687z"/>
    </g>
</svg>
