<svg xmlns="http://www.w3.org/2000/svg" width="56" height="56" viewBox="0 0 56 56">
    <g fill="none" fill-rule="evenodd">
        <rect width="54.857" height="54.857" x=".571" y=".571" fill="#FFF" stroke="#E6ECF5" stroke-width="1.143" rx="4"/>
        <g fill="#007AFF" fill-rule="nonzero">
            <path d="M38.246 19.017H17.703A2.707 2.707 0 0 0 15 21.72v11.893a2.707 2.707 0 0 0 2.703 2.703h20.543a2.707 2.707 0 0 0 2.703-2.703V21.72a2.707 2.707 0 0 0-2.703-2.703zm1.622 14.596c0 .895-.728 1.622-1.622 1.622H17.703a1.624 1.624 0 0 1-1.622-1.622V21.72c0-.894.728-1.622 1.622-1.622h20.543c.894 0 1.622.728 1.622 1.622v11.893z"/>
            <path d="M40.409 22.26H15.54a.54.54 0 0 0-.541.541v3.244c0 .298.242.54.54.54H40.41a.54.54 0 0 0 .54-.54V22.8a.54.54 0 0 0-.54-.54zm-.54 3.244H16.08v-2.162h23.787v2.162zM25.272 29.83h-6.488a.54.54 0 0 0 0 1.08h6.488a.54.54 0 0 0 0-1.08zM25.272 31.992h-6.488a.54.54 0 0 0 0 1.08h6.488a.54.54 0 0 0 0-1.08zM36.084 28.748h-1.081c-.895 0-1.622.728-1.622 1.622v1.08c0 .895.727 1.623 1.622 1.623h1.08c.895 0 1.623-.728 1.623-1.622V30.37c0-.894-.728-1.622-1.622-1.622zm.54 2.703a.54.54 0 0 1-.54.54h-1.081a.54.54 0 0 1-.541-.54V30.37a.54.54 0 0 1 .54-.54h1.082a.54.54 0 0 1 .54.54v1.081z"/>
        </g>
    </g>
</svg>
