<svg xmlns="http://www.w3.org/2000/svg" width="109" height="95" viewBox="0 0 109 95">
    <g fill="#D5D7E2" fill-rule="nonzero">
        <path d="M35.546 63H92.93a3.163 3.163 0 0 0 3.042-2.285l12.656-44.1a3.14 3.14 0 0 0-.516-2.762 3.17 3.17 0 0 0-2.526-1.253H28.249L25.988 2.467A3.162 3.162 0 0 0 22.898 0H3.914A3.157 3.157 0 0 0 .75 3.15c0 1.74 1.416 3.15 3.164 3.15h16.447l11.423 51.18c-3.362 1.455-5.721 4.792-5.721 8.67 0 5.21 4.258 9.45 9.492 9.45H92.93a3.157 3.157 0 0 0 3.164-3.15c0-1.74-1.417-3.15-3.164-3.15H35.555a3.161 3.161 0 0 1-3.164-3.15A3.16 3.16 0 0 1 35.546 63zm65.845-44.1L90.543 56.7h-52.45l-8.438-37.8h71.736z"/>
        <path d="M32.39 85.05c0 5.21 4.259 9.45 9.493 9.45s9.492-4.24 9.492-9.45c0-5.21-4.258-9.45-9.492-9.45-5.234 0-9.492 4.24-9.492 9.45zm9.493-3.15a3.161 3.161 0 0 1 3.164 3.15c0 1.737-1.42 3.15-3.164 3.15a3.161 3.161 0 0 1-3.164-3.15c0-1.737 1.42-3.15 3.164-3.15zM77.11 85.05c0 5.21 4.258 9.45 9.492 9.45 5.233 0 9.492-4.24 9.492-9.45 0-5.21-4.259-9.45-9.492-9.45-5.234 0-9.493 4.24-9.493 9.45zm9.492-3.15a3.161 3.161 0 0 1 3.164 3.15c0 1.737-1.42 3.15-3.164 3.15a3.161 3.161 0 0 1-3.165-3.15c0-1.737 1.42-3.15 3.165-3.15z"/>
    </g>
</svg>
