<svg xmlns="http://www.w3.org/2000/svg" width="24" height="24" viewBox="0 0 24 24">
    <g fill="#495057" fill-rule="evenodd" stroke="#FFF" stroke-width=".88">
        <path d="M16.518 10.228L12.21 5.533a.396.396 0 0 0-.57 0l-4.246 4.695a.395.395 0 0 0-.061.428.352.352 0 0 0 .352.232h2.717v6.267a.377.377 0 0 0 .388.39h2.33a.376.376 0 0 0 .388-.39v-6.267h2.718c.162 0 .279-.077.352-.232a.395.395 0 0 0-.06-.428"/>
        <path d="M6.595 16.88a7.624 7.624 0 0 1-2.22-5.544A7.652 7.652 0 0 1 6.62 6.051a7.513 7.513 0 0 1 3.578-2.007.258.258 0 0 0 .197-.252V1.261a.257.257 0 0 0-.3-.256C5.153 1.891 1.4 6.243 1.4 11.478c0 5.236 3.753 9.587 8.695 10.473.157.028.3-.095.3-.255v-2.532a.258.258 0 0 0-.197-.251 7.515 7.515 0 0 1-3.603-2.033M22.51 11.478c0-5.238-3.755-9.59-8.7-10.474a.257.257 0 0 0-.301.255V3.79c0 .12.081.225.197.252a7.513 7.513 0 0 1 3.583 2.006 7.652 7.652 0 0 1 2.246 5.288 7.624 7.624 0 0 1-2.22 5.545 7.516 7.516 0 0 1-3.61 2.033.258.258 0 0 0-.196.252v2.53c0 .161.143.284.3.256 4.946-.883 8.702-5.236 8.702-10.474"/>
    </g>
</svg>
