<svg xmlns="http://www.w3.org/2000/svg" width="24" height="24" viewBox="0 0 24 24">
    <g fill="none" fill-rule="evenodd">
        <path d="M0 0h24v24H0z"/>
        <g fill="#FC3C2D">
            <path d="M15.256 3.471v2.55a7.213 7.213 0 0 1 3.913 6.412 7.22 7.22 0 1 1-14.44 0 7.214 7.214 0 0 1 3.352-6.09v-2.65C4.73 5.179 2.387 8.53 2.387 12.434c0 5.28 4.28 9.561 9.56 9.561a9.56 9.56 0 0 0 9.562-9.561c-.001-4.118-2.608-7.615-6.253-8.963z"/>
            <path d="M11.763 13.668c1.051 0 1.158-.62 1.158-1.384V3.287c0-.766-.107-1.387-1.158-1.387-1.046 0-1.154.621-1.154 1.387v8.997c-.001.764.108 1.384 1.154 1.384z"/>
        </g>
    </g>
</svg>
