<svg xmlns="http://www.w3.org/2000/svg" width="58" height="58" viewBox="0 0 58 58">
    <g fill="none" fill-rule="evenodd">
        <circle cx="29" cy="29" r="28.5" fill="#F6F7FB" fill-opacity=".5" stroke="#DAE1ED"/>
        <path fill="#07F" fill-rule="nonzero" d="M36.071 31.929a9.962 9.962 0 0 0-3.8-2.384 5.78 5.78 0 0 0 2.51-4.764A5.788 5.788 0 0 0 29 19a5.788 5.788 0 0 0-5.781 5.781 5.78 5.78 0 0 0 2.51 4.764 9.962 9.962 0 0 0-3.8 2.384A9.935 9.935 0 0 0 19 39h1.563c0-4.652 3.785-8.438 8.437-8.438 4.652 0 8.438 3.786 8.438 8.438H39a9.935 9.935 0 0 0-2.929-7.071zM29 29a4.224 4.224 0 0 1-4.219-4.219A4.224 4.224 0 0 1 29 20.563a4.224 4.224 0 0 1 4.219 4.218A4.224 4.224 0 0 1 29 29z"/>
    </g>
</svg>
