<svg xmlns="http://www.w3.org/2000/svg" width="24" height="17" viewBox="0 0 24 17">
    <g fill="none" fill-rule="nonzero">
        <path fill="#E0E2E9" d="M23.946 4.982a.262.262 0 0 0-.032-.037A16.745 16.745 0 0 0 11.996.008 16.744 16.744 0 0 0 .078 4.944a.264.264 0 0 0 0 .373L1.82 7.06a.263.263 0 0 0 .372 0 13.777 13.777 0 0 1 9.804-4.068c3.699 0 7.18 1.445 9.803 4.068a.263.263 0 0 0 .373 0l1.742-1.743a.263.263 0 0 0 .032-.335z"/>
        <path fill="#2FCD8A" d="M11.996 4.617c-3.266 0-6.34 1.275-8.656 3.59a.263.263 0 0 0 0 .373l1.737 1.737a.263.263 0 0 0 .373 0 9.2 9.2 0 0 1 6.546-2.716c2.47 0 4.795.965 6.546 2.716a.263.263 0 0 0 .372 0l1.737-1.737a.263.263 0 0 0 0-.372 12.164 12.164 0 0 0-8.655-3.591z"/>
        <path fill="#2FCD8A" d="M11.996 9.226a7.586 7.586 0 0 0-5.398 2.24.263.263 0 0 0 0 .372l1.737 1.737a.263.263 0 0 0 .372 0 4.621 4.621 0 0 1 3.289-1.365c1.24 0 2.409.485 3.288 1.365a.263.263 0 0 0 .372 0l1.738-1.737a.263.263 0 0 0 0-.373 7.585 7.585 0 0 0-5.398-2.24zM11.996 14.11c-.712 0-1.38.277-1.884.78a.263.263 0 0 0 0 .372l1.698 1.697a.263.263 0 0 0 .372 0l1.697-1.697a.263.263 0 0 0 0-.372 2.646 2.646 0 0 0-1.883-.78z"/>
    </g>
</svg>
