<svg xmlns="http://www.w3.org/2000/svg" width="36" height="36" viewBox="0 0 36 36">
    <path fill="#3A3E56" fill-rule="evenodd" d="M14 9c-2.21 0-4 1.79-4 4v10c0 2.21 1.79 4 4 4h5c1.864 0 3.43-1.274 3.874-3H20.82v-.169c-.296.647-.927 1.109-1.67 1.164L19 25h-5c-1.054 0-1.918-.816-1.995-1.85L12 23V13c0-1.105.895-2 2-2h5c.808 0 1.504.48 1.82 1.169V12h2.054c-.444-1.725-2.01-3-3.874-3h-5zm1 12c-.552 0-1 .448-1 1s.448 1 1 1h3c.552 0 1-.448 1-1s-.448-1-1-1h-3zm6.578-6.73c-.332.333-.358.857-.076 1.219l.076.087L23.051 17h-7.934c-.51 0-.923.413-.923.923s.413.923.923.923h7.85l-1.389 1.345c-.332.333-.358.857-.076 1.219l.076.087c.333.332.857.358 1.219.076l.087-.076 3.04-2.96c.332-.334.358-.857.076-1.22l-.077-.086-3.04-2.96c-.36-.361-.944-.361-1.305 0zM14.941 13c-.52 0-.941.421-.941.941s.421.941.941.941h4.118c.52 0 .941-.421.941-.94 0-.52-.421-.942-.941-.942H14.94z"/>
</svg>
