<svg xmlns="http://www.w3.org/2000/svg" width="36" height="36" viewBox="0 0 36 36">
    <g fill="#FFF">
        <path d="M25 14.95c-3.335 0-6.05 2.715-6.05 6.05s2.715 6.05 6.05 6.05 6.05-2.715 6.05-6.05-2.715-6.05-6.05-6.05zm0 1.635c2.445 0 4.415 1.97 4.415 4.415 0 2.445-1.97 4.415-4.415 4.415-2.445 0-4.415-1.97-4.415-4.415 0-2.445 1.97-4.415 4.415-4.415zm.573 1.083c-.372 0-.692.251-.788.602l-.022.108-.007.107.05 2.39h-2.102c-.33 0-.62.197-.75.492l-.036.101-.024.117-.007.107c0 .373.25.692.601.788l.108.023.108.007h2.87c.372 0 .691-.251.788-.602l.022-.108.007-.108v-3.207c0-.373-.251-.692-.602-.788l-.108-.022-.108-.007z"/>
        <path d="M11.316 21.13l.032.008.17.205.159.165.068.083.297.283.225.191.222.178.082.06.121.076.09.068.143.082.091.058.26.151.136.073.288.133.112.056.112.046.472.165.106.031.17.041.343.076.187.033.2.04.265.022.15.016.141.002 1.744.002c.254.753.616 1.456 1.067 2.092H8.315c-.216 0-.359-.203-.303-.396l.027-.063.046-.063 1.44-1.486.21-.084.759.057h.551l-.082-.059-.301-.268-.056-.055-.069-.061-.134-.13-.062-.067-.154-.157-.047-.056-.097-.106-.059-.075-.155-.183-.162-.207-.028-.042-.064-.084-.124-.183-.016-.031-.057-.077-.042-.065-.201-.334-.098-.178-.036-.08-.049-.085-.052-.101-.034-.081-.058-.116-.123-.291-.08-.198-.074-.205-.092-.3-.026-.102-.044-.142-.12-.536-.056-.34-.036-.332-.027-.352-.004-.139-.003-.4.003-.173.008-.146.039-.438.042-.307.043-.261.025-.09.021-.107.074-.313.031-.123.034-.116.073-.238.114-.325.045-.097.043-.116.08-.167.098-.235.063-.125.058-.102.029-.039.054-.123.123-.195.048-.095.136-.206.032-.038.117-.184.063-.09.052-.063.068-.089.058-.068.214-.271.053-.054.079-.1.198-.206.213-.206.35-.323.412-.318.237-.175.42-.27.138-.082.198-.105.185-.103.13-.068.207-.095.107-.044.142-.065.126-.046.245-.097.124-.037.072.017.001-1.441.098-.206.134-.12 1.164-1.138c.153-.15.4-.105.498.063l.03.069.011.086-.057 2.115v.145l.054-.004.057-.01.335-.013.428-.005.29.01.196.014.005.058.005-1.062.089-.197 1.307-1.267c.153-.148.399-.102.498.071l.03.07.01.08-.038 2.623.116.038.434.16.19.081.408.191.302.16.213.12.357.224.139.098.064.05.225.158.216.17.04.036.082.066.063.058.074.062.282.265.262.264.064.07.295.346.014.021.145.185.133.182.03.048.048.063.07.102c-.64.189-1.245.455-1.807.787l-.02-.028-.068-.086-.053-.076-.011-.021-.131-.155-.159-.176-.148-.153-.015-.02-.077-.065-.05-.05-.078-.068-.05-.048-.077-.065-.061-.057-.35-.269-.232-.16-.082-.048-.102-.068-.146-.081-.024-.019-.233-.12-.255-.122-.004 4.16c-.12.165-.234.334-.34.507l-1.054 1.02c-.153.149-.399.103-.498-.07l-.03-.071-.01-.079.05-5.984-.21-.02-.27-.017-.428.002-.132.004-.32-.035-.007 4.808-.089.197-1.3 1.263c-.154.149-.4.103-.5-.07l-.03-.072-.01-.078.057-3.953v-1.542l-.04.019-.03.006-.085.047-.08.036-.151.075-.103.057-.028.008-.166.102-.062.032-.086.061-.085.053-.207.147-.048.027-.224.168-.238.205-.277.27-.046.036-.075.087-.054.052-.036.037-.067.081-.102.108-.125.166-.277.39-.063.11-.068.1-.063.109-.103.193-.063.13-.037.064-.054.107-.056.156-.042.098-.125.338-.043.152-.027.08-.047.183-.073.34-.018.144-.02.12-.028.219-.008.153-.008.129-.005.2-.007.106-.003.207.036.43.037.323.036.16.067.326.053.184.142.436.074.178.07.144.106.244.085.153.043.086.131.219.23.342.072.08c.024.027.046.062.063.1l.016.047.011.006-.007.007z"/>
    </g>
</svg>
