<svg xmlns="http://www.w3.org/2000/svg" width="48" height="48" viewBox="0 0 48 48">
    <defs>
        <filter id="prefix__a">
            <feColorMatrix in="SourceGraphic" values="0 0 0 0 0.227451 0 0 0 0 0.243137 0 0 0 0 0.337255 0 0 0 1.000000 0"/>
        </filter>
    </defs>
    <g fill="none" fill-rule="evenodd">
        <g fill="#000" fill-rule="nonzero">
            <path d="M13.395 0C9.29 0 5.95 3.34 5.95 7.444c0 4.105 3.339 7.444 7.444 7.444s7.444-3.339 7.444-7.444S17.5 0 13.395 0zm0 12.723c-2.91 0-5.278-2.368-5.278-5.278 0-2.91 2.368-5.279 5.278-5.279 2.91 0 5.279 2.368 5.279 5.279 0 2.91-2.369 5.278-5.28 5.278zM27.309 43.71c6.328 0 11.475-5.147 11.475-11.475 0-6.327-5.147-11.475-11.475-11.475-.524 0-1.035.048-1.54.116-1.08-2.254-3.012-4.07-5.464-4.954-1.08-.386-2.3-.112-3.113.699l-3.226 3.226c-.314.316-.829.315-1.143 0l-3.225-3.226c-.813-.812-2.034-1.09-3.114-.698C2.647 17.308.07 20.968.07 25.03v7.322h15.77c.064 6.274 5.18 11.358 11.469 11.358zm0-20.784c5.133 0 9.31 4.176 9.31 9.309 0 5.133-4.178 9.31-9.31 9.31-5.133 0-9.31-4.177-9.31-9.31 0-5.133 4.177-9.31 9.31-9.31zM2.235 25.03c0-3.152 2.003-5.994 4.984-7.07.295-.104.625-.028.846.192l3.226 3.228c1.16 1.16 3.049 1.157 4.207 0l3.227-3.227c.22-.223.553-.298.845-.193 1.749.631 3.145 1.88 4.014 3.433-3.875 1.334-6.812 4.683-7.557 8.794H2.235V25.03z" transform="translate(5 2)"/>
            <path d="M26.226 36.959L27.309 36.959 28.392 36.959 28.392 33.318 32.033 33.318 32.033 31.152 28.392 31.152 28.392 27.512 27.309 27.512 26.226 27.512 26.226 31.152 22.585 31.152 22.585 32.235 22.585 33.318 26.226 33.318z" transform="translate(5 2)"/>
        </g>
    </g>
</svg>
