<svg xmlns="http://www.w3.org/2000/svg" width="24" height="24" viewBox="0 0 24 24">
    <g fill="none" fill-rule="evenodd">
        <g>
            <g>
                <g>
                    <g>
                        <g>
                            <g>
                                <path d="M0 0H24V24H0z" transform="translate(-20 -311) translate(20 311)"/>
                            </g>
                        </g>
                    </g>
                    <path fill="#4563FF" class="fill-dark stroke-dark" fill-rule="nonzero" stroke="#4563FF" stroke-width=".5" d="M11.969 8.652c.087-1.4 1.25-2.51 2.673-2.51h.054C14.95 4.897 16.048 4 17.32 4c1.41 0 2.578 1.093 2.672 2.5.094 1.406-.917 2.645-2.314 2.833-1.397.189-2.701-.738-2.983-2.119h0-.054c-.887 0-1.607.72-1.607 1.607h0v5.358l-.005.169c-.087 1.4-1.25 2.51-2.673 2.51h0-.054c-.275 1.347-1.526 2.267-2.894 2.129C6.041 18.848 5 17.697 5 16.32c0-1.375 1.041-2.526 2.41-2.665 1.367-.138 2.618.782 2.893 2.13h.054c.887 0 1.607-.72 1.607-1.607h0V8.82zm-4.291 6.062c-.888 0-1.607.72-1.607 1.607 0 .888.72 1.608 1.607 1.608.888 0 1.607-.72 1.607-1.608 0-.887-.72-1.607-1.607-1.607zm9.643-9.643c-.888 0-1.607.72-1.607 1.608 0 .887.72 1.607 1.607 1.607.426 0 .835-.17 1.136-.471.302-.301.471-.71.471-1.136 0-.888-.72-1.608-1.607-1.608z" transform="translate(-20 -311) translate(20 311)"/>
                </g>
            </g>
        </g>
    </g>
</svg>
