<svg xmlns="http://www.w3.org/2000/svg" width="48" height="48" viewBox="0 0 48 48">
    <path fill="#4563FF" fill-rule="evenodd" d="M32.645 16.73c-.17-.197-.481-.197-.68-.028l-1.272 1.179c-.17.168-.199.449-.029.645 1.302 1.544 2.01 3.481 2.01 5.502 0 4.576-3.594 8.281-8.122 8.562v-1.516c0-.618-.68-.983-1.217-.674l-4.556 2.751c-.51.309-.51 1.039 0 1.348l4.528 2.722c.537.31 1.217-.056 1.217-.673v-1.32c5.999-.28 10.81-5.165 10.81-11.2 0-2.695-.934-5.277-2.689-7.298zm-7.98-5.951c-.538-.31-1.217.056-1.217.673v1.32c-6.027.28-10.81 5.165-10.781 11.172 0 2.695.934 5.277 2.688 7.298.17.197.481.197.68.028l1.273-1.179c.17-.168.198-.449.028-.645-1.302-1.544-2.01-3.481-2.01-5.502 0-4.576 3.595-8.281 8.122-8.562v1.516c0 .618.68.983 1.217.674l4.528-2.723c.51-.309.51-1.039 0-1.348z"/>
</svg>
