<svg width="48px" height="48px" viewBox="0 0 48 48" version="1.1" xmlns="http://www.w3.org/2000/svg" xmlns:xlink="http://www.w3.org/1999/xlink">
    <g id="Icons/48/Doc" stroke="none" stroke-width="1" fill="none" fill-rule="evenodd">
        <rect x="0" y="0" width="48" height="48"></rect>
        <path class="fill-change" d="M32.173913,8 C34.2870025,8 36,9.71299748 36,11.826087 L36,36.1787589 C36,38.2918483 34.2870025,40.0048459 32.173913,40.0048459 L15.826087,40.0048459 C13.7129975,40.0048459 12,38.2918483 12,36.1787589 L12,11.826087 C12,9.71299748 13.7129975,8 15.826087,8 L32.173913,8 Z M32.173913,10.1043478 L15.826087,10.1043478 C14.9227412,10.1043478 14.1818828,10.8000389 14.1100553,11.6848776 L14.1043478,11.826087 L14.1043478,36.1787589 C14.1043478,37.0821046 14.8000389,37.8229624 15.6848776,37.8947899 L15.826087,37.9004979 L32.173913,37.9004979 C33.0772588,37.9004979 33.8181175,37.2048065 33.889945,36.3199679 L33.895652,36.1787589 L33.895652,11.826087 C33.895652,10.9227412 33.1999607,10.1818828 32.315122,10.1100553 L32.173913,10.1043478 Z" id="Combined-Shape" fill="#562C98" fill-rule="nonzero"></path>
        <path class="fill-change" d="M19,17 L28,17 C28.5522847,17 29,17.4477153 29,18 C29,18.5522847 28.5522847,19 28,19 L19,19 C18.4477153,19 18,18.5522847 18,18 C18,17.4477153 18.4477153,17 19,17 Z" id="Rectangle-Copy-2" fill="#562C98"></path>
        <path class="fill-change" d="M19,21 L28,21 C28.5522847,21 29,21.4477153 29,22 C29,22.5522847 28.5522847,23 28,23 L19,23 C18.4477153,23 18,22.5522847 18,22 C18,21.4477153 18.4477153,21 19,21 Z" id="Rectangle-Copy-4" fill="#562C98"></path>
        <path class="fill-change" d="M19,25 L23,25 C23.5522847,25 24,25.4477153 24,26 C24,26.5522847 23.5522847,27 23,27 L19,27 C18.4477153,27 18,26.5522847 18,26 C18,25.4477153 18.4477153,25 19,25 Z" id="Rectangle-Copy-3" fill="#562C98"></path>
    </g>
</svg>