<svg xmlns="http://www.w3.org/2000/svg" width="36" height="36" viewBox="0 0 36 36">
    <defs>
        <filter id="1i61qjhh8a">
            <feColorMatrix in="SourceGraphic" values="0 0 0 0 0.227451 0 0 0 0 0.243137 0 0 0 0 0.337255 0 0 0 1.000000 0"/>
        </filter>
    </defs>
    <g fill="none" fill-rule="evenodd">
        <g>
            <g>
                <g>
                    <g>
                        <g transform="translate(-38 -470) translate(0 70) translate(0 381) translate(24 16) translate(14 3)">
                            <g>
                                <path fill="#343434" d="M1.957 0c1.08 0 1.956.895 1.956 2s-.876 2-1.956 2C.876 4 0 3.105 0 2s.876-2 1.957-2zM9 0c1.08 0 1.957.895 1.957 2S10.08 4 9 4c-1.08 0-1.957-.895-1.957-2S7.92 0 9 0zm7.043 0C17.124 0 18 .895 18 2s-.876 2-1.957 2c-1.08 0-1.956-.895-1.956-2s.876-2 1.956-2z" transform="translate(9 16)"/>
                            </g>
                        </g>
                    </g>
                </g>
            </g>
        </g>
    </g>
</svg>
